<svg version="1.1" xmlns="http://www.w3.org/2000/svg" viewBox="0 0 533.2241058349609 567.2432204564151" width="533.2241058349609" height="567.2432204564151">
  <!-- svg-source:excalidraw -->
  
  <defs>
    <style class="style-fonts">
      @font-face {
        font-family: "Virgil";
        src: url("https://file%2B.vscode-resource.vscode-cdn.net/c%3A/Users/kan/.vscode/extensions/pomdtr.excalidraw-editor-3.7.4/public//dist/excalidraw-assets/Virgil.woff2");
      }
      @font-face {
        font-family: "Cascadia";
        src: url("https://file%2B.vscode-resource.vscode-cdn.net/c%3A/Users/kan/.vscode/extensions/pomdtr.excalidraw-editor-3.7.4/public//dist/excalidraw-assets/Cascadia.woff2");
      }
      @font-face {
        font-family: "Assistant";
        src: url("https://file%2B.vscode-resource.vscode-cdn.net/c%3A/Users/kan/.vscode/extensions/pomdtr.excalidraw-editor-3.7.4/public//dist/excalidraw-assets/Assistant-Regular.woff2");
      }
    </style>
    
  </defs>
  <rect x="0" y="0" width="533.2241058349609" height="567.2432204564151" fill="#ffffff"></rect><g stroke-linecap="round" transform="translate(41.512237548828125 47.79380301151767) rotate(0 231.71875 231.71875)"><path d="M300.04 11 C318.55 12.8, 336.99 24.71, 353.51 34.83 C370.03 44.95, 385.87 57.88, 399.18 71.72 C412.49 85.57, 424.06 101.29, 433.38 117.9 C442.69 134.5, 450.09 152.86, 455.05 171.34 C460.02 189.82, 463.01 209.56, 463.17 228.76 C463.33 247.95, 460.46 267.7, 456.03 286.52 C451.59 305.35, 445.31 324.62, 436.56 341.68 C427.81 358.74, 416.5 374.93, 403.54 388.89 C390.57 402.84, 374.99 414.88, 358.76 425.4 C342.53 435.92, 324.47 445.92, 306.16 452.01 C287.85 458.1, 268.19 460.66, 248.88 461.94 C229.58 463.21, 209.28 463.03, 190.33 459.68 C171.37 456.32, 152.49 449.8, 135.16 441.81 C117.84 433.82, 101.19 423.65, 86.38 411.73 C71.56 399.82, 57.74 385.51, 46.27 370.33 C34.8 355.14, 24.86 338.28, 17.55 320.6 C10.24 302.93, 5.05 283.33, 2.38 264.29 C-0.28 245.26, -0.65 225.49, 1.56 206.38 C3.78 187.28, 8.88 167.85, 15.68 149.65 C22.49 131.45, 31.39 112.97, 42.39 97.18 C53.39 81.39, 66.87 67.08, 81.68 54.9 C96.5 42.72, 113.89 32.58, 131.28 24.12 C148.67 15.66, 167.35 8.01, 186.02 4.12 C204.69 0.23, 222.94 -0.83, 243.29 0.77 C263.64 2.37, 296.48 10.49, 308.13 13.72 C319.79 16.94, 314.34 16.61, 313.23 20.1 M267.08 2.99 C285.96 2.21, 307.42 11.18, 325.34 19.01 C343.27 26.84, 359.46 38.03, 374.61 49.95 C389.76 61.88, 404.78 75.55, 416.25 90.58 C427.72 105.61, 436.08 122.68, 443.45 140.14 C450.82 157.6, 457.23 176.62, 460.48 195.36 C463.74 214.09, 464.54 233.49, 462.97 252.56 C461.4 271.62, 457.46 291.39, 451.04 309.74 C444.63 328.1, 435.7 346.47, 424.5 362.68 C413.31 378.89, 398.39 394.57, 383.88 407.02 C369.37 419.46, 354.55 428.81, 337.44 437.36 C320.33 445.92, 300.14 454.14, 281.2 458.33 C262.27 462.52, 242.94 463.33, 223.83 462.53 C204.72 461.73, 185.01 459, 166.55 453.54 C148.09 448.08, 129.59 439.48, 113.07 429.79 C96.56 420.11, 80.96 408.71, 67.46 395.41 C53.96 382.12, 41.9 366.51, 32.06 350.01 C22.23 333.51, 13.56 314.85, 8.45 296.39 C3.34 277.94, 1.98 258.52, 1.4 239.29 C0.81 220.06, 1.09 199.88, 4.93 181 C8.76 162.12, 15.78 142.9, 24.39 126.03 C33.01 109.16, 43.5 93.92, 56.63 79.76 C69.75 65.61, 87.01 52.2, 103.14 41.1 C119.26 30, 135.56 19.68, 153.38 13.16 C171.19 6.65, 190.7 3.63, 210.02 2 C229.35 0.37, 259.5 2.39, 269.32 3.37 C279.14 4.34, 269.59 4.05, 268.93 7.87" stroke="#1e1e1e" stroke-width="2" fill="none"></path></g><g stroke-linecap="round" transform="translate(224.16864013671875 19.89453390751376) rotate(0 28.498321533203125 28.498321533203125)"><path d="M19.65 1.61 C25.04 -0.6, 33.82 -0.99, 39.4 1.29 C44.99 3.57, 50.33 9.94, 53.16 15.28 C56 20.61, 57.39 27.31, 56.4 33.3 C55.42 39.28, 51.91 47.09, 47.25 51.18 C42.58 55.27, 34.57 58.09, 28.41 57.83 C22.25 57.57, 14.99 53.83, 10.26 49.64 C5.54 45.44, 1.24 38.62, 0.07 32.65 C-1.1 26.68, -0.1 19.01, 3.24 13.82 C6.57 8.63, 17 3.47, 20.07 1.49 C23.14 -0.49, 21.47 1.41, 21.68 1.93 M22.44 1.94 C27.84 -0.03, 34.19 0.38, 39.66 3.09 C45.13 5.79, 52.56 12.64, 55.25 18.17 C57.94 23.69, 57.69 30.79, 55.82 36.25 C53.95 41.72, 49.17 47.4, 44.05 50.94 C38.93 54.48, 31.07 57.79, 25.11 57.49 C19.16 57.19, 12.32 53.89, 8.3 49.15 C4.29 44.41, 1.39 35.54, 1 29.06 C0.61 22.58, 2.68 14.82, 5.98 10.26 C9.27 5.7, 18.3 3.16, 20.76 1.68 C23.22 0.21, 20.56 1.31, 20.72 1.41" stroke="none" stroke-width="0" fill="#ffc9c9"></path><path d="M26.51 -0.01 C32.24 -0.7, 40.95 1.39, 45.81 4.94 C50.67 8.49, 54.45 15.29, 55.67 21.3 C56.9 27.31, 55.83 35.43, 53.14 41 C50.44 46.57, 45.18 52.4, 39.51 54.71 C33.84 57.03, 24.8 56.77, 19.13 54.88 C13.45 52.99, 8.63 48.45, 5.46 43.37 C2.29 38.29, -0.43 30.5, 0.1 24.4 C0.62 18.3, 3.7 10.77, 8.62 6.76 C13.54 2.76, 25.57 1.45, 29.61 0.38 C33.66 -0.68, 32.88 -0.13, 32.9 0.37 M20.78 1.16 C26.6 -0.45, 36.31 -0.13, 42.01 2.39 C47.72 4.9, 52.55 10.47, 55.03 16.26 C57.51 22.06, 58.68 30.95, 56.89 37.16 C55.09 43.38, 49.78 50.23, 44.26 53.57 C38.75 56.91, 29.89 58.08, 23.79 57.2 C17.69 56.33, 11.36 52.93, 7.65 48.33 C3.94 43.73, 1.98 35.65, 1.53 29.59 C1.08 23.53, 1.42 16.79, 4.93 11.98 C8.45 7.18, 19.99 2.68, 22.63 0.78 C25.28 -1.12, 20.78 0.07, 20.81 0.58" stroke="#1e1e1e" stroke-width="2" fill="none"></path></g><g transform="translate(243.365611364875 35.74149903215435) rotate(0 9.149993896484375 12.5)"><text x="9.149993896484375" y="0" font-family="Virgil, Segoe UI Emoji" font-size="20px" fill="#1e1e1e" text-anchor="middle" style="white-space: pre;" direction="ltr" dominant-baseline="text-before-edge">N1</text></g><g stroke-linecap="round" transform="translate(464.5555725097656 191.94831350956454) rotate(0 28.498321533203125 24.5)"><path d="M16.96 2.76 C21.95 0.54, 29.33 0.46, 35.11 1.69 C40.88 2.92, 47.9 6.09, 51.6 10.13 C55.31 14.17, 57.89 20.58, 57.31 25.93 C56.74 31.28, 52.46 38.26, 48.16 42.26 C43.86 46.25, 37.59 49.38, 31.5 49.88 C25.4 50.38, 16.67 48.43, 11.56 45.26 C6.46 42.09, 2.25 35.91, 0.89 30.87 C-0.47 25.83, 0.39 20, 3.41 15 C6.43 10, 16.16 3.06, 19.04 0.85 C21.92 -1.36, 20.55 1.16, 20.69 1.72 M34.94 1.18 C40.66 1.94, 49.4 4.91, 52.89 9.26 C56.39 13.61, 56.75 21.99, 55.92 27.28 C55.1 32.57, 52.21 37.58, 47.95 41.02 C43.69 44.45, 36.14 47.37, 30.37 47.9 C24.6 48.43, 18.22 46.93, 13.35 44.2 C8.47 41.46, 2.68 36.43, 1.11 31.49 C-0.46 26.54, 1.49 19.25, 3.94 14.54 C6.39 9.83, 10.31 5.36, 15.82 3.22 C21.32 1.09, 33.8 1.98, 36.96 1.71 C40.12 1.45, 35.08 1.45, 34.79 1.63" stroke="none" stroke-width="0" fill="#b2f2bb"></path><path d="M20.07 0.78 C25.6 -1.11, 34.2 -0.77, 39.73 1.29 C45.26 3.36, 50.4 8.32, 53.24 13.17 C56.07 18.03, 57.81 25.3, 56.74 30.42 C55.68 35.54, 51.56 40.68, 46.85 43.9 C42.14 47.12, 34.64 49.86, 28.48 49.75 C22.32 49.64, 14.66 46.75, 9.89 43.23 C5.12 39.7, 0.67 34.05, -0.15 28.61 C-0.98 23.18, 1.36 15.17, 4.93 10.61 C8.49 6.05, 18.09 2.85, 21.21 1.26 C24.33 -0.34, 23.43 0.8, 23.65 1.03 M29.78 0.69 C35.79 0.47, 44.5 3.07, 49.25 6.5 C54.01 9.93, 58.13 15.99, 58.31 21.25 C58.48 26.5, 54.09 33.7, 50.31 38.02 C46.52 42.35, 41.07 45.57, 35.59 47.2 C30.12 48.84, 23.1 50.1, 17.45 47.83 C11.81 45.57, 4.69 38.51, 1.73 33.6 C-1.22 28.68, -1.87 23.05, -0.28 18.34 C1.32 13.62, 5.97 8.3, 11.28 5.31 C16.6 2.32, 28.29 1.07, 31.62 0.42 C34.96 -0.24, 31.61 0.9, 31.27 1.35" stroke="#1e1e1e" stroke-width="2" fill="none"></path></g><g transform="translate(479.34254770520704 204.1241973704941) rotate(0 13.559989929199219 12.5)"><text x="13.559989929199219" y="0" font-family="Virgil, Segoe UI Emoji" font-size="20px" fill="#1e1e1e" text-anchor="middle" style="white-space: pre;" direction="ltr" dominant-baseline="text-before-edge">N2</text></g><g stroke-linecap="round" transform="translate(399.2257995605469 429.7295787683536) rotate(0 28.498321533203125 28.498321533203125)"><path d="M30.79 -0.11 C36.64 -0.24, 43.27 3.76, 47.75 7.92 C52.23 12.07, 56.95 18.7, 57.66 24.81 C58.38 30.92, 55.52 39.37, 52.05 44.57 C48.57 49.77, 42.49 54.42, 36.8 56 C31.12 57.57, 23.59 56.44, 17.93 54.04 C12.27 51.64, 5.69 46.86, 2.85 41.61 C0.01 36.36, -0.46 28.49, 0.89 22.54 C2.23 16.58, 4.98 9.26, 10.93 5.88 C16.89 2.5, 31.08 2.58, 36.61 2.24 C42.13 1.9, 44.21 3.56, 44.08 3.82 M21.44 2.07 C27.33 0.07, 35.84 -0.76, 41.38 1.67 C46.92 4.1, 52.28 11.11, 54.67 16.65 C57.06 22.19, 57.49 29.1, 55.73 34.92 C53.98 40.74, 48.93 48.01, 44.13 51.57 C39.33 55.14, 32.75 56.56, 26.93 56.32 C21.11 56.07, 13.56 54.08, 9.22 50.11 C4.89 46.15, 1.51 38.69, 0.91 32.52 C0.32 26.35, 2.34 18.57, 5.67 13.11 C8.99 7.66, 18.28 1.8, 20.88 -0.21 C23.49 -2.21, 21.12 0.36, 21.3 1.09" stroke="none" stroke-width="0" fill="#a5d8ff"></path><path d="M18.59 2.1 C23.87 -0.31, 32.11 -0.93, 38.08 1.17 C44.05 3.27, 51.38 9.33, 54.41 14.72 C57.44 20.11, 57.5 27.34, 56.24 33.51 C54.97 39.68, 51.62 47.9, 46.84 51.76 C42.05 55.61, 33.64 57.07, 27.53 56.63 C21.42 56.2, 14.78 53.12, 10.17 49.14 C5.57 45.16, 0.95 38.77, -0.1 32.75 C-1.15 26.74, -0.02 18.45, 3.88 13.06 C7.78 7.67, 19.65 2.56, 23.3 0.4 C26.95 -1.75, 25.66 -0.35, 25.76 0.11 M35.15 -0.64 C40.73 0.39, 48.01 6.54, 51.65 11.88 C55.29 17.22, 57.44 25.18, 57 31.4 C56.55 37.62, 53.03 45.03, 48.99 49.21 C44.95 53.39, 38.93 55.96, 32.73 56.47 C26.53 56.98, 17.04 55.41, 11.8 52.27 C6.56 49.12, 3 43.22, 1.3 37.6 C-0.39 31.99, -0.79 24.16, 1.61 18.58 C4 12.99, 9.91 7.23, 15.67 4.07 C21.42 0.9, 33.12 0.08, 36.15 -0.41 C39.18 -0.89, 33.98 0.73, 33.84 1.16" stroke="#1e1e1e" stroke-width="2" fill="none"></path></g><g transform="translate(414.32277231458204 445.5765438929941) rotate(0 13.249992370605469 12.5)"><text x="13.249992370605469" y="0" font-family="Virgil, Segoe UI Emoji" font-size="20px" fill="#1e1e1e" text-anchor="middle" style="white-space: pre;" direction="ltr" dominant-baseline="text-before-edge">N3</text></g><g stroke-linecap="round" transform="translate(122.88894653320312 442.2815807214786) rotate(0 28.498321533203125 28.498321533203125)"><path d="M26.12 0.77 C31.73 -0.27, 38.8 1.53, 43.79 4.97 C48.78 8.42, 54.13 15.43, 56.06 21.45 C57.99 27.47, 57.82 35.62, 55.37 41.08 C52.93 46.54, 46.97 51.79, 41.39 54.23 C35.81 56.67, 27.95 57.32, 21.9 55.73 C15.86 54.15, 8.67 49.72, 5.14 44.73 C1.62 39.74, 0.35 31.7, 0.74 25.81 C1.13 19.91, 1.97 13.56, 7.48 9.36 C12.98 5.17, 28.03 1.62, 33.75 0.64 C39.47 -0.34, 41.99 3.05, 41.8 3.48 M31.62 -0.75 C37.12 -0.38, 44.44 4.17, 48.56 8.89 C52.68 13.62, 55.88 21.63, 56.32 27.59 C56.75 33.55, 54.89 39.9, 51.17 44.66 C47.46 49.41, 39.84 54.78, 34.01 56.12 C28.18 57.45, 21.51 55.54, 16.21 52.67 C10.91 49.8, 4.68 44.4, 2.21 38.9 C-0.27 33.39, -0.63 25.33, 1.37 19.65 C3.37 13.97, 8.9 7.94, 14.22 4.81 C19.54 1.69, 30.27 1.48, 33.28 0.91 C36.3 0.34, 32.78 1.26, 32.31 1.37" stroke="none" stroke-width="0" fill="#ffec99"></path><path d="M20.8 1.35 C26.22 -0.86, 35.01 -0.46, 40.65 1.86 C46.29 4.18, 52.15 9.67, 54.62 15.27 C57.09 20.87, 56.95 29.38, 55.48 35.46 C54.02 41.53, 50.78 48, 45.83 51.72 C40.87 55.44, 31.76 58.05, 25.75 57.76 C19.73 57.46, 14.06 54.36, 9.75 49.96 C5.43 45.57, 0.65 37.59, -0.14 31.38 C-0.93 25.17, 1.02 17.86, 5.02 12.71 C9.02 7.56, 20.16 2.66, 23.87 0.48 C27.59 -1.7, 27.23 -0.71, 27.31 -0.37 M36.98 0.19 C42.84 1.71, 50.38 8.03, 53.71 13.21 C57.05 18.38, 58.24 25.36, 56.98 31.23 C55.72 37.1, 50.71 44.23, 46.15 48.43 C41.6 52.62, 35.33 56.17, 29.64 56.4 C23.95 56.63, 16.93 53.74, 12.02 49.83 C7.11 45.93, 1.62 38.92, 0.19 32.97 C-1.23 27.03, 0.6 19.48, 3.47 14.16 C6.33 8.85, 11.72 3.21, 17.4 1.1 C23.08 -1.02, 34.41 1.4, 37.56 1.47 C40.7 1.54, 36.3 1.31, 36.27 1.53" stroke="#1e1e1e" stroke-width="2" fill="none"></path></g><g transform="translate(138.3959229493476 458.1285458461192) rotate(0 12.839988708496094 12.5)"><text x="12.839988708496094" y="0" font-family="Virgil, Segoe UI Emoji" font-size="20px" fill="#1e1e1e" text-anchor="middle" style="white-space: pre;" direction="ltr" dominant-baseline="text-before-edge">N4</text></g><g stroke-linecap="round" transform="translate(10 206.17051199589267) rotate(0 28.498321533203125 28.498321533203125)"><path d="M22.51 0.03 C27.97 -1.31, 36.19 0.54, 41.71 3.56 C47.23 6.59, 53.38 12.58, 55.64 18.19 C57.9 23.79, 57.4 31.26, 55.26 37.21 C53.12 43.15, 47.91 50.59, 42.78 53.87 C37.65 57.16, 30.48 58.05, 24.48 56.93 C18.47 55.81, 10.72 51.73, 6.76 47.16 C2.8 42.58, 0.66 35.64, 0.74 29.47 C0.83 23.29, 3.21 15.1, 7.26 10.09 C11.31 5.09, 21.47 1.04, 25.04 -0.58 C28.61 -2.2, 28.46 -0.18, 28.68 0.37 M16.34 4.09 C21.34 1.68, 29.94 1.23, 35.71 2.44 C41.47 3.65, 47.2 6.74, 50.93 11.35 C54.67 15.96, 58.76 23.94, 58.15 30.11 C57.54 36.27, 51.63 43.82, 47.27 48.32 C42.92 52.82, 38.07 56.64, 32.02 57.11 C25.96 57.57, 16.03 54.39, 10.95 51.11 C5.86 47.83, 3.04 43, 1.51 37.43 C-0.02 31.85, -0.78 23.31, 1.77 17.66 C4.32 12.01, 14.14 5.8, 16.83 3.52 C19.52 1.25, 17.73 3.7, 17.91 3.99" stroke="none" stroke-width="0" fill="#ffd8a8"></path><path d="M34.23 0.61 C40 1.44, 46.47 6.74, 50.22 11.7 C53.98 16.66, 56.97 24.37, 56.74 30.38 C56.52 36.38, 52.95 43.41, 48.89 47.72 C44.83 52.04, 38.41 55.36, 32.4 56.27 C26.39 57.18, 18.14 56.31, 12.81 53.2 C7.48 50.08, 2.07 43.66, 0.4 37.58 C-1.27 31.5, 0.34 22.32, 2.79 16.74 C5.23 11.16, 8.96 6.61, 15.07 4.09 C21.18 1.58, 34.7 1.58, 39.46 1.65 C44.21 1.73, 43.78 4.08, 43.58 4.54 M35.12 0.08 C41.3 1.33, 48.88 7.04, 52.46 11.81 C56.03 16.58, 57.11 22.68, 56.58 28.7 C56.05 34.72, 53.41 43.32, 49.27 47.93 C45.12 52.54, 37.63 55.42, 31.71 56.35 C25.79 57.28, 19.04 56.76, 13.76 53.5 C8.48 50.23, 1.9 42.91, 0.03 36.73 C-1.83 30.55, -0.12 21.77, 2.57 16.43 C5.27 11.08, 10.71 7.38, 16.19 4.68 C21.68 1.97, 32.51 0.92, 35.5 0.2 C38.48 -0.53, 34.42 -0.31, 34.1 0.33" stroke="#1e1e1e" stroke-width="2" fill="none"></path></g><g transform="translate(25.726977636847607 222.01747712053324) rotate(0 12.619987487792969 12.5)"><text x="12.619987487792969" y="0" font-family="Virgil, Segoe UI Emoji" font-size="20px" fill="#1e1e1e" text-anchor="middle" style="white-space: pre;" direction="ltr" dominant-baseline="text-before-edge">N5</text></g><g stroke-linecap="round" transform="translate(86.73788452148438 91.90839651737704) rotate(0 23.220489501953125 23.220489501953125)"><path d="M11.61 0 C18.38 -1.42, 26.71 -0.21, 34.83 0 C44.64 1.43, 47.27 3.18, 46.44 11.61 C45.08 15.74, 47.46 23.32, 46.44 34.83 C49.65 42.16, 43.55 47.29, 34.83 46.44 C28.39 46.36, 22.15 44.53, 11.61 46.44 C4.17 45.54, -2.88 42.6, 0 34.83 C-0.21 26.72, -0.85 17.05, 0 11.61 C1.58 7.22, 4.32 1.36, 11.61 0" stroke="none" stroke-width="0" fill="#ffffff"></path><path d="M11.61 0 C18.22 1.51, 26.21 1.73, 34.83 0 M11.61 0 C17.74 0.5, 22.69 1.14, 34.83 0 M34.83 0 C44.21 -1.96, 45.26 4.8, 46.44 11.61 M34.83 0 C40.28 0.47, 45.76 5.73, 46.44 11.61 M46.44 11.61 C45.65 18.64, 46.6 25.11, 46.44 34.83 M46.44 11.61 C46.25 18.09, 46.05 23.44, 46.44 34.83 M46.44 34.83 C44.9 41.95, 44.5 45.08, 34.83 46.44 M46.44 34.83 C44.19 42.54, 42.18 46.59, 34.83 46.44 M34.83 46.44 C28.94 46.71, 24.89 44.88, 11.61 46.44 M34.83 46.44 C25.53 47.2, 17.94 45.77, 11.61 46.44 M11.61 46.44 C2.08 45.26, 1.72 42.33, 0 34.83 M11.61 46.44 C3.92 45.82, 1.38 42.3, 0 34.83 M0 34.83 C0.21 28.2, -0.77 21.53, 0 11.61 M0 34.83 C-0.88 29.03, -0.17 22.01, 0 11.61 M0 11.61 C-0.44 2.27, 5.21 0.06, 11.61 0 M0 11.61 C-0.95 4.86, 2.38 1.46, 11.61 0" stroke="#1e1e1e" stroke-width="2" fill="none"></path></g><g transform="translate(102.37837982177734 102.62888601933017) rotate(0 7.579994201660156 12.5)"><text x="7.579994201660156" y="0" font-family="Virgil, Segoe UI Emoji" font-size="20px" fill="#1e1e1e" text-anchor="middle" style="white-space: pre;" direction="ltr" dominant-baseline="text-before-edge">k1</text></g><g stroke-linecap="round" transform="translate(386.4970397949219 66.55596426640048) rotate(0 23.220489501953125 23.220489501953125)"><path d="M11.61 0 C18.38 -1.9, 28.58 -2.86, 34.83 0 C39.36 -2.74, 44.25 5.35, 46.44 11.61 C43.1 16.89, 49.98 29.06, 46.44 34.83 C44.65 40.96, 41.67 45.73, 34.83 46.44 C31.96 48.5, 23.11 45.24, 11.61 46.44 C5.37 42.86, 1.4 42.51, 0 34.83 C2.4 27.61, 2.96 23.21, 0 11.61 C0 0.81, 5.25 1.73, 11.61 0" stroke="none" stroke-width="0" fill="#ffffff"></path><path d="M11.61 0 C19.02 -0.51, 25.97 -0.65, 34.83 0 M11.61 0 C18 -0.04, 22.87 0.31, 34.83 0 M34.83 0 C43.2 0.87, 44.59 4.57, 46.44 11.61 M34.83 0 C42.77 1.73, 45.47 4.06, 46.44 11.61 M46.44 11.61 C46.5 18.43, 47.8 24.31, 46.44 34.83 M46.44 11.61 C46.83 18.95, 46.52 24.8, 46.44 34.83 M46.44 34.83 C45.98 42.94, 43.1 45.47, 34.83 46.44 M46.44 34.83 C45.74 44.18, 44.01 46.41, 34.83 46.44 M34.83 46.44 C29.26 44.89, 22.77 47.77, 11.61 46.44 M34.83 46.44 C27.65 46.35, 20.83 47.47, 11.61 46.44 M11.61 46.44 C5.33 48.23, 1.89 40.91, 0 34.83 M11.61 46.44 C5.17 47.05, -0.65 44.83, 0 34.83 M0 34.83 C-0.17 25.99, -1.62 20.07, 0 11.61 M0 34.83 C-0.33 28.11, -0.69 21.32, 0 11.61 M0 11.61 C1.77 2.28, 2.01 1.64, 11.61 0 M0 11.61 C1.5 4.05, 5.19 -2.12, 11.61 0" stroke="#1e1e1e" stroke-width="2" fill="none"></path></g><g transform="translate(397.7275390625 77.2764537683536) rotate(0 11.989990234375 12.5)"><text x="11.989990234375" y="0" font-family="Virgil, Segoe UI Emoji" font-size="20px" fill="#1e1e1e" text-anchor="middle" style="white-space: pre;" direction="ltr" dominant-baseline="text-before-edge">k2</text></g><g stroke-linecap="round" transform="translate(260.9515075683594 483.8997753015567) rotate(0 23.220489501953125 23.220489501953125)"><path d="M11.61 0 C15.88 -0.4, 22.72 0.88, 34.83 0 C43.77 -0.52, 47.12 2.23, 46.44 11.61 C49.84 17.41, 43.48 25.38, 46.44 34.83 C46.64 43.11, 42.58 47.68, 34.83 46.44 C30.1 46.92, 20.48 46.16, 11.61 46.44 C6.4 45.81, 0.26 43.87, 0 34.83 C-1.44 30.44, -0.61 16.32, 0 11.61 C-2.99 3.67, 6.83 -0.6, 11.61 0" stroke="none" stroke-width="0" fill="#ffffff"></path><path d="M11.61 0 C19.68 0.55, 26.78 -1.59, 34.83 0 M11.61 0 C18.47 -0.25, 26.68 -0.16, 34.83 0 M34.83 0 C42.66 -1.18, 47.8 3.41, 46.44 11.61 M34.83 0 C40.79 1.06, 44.79 4.19, 46.44 11.61 M46.44 11.61 C47.68 18.71, 46.55 22.13, 46.44 34.83 M46.44 11.61 C46.75 18.37, 46.58 27.05, 46.44 34.83 M46.44 34.83 C44.95 41.59, 43.91 46.82, 34.83 46.44 M46.44 34.83 C45.08 42.65, 40.58 45.33, 34.83 46.44 M34.83 46.44 C24.97 47.48, 15.12 47.05, 11.61 46.44 M34.83 46.44 C29.88 45.88, 25.53 45.43, 11.61 46.44 M11.61 46.44 C5.11 48.09, 1.38 42.3, 0 34.83 M11.61 46.44 C3.53 44.54, 1.33 43.26, 0 34.83 M0 34.83 C-1.69 26.01, 1.76 17.01, 0 11.61 M0 34.83 C-0.21 26.46, 0.72 17.02, 0 11.61 M0 11.61 C-0.2 2.02, 3.1 0.53, 11.61 0 M0 11.61 C1.85 5.84, 2.69 1.65, 11.61 0" stroke="#1e1e1e" stroke-width="2" fill="none"></path></g><g transform="translate(272.49200439453125 494.6202648035098) rotate(0 11.67999267578125 12.5)"><text x="11.67999267578125" y="0" font-family="Virgil, Segoe UI Emoji" font-size="20px" fill="#1e1e1e" text-anchor="middle" style="white-space: pre;" direction="ltr" dominant-baseline="text-before-edge">k3</text></g><g stroke-linecap="round"><g transform="translate(285.62677001953125 533.0194957605411) rotate(0 -69.74324773210532 -3.359583828480595)"><path d="M-1.07 -0.49 C-13.21 3.29, -49.51 28.37, -72.53 23.63 C-95.56 18.89, -128.24 -20.19, -139.2 -28.92 M0.58 -1.79 C-11.77 1.54, -50.13 26.61, -73.53 21.78 C-96.93 16.95, -128.56 -22.03, -139.82 -30.78" stroke="#1e1e1e" stroke-width="2" fill="none"></path></g><g transform="translate(285.62677001953125 533.0194957605411) rotate(0 -69.74324773210532 -3.359583828480595)"><path d="M-112.39 -18.63 C-122.31 -23.01, -129.63 -26.38, -139.82 -30.78 M-112.39 -18.63 C-122.94 -22.1, -132.6 -28.48, -139.82 -30.78" stroke="#1e1e1e" stroke-width="2" fill="none"></path></g><g transform="translate(285.62677001953125 533.0194957605411) rotate(0 -69.74324773210532 -3.359583828480595)"><path d="M-126.62 -3.84 C-131.99 -12.95, -134.63 -21.18, -139.82 -30.78 M-126.62 -3.84 C-131.97 -13, -136.28 -24.93, -139.82 -30.78" stroke="#1e1e1e" stroke-width="2" fill="none"></path></g></g><mask></mask><g stroke-linecap="round"><g transform="translate(435.5054931640625 82.44473546681377) rotate(0 41.61444091796875 59.61899178016445)"><path d="M0.46 0.04 C14.08 9.25, 70.19 36.15, 82.73 56.15 C95.27 76.15, 76.64 109.65, 75.68 120.04 M-0.76 -0.99 C12.58 8.28, 68.93 37.38, 81.52 57.24 C94.1 77.09, 75.38 107.8, 74.74 118.12" stroke="#1e1e1e" stroke-width="2" fill="none"></path></g><g transform="translate(435.5054931640625 82.44473546681377) rotate(0 41.61444091796875 59.61899178016445)"><path d="M72.89 88.18 C73.88 98.76, 73.08 110.46, 74.74 118.12 M72.89 88.18 C73.95 99.91, 73.83 109.79, 74.74 118.12" stroke="#1e1e1e" stroke-width="2" fill="none"></path></g><g transform="translate(435.5054931640625 82.44473546681377) rotate(0 41.61444091796875 59.61899178016445)"><path d="M92.57 93.99 C86.01 102.43, 77.7 111.92, 74.74 118.12 M92.57 93.99 C86.36 103.47, 79.02 111.22, 74.74 118.12" stroke="#1e1e1e" stroke-width="2" fill="none"></path></g></g><mask></mask><g stroke-linecap="round"><g transform="translate(112.29336547851562 89.13065603886142) rotate(0 58.220489501953125 -37.335052490234375)"><path d="M0.8 0.59 C6.27 -11.81, 14.33 -63.68, 33.57 -75.19 C52.8 -86.69, 102.34 -69.47, 116.2 -68.43 M-0.24 -0.15 C5.56 -12.32, 16.68 -62.21, 35.93 -73.92 C55.19 -85.63, 101.78 -71.44, 115.3 -70.41" stroke="#1e1e1e" stroke-width="2" fill="none"></path></g><g transform="translate(112.29336547851562 89.13065603886142) rotate(0 58.220489501953125 -37.335052490234375)"><path d="M85.76 -65.19 C97.46 -68.37, 106.32 -69.58, 115.3 -70.41 M85.76 -65.19 C96.46 -66.72, 106.19 -69.46, 115.3 -70.41" stroke="#1e1e1e" stroke-width="2" fill="none"></path></g><g transform="translate(112.29336547851562 89.13065603886142) rotate(0 58.220489501953125 -37.335052490234375)"><path d="M89.32 -85.4 C99.6 -81.24, 107.17 -75.13, 115.3 -70.41 M89.32 -85.4 C98.79 -79.7, 107.25 -75.23, 115.3 -70.41" stroke="#1e1e1e" stroke-width="2" fill="none"></path></g></g><mask></mask><g stroke-linecap="round" transform="translate(430.3856964111328 126.38326478199386) rotate(0 28.498321533203125 24.5)"><path d="M31.32 -0.67 C37 -0.26, 43.76 4.09, 48.07 8.01 C52.37 11.92, 56.62 17.67, 57.17 22.83 C57.72 28, 55.05 34.77, 51.38 38.99 C47.7 43.22, 40.84 46.77, 35.11 48.19 C29.38 49.61, 22.5 49.74, 17 47.51 C11.5 45.28, 4.72 39.78, 2.09 34.81 C-0.53 29.84, -0.37 22.79, 1.26 17.69 C2.9 12.58, 6.41 7, 11.91 4.19 C17.41 1.39, 30.13 1.31, 34.28 0.85 C38.44 0.38, 36.89 0.91, 36.85 1.4 M26.82 0.09 C32.44 -0.43, 40.09 0.85, 44.79 4.06 C49.49 7.28, 53.43 13.9, 55.03 19.38 C56.63 24.87, 56.93 32.16, 54.41 36.97 C51.89 41.78, 45.82 46.37, 39.93 48.25 C34.05 50.12, 24.81 50.01, 19.13 48.25 C13.44 46.48, 9.03 41.95, 5.83 37.66 C2.63 33.37, -0.75 27.89, -0.08 22.5 C0.6 17.11, 5.39 9.2, 9.9 5.33 C14.4 1.46, 23.86 -0.1, 26.94 -0.72 C30.02 -1.33, 28.47 1.3, 28.38 1.65" stroke="none" stroke-width="0" fill="#d0bfff"></path><path d="M30.15 0.15 C35.96 -0.13, 42.95 1.81, 47.33 5.29 C51.7 8.77, 55.58 15.78, 56.38 21.03 C57.18 26.28, 55.22 32.39, 52.11 36.8 C49 41.21, 43.47 45.56, 37.7 47.47 C31.94 49.37, 23.23 50.1, 17.53 48.21 C11.84 46.33, 6.35 40.93, 3.53 36.15 C0.7 31.37, -0.68 24.78, 0.58 19.52 C1.83 14.26, 5.94 7.95, 11.04 4.59 C16.15 1.23, 27.58 0.13, 31.19 -0.63 C34.81 -1.39, 32.71 -0.52, 32.75 0.04 M39.7 2.9 C45.25 4.64, 50.13 8.4, 53.14 12.88 C56.15 17.35, 59.04 24.4, 57.78 29.74 C56.52 35.09, 50.46 41.92, 45.58 44.93 C40.7 47.93, 34.74 48.07, 28.51 47.78 C22.27 47.49, 12.8 46.45, 8.19 43.17 C3.57 39.9, 1.32 33.51, 0.81 28.14 C0.3 22.77, 1.85 15.41, 5.14 10.98 C8.43 6.55, 14.59 3.18, 20.55 1.54 C26.5 -0.09, 37.76 1.24, 40.89 1.17 C44.02 1.1, 39.74 0.48, 39.33 1.12" stroke="#1e1e1e" stroke-width="1" fill="none"></path></g><g transform="translate(445.89267282727735 138.55914864292345) rotate(0 12.839988708496094 12.5)"><text x="12.839988708496094" y="0" font-family="Virgil, Segoe UI Emoji" font-size="20px" fill="#1e1e1e" text-anchor="middle" style="white-space: pre;" direction="ltr" dominant-baseline="text-before-edge">N6</text></g><g transform="translate(523.2241058349609 123.00130677418136) rotate(0 -10.6683349609375 10.998260498046875)" stroke="none"><path fill="#e03131" d="M 1.92,1.84 Q 1.92,1.84 1.24,2.60 0.55,3.35 -0.66,4.45 -1.88,5.56 -3.13,6.95 -4.37,8.34 -5.07,9.28 -5.77,10.22 -6.96,11.31 -8.15,12.40 -9.38,13.62 -10.61,14.83 -11.09,15.90 -11.57,16.97 -12.47,17.96 -13.38,18.94 -14.16,20.51 -14.95,22.08 -15.91,22.81 -16.87,23.55 -17.64,23.81 -18.40,24.08 -18.81,24.49 -19.22,24.90 -19.74,25.16 -20.26,25.43 -20.83,25.51 -21.41,25.59 -21.98,25.48 -22.55,25.38 -23.06,25.09 -23.57,24.81 -23.96,24.38 -24.35,23.95 -24.59,23.41 -24.82,22.88 -24.87,22.30 -24.92,21.72 -24.78,21.15 -24.64,20.59 -24.33,20.09 -24.02,19.60 -23.57,19.24 -23.12,18.87 -22.57,18.66 -22.03,18.46 -21.45,18.44 -20.86,18.42 -20.31,18.59 -19.75,18.76 -19.27,19.10 -18.80,19.43 -18.46,19.90 -18.12,20.38 -17.94,20.93 -17.77,21.49 -17.78,22.07 -17.79,22.65 -17.99,23.20 -18.19,23.75 -18.55,24.20 -18.91,24.66 -19.40,24.97 -19.89,25.29 -20.46,25.43 -21.02,25.58 -21.60,25.53 -22.18,25.49 -22.72,25.26 -23.25,25.03 -23.69,24.65 -24.13,24.26 -24.41,23.76 -24.70,23.25 -24.82,22.68 -24.93,22.11 -24.85,21.53 -24.78,20.95 -24.52,20.43 -24.27,19.91 -24.27,19.91 -24.27,19.91 -22.73,19.25 -21.20,18.59 -20.47,17.53 -19.75,16.48 -19.11,15.34 -18.47,14.20 -17.54,13.26 -16.62,12.31 -15.22,11.20 -13.82,10.08 -12.81,8.67 -11.81,7.27 -10.94,6.46 -10.07,5.65 -8.72,4.42 -7.36,3.19 -6.54,2.26 -5.72,1.33 -4.55,0.45 -3.37,-0.42 -2.64,-1.13 -1.92,-1.84 -1.67,-2.05 -1.42,-2.25 -1.13,-2.39 -0.84,-2.53 -0.53,-2.59 -0.21,-2.66 0.10,-2.64 0.42,-2.63 0.73,-2.54 1.04,-2.45 1.32,-2.29 1.60,-2.13 1.83,-1.91 2.06,-1.69 2.24,-1.41 2.41,-1.14 2.51,-0.84 2.61,-0.53 2.64,-0.21 2.66,0.10 2.61,0.42 2.56,0.74 2.43,1.03 2.31,1.33 2.12,1.59 1.92,1.84 1.92,1.84 L 1.92,1.84 Z"></path></g><g transform="translate(501.0018768310547 116.89017701343917) rotate(0 9.053802490234375 14.496536254882812)" stroke="none"><path fill="#e03131" d="M 1.30,-2.31 Q 1.30,-2.31 2.05,-1.93 2.81,-1.55 4.14,-0.83 5.47,-0.11 6.47,0.95 7.47,2.02 8.31,3.04 9.15,4.05 9.86,5.51 10.56,6.98 11.15,8.37 11.75,9.76 12.34,11.17 12.94,12.58 13.54,14.23 14.14,15.89 14.87,16.72 15.61,17.55 16.17,18.51 16.74,19.47 17.18,20.75 17.62,22.03 18.52,22.64 19.42,23.24 19.98,24.67 20.55,26.09 21.03,26.99 21.51,27.88 21.63,28.46 21.75,29.04 21.68,29.63 21.62,30.21 21.36,30.75 21.11,31.28 20.70,31.71 20.29,32.14 19.77,32.41 19.25,32.68 18.66,32.78 18.08,32.87 17.50,32.77 16.91,32.67 16.39,32.39 15.87,32.11 15.47,31.68 15.06,31.24 14.82,30.71 14.58,30.17 14.52,29.58 14.46,28.99 14.59,28.41 14.72,27.84 15.03,27.33 15.33,26.83 15.79,26.45 16.24,26.07 16.79,25.86 17.34,25.64 17.93,25.61 18.52,25.58 19.09,25.75 19.66,25.91 20.15,26.24 20.63,26.58 20.99,27.05 21.34,27.52 21.53,28.09 21.71,28.65 21.71,29.24 21.70,29.83 21.51,30.39 21.32,30.95 20.96,31.42 20.60,31.88 20.11,32.21 19.61,32.54 19.04,32.69 18.47,32.85 17.88,32.81 17.29,32.78 16.75,32.55 16.20,32.33 15.75,31.95 15.30,31.56 15.00,31.05 14.70,30.54 14.70,30.54 14.70,30.54 13.92,28.81 13.14,27.09 12.06,25.31 10.98,23.53 10.37,22.13 9.76,20.73 8.95,19.64 8.14,18.54 7.56,16.96 6.97,15.39 6.41,13.87 5.86,12.35 5.33,11.00 4.81,9.65 4.24,8.26 3.68,6.87 2.87,5.65 2.05,4.43 1.09,3.82 0.12,3.20 -0.59,2.76 -1.30,2.31 -1.56,2.12 -1.82,1.93 -2.02,1.68 -2.23,1.44 -2.37,1.15 -2.51,0.86 -2.58,0.55 -2.64,0.23 -2.63,-0.08 -2.62,-0.40 -2.54,-0.71 -2.45,-1.01 -2.29,-1.29 -2.14,-1.57 -1.92,-1.81 -1.70,-2.04 -1.43,-2.21 -1.16,-2.39 -0.85,-2.49 -0.55,-2.60 -0.23,-2.62 0.08,-2.65 0.39,-2.60 0.71,-2.56 1.01,-2.43 1.30,-2.31 1.30,-2.31 L 1.30,-2.31 Z"></path></g><g stroke-linecap="round"><g transform="translate(389.89073181152344 110.77907777027511) rotate(0 19.10595703125 30.329864501953125)"><path d="M0.35 -0.03 C-0.52 8.69, -11.42 42.86, -4.27 52.91 C2.88 62.96, 35.36 58.85, 43.26 60.26 M-0.92 -1.09 C-2 7.77, -12.27 43.94, -5 54.35 C2.27 64.76, 34.61 60.56, 42.69 61.37" stroke="#1e1e1e" stroke-width="1" fill="none"></path></g><g transform="translate(389.89073181152344 110.77907777027511) rotate(0 19.10595703125 30.329864501953125)"><path d="M20.13 69.78 C28.63 67.18, 36.93 63.94, 42.69 61.37 M20.13 69.78 C25.99 68.32, 32.51 65.02, 42.69 61.37" stroke="#1e1e1e" stroke-width="1" fill="none"></path></g><g transform="translate(389.89073181152344 110.77907777027511) rotate(0 19.10595703125 30.329864501953125)"><path d="M20.01 53.31 C28.62 56.98, 36.98 60.01, 42.69 61.37 M20.01 53.31 C25.93 56.25, 32.48 57.34, 42.69 61.37" stroke="#1e1e1e" stroke-width="1" fill="none"></path></g></g><mask></mask></svg>