<svg version="1.1" xmlns="http://www.w3.org/2000/svg" viewBox="0 0 535.545654296875 493.1258168550121" width="535.545654296875" height="493.1258168550121">
  <!-- svg-source:excalidraw -->
  
  <defs>
    <style class="style-fonts">
      @font-face {
        font-family: "Virgil";
        src: url("https://file%2B.vscode-resource.vscode-cdn.net/c%3A/Users/kan/.vscode/extensions/pomdtr.excalidraw-editor-3.7.4/public//dist/excalidraw-assets/Virgil.woff2");
      }
      @font-face {
        font-family: "Cascadia";
        src: url("https://file%2B.vscode-resource.vscode-cdn.net/c%3A/Users/kan/.vscode/extensions/pomdtr.excalidraw-editor-3.7.4/public//dist/excalidraw-assets/Cascadia.woff2");
      }
      @font-face {
        font-family: "Assistant";
        src: url("https://file%2B.vscode-resource.vscode-cdn.net/c%3A/Users/kan/.vscode/extensions/pomdtr.excalidraw-editor-3.7.4/public//dist/excalidraw-assets/Assistant-Regular.woff2");
      }
    </style>
    
  </defs>
  <rect x="0" y="0" width="535.545654296875" height="493.1258168550121" fill="#ffffff"></rect><g stroke-linecap="round" transform="translate(35.01911926269531 19.68831685501209) rotate(0 231.71875 231.71875)"><path d="M129.41 24.85 C143.88 13.47, 164.18 9.29, 182.85 5.26 C201.51 1.22, 222.08 -0.18, 241.4 0.64 C260.72 1.45, 280.39 4.67, 298.76 10.13 C317.12 15.6, 335.21 23.53, 351.61 33.4 C368 43.28, 383.66 55.76, 397.12 69.38 C410.59 83.01, 422.94 98.58, 432.4 115.14 C441.87 131.71, 448.84 150.25, 453.92 168.78 C459 187.32, 462.44 207.01, 462.89 226.35 C463.34 245.69, 460.8 266.03, 456.62 284.81 C452.44 303.6, 446.62 322.05, 437.81 339.04 C429 356.04, 416.8 372.35, 403.74 386.78 C390.69 401.2, 375.61 415.08, 359.48 425.59 C343.36 436.1, 325.2 443.51, 306.98 449.83 C288.76 456.16, 268.99 461.97, 250.15 463.54 C231.31 465.11, 212.75 462.7, 193.93 459.26 C175.12 455.82, 154.91 450.7, 137.29 442.89 C119.68 435.07, 103.31 424.11, 88.25 412.36 C73.19 400.61, 58.54 387.61, 46.92 372.39 C35.31 357.17, 25.94 338.71, 18.57 321.04 C11.2 303.37, 5.42 285.39, 2.68 266.37 C-0.06 247.36, 0.18 226.28, 2.11 206.94 C4.04 187.61, 7.56 168.22, 14.27 150.36 C20.99 132.51, 31.3 115.45, 42.38 99.82 C53.46 84.19, 65.23 69.71, 80.76 56.58 C96.28 43.46, 124.82 26.92, 135.52 21.09 C146.23 15.25, 143.22 18.07, 145 21.59 M267.42 3.54 C286.28 2.68, 306.08 10.97, 323.92 18.39 C341.76 25.81, 359.55 36.04, 374.48 48.07 C389.4 60.11, 401.95 75.12, 413.48 90.6 C425 106.07, 436 123.36, 443.61 140.93 C451.23 158.51, 456.07 177.21, 459.18 196.07 C462.29 214.92, 463.97 235.04, 462.29 254.05 C460.61 273.06, 455.67 292.16, 449.1 310.11 C442.54 328.07, 433.39 345.97, 422.91 361.76 C412.44 377.56, 400.75 392.04, 386.26 404.88 C371.76 417.72, 353.31 430.22, 335.93 438.8 C318.54 447.38, 300.51 452.18, 281.94 456.36 C263.36 460.55, 243.66 464.43, 224.47 463.91 C205.27 463.39, 185.34 458.81, 166.77 453.24 C148.2 447.67, 129.28 439.87, 113.06 430.52 C96.83 421.16, 82.81 410.29, 69.42 397.09 C56.03 383.89, 42.7 368.12, 32.73 351.3 C22.75 334.48, 15.15 315.03, 9.57 296.18 C3.98 277.34, -0.3 257.09, -0.76 238.2 C-1.22 219.32, 2.32 201.34, 6.79 182.89 C11.27 164.43, 17.4 145.03, 26.1 127.48 C34.8 109.93, 46.44 92.2, 59.01 77.6 C71.59 63, 85.7 50.37, 101.57 39.89 C117.44 29.41, 136.46 21.21, 154.24 14.71 C172.01 8.2, 189.3 2.74, 208.22 0.84 C227.14 -1.06, 257.79 2.01, 267.76 3.29 C277.73 4.58, 268.56 5.01, 268.03 8.53" stroke="none" stroke-width="0" fill="#ffec99"></path><path d="M300.04 11 C318.55 12.8, 336.99 24.71, 353.51 34.83 C370.03 44.95, 385.87 57.88, 399.18 71.72 C412.49 85.57, 424.06 101.29, 433.38 117.9 C442.69 134.5, 450.09 152.86, 455.05 171.34 C460.02 189.82, 463.01 209.56, 463.17 228.76 C463.33 247.95, 460.46 267.7, 456.03 286.52 C451.59 305.35, 445.31 324.62, 436.56 341.68 C427.81 358.74, 416.5 374.93, 403.54 388.89 C390.57 402.84, 374.99 414.88, 358.76 425.4 C342.53 435.92, 324.47 445.92, 306.16 452.01 C287.85 458.1, 268.19 460.66, 248.88 461.94 C229.58 463.21, 209.28 463.03, 190.33 459.68 C171.37 456.32, 152.49 449.8, 135.16 441.81 C117.84 433.82, 101.19 423.65, 86.38 411.73 C71.56 399.82, 57.74 385.51, 46.27 370.33 C34.8 355.14, 24.86 338.28, 17.55 320.6 C10.24 302.93, 5.05 283.33, 2.38 264.29 C-0.28 245.26, -0.65 225.49, 1.56 206.38 C3.78 187.28, 8.88 167.85, 15.68 149.65 C22.49 131.45, 31.39 112.97, 42.39 97.18 C53.39 81.39, 66.87 67.08, 81.68 54.9 C96.5 42.72, 113.89 32.58, 131.28 24.12 C148.67 15.66, 167.35 8.01, 186.02 4.12 C204.69 0.23, 222.94 -0.83, 243.29 0.77 C263.64 2.37, 296.48 10.49, 308.13 13.72 C319.79 16.94, 314.34 16.61, 313.23 20.1 M267.08 2.99 C285.96 2.21, 307.42 11.18, 325.34 19.01 C343.27 26.84, 359.46 38.03, 374.61 49.95 C389.76 61.88, 404.78 75.55, 416.25 90.58 C427.72 105.61, 436.08 122.68, 443.45 140.14 C450.82 157.6, 457.23 176.62, 460.48 195.36 C463.74 214.09, 464.54 233.49, 462.97 252.56 C461.4 271.62, 457.46 291.39, 451.04 309.74 C444.63 328.1, 435.7 346.47, 424.5 362.68 C413.31 378.89, 398.39 394.57, 383.88 407.02 C369.37 419.46, 354.55 428.81, 337.44 437.36 C320.33 445.92, 300.14 454.14, 281.2 458.33 C262.27 462.52, 242.94 463.33, 223.83 462.53 C204.72 461.73, 185.01 459, 166.55 453.54 C148.09 448.08, 129.59 439.48, 113.07 429.79 C96.56 420.11, 80.96 408.71, 67.46 395.41 C53.96 382.12, 41.9 366.51, 32.06 350.01 C22.23 333.51, 13.56 314.85, 8.45 296.39 C3.34 277.94, 1.98 258.52, 1.4 239.29 C0.81 220.06, 1.09 199.88, 4.93 181 C8.76 162.12, 15.78 142.9, 24.39 126.03 C33.01 109.16, 43.5 93.92, 56.63 79.76 C69.75 65.61, 87.01 52.2, 103.14 41.1 C119.26 30, 135.56 19.68, 153.38 13.16 C171.19 6.65, 190.7 3.63, 210.02 2 C229.35 0.37, 259.5 2.39, 269.32 3.37 C279.14 4.34, 269.59 4.05, 268.93 7.87" stroke="#1e1e1e" stroke-width="2" fill="none"></path></g><g stroke-linecap="round" transform="translate(62.453155517578125 46.50347137451172) rotate(0 205.9982681274414 205.9982681274414)"><path d="M131.82 13.73 C147.05 4.21, 167.36 2.5, 185.71 0.82 C204.07 -0.86, 223.55 0.51, 241.95 3.67 C260.34 6.84, 279.27 11.71, 296.08 19.83 C312.89 27.95, 329.02 40.02, 342.79 52.4 C356.56 64.79, 368.81 78.78, 378.7 94.14 C388.59 109.5, 396.61 126.89, 402.15 144.56 C407.7 162.23, 411.48 181.65, 411.98 200.18 C412.47 218.7, 409.57 237.68, 405.11 255.72 C400.66 273.76, 394.38 292.16, 385.23 308.42 C376.07 324.68, 363.3 340.46, 350.17 353.29 C337.05 366.11, 322.73 376.43, 306.45 385.37 C290.17 394.31, 270.74 402.55, 252.51 406.94 C234.27 411.33, 215.42 412.55, 197.05 411.69 C178.68 410.83, 159.78 407.42, 142.29 401.78 C124.8 396.14, 107.61 388.15, 92.14 377.84 C76.67 367.54, 61.43 354.02, 49.46 339.92 C37.49 325.82, 28.02 310.06, 20.33 293.26 C12.64 276.46, 6.39 257.26, 3.31 239.12 C0.23 220.98, -0.22 202.86, 1.83 184.43 C3.88 166, 8.72 145.8, 15.62 128.52 C22.52 111.24, 32.23 95.3, 43.24 80.74 C54.25 66.18, 66.07 52.6, 81.68 41.16 C97.28 29.71, 126.37 16.54, 136.88 12.06 C147.39 7.58, 143.5 11.01, 144.71 14.28 M302.25 24.29 C319.32 29.45, 333.88 43.04, 347.42 55.31 C360.96 67.58, 373.84 82.24, 383.49 97.9 C393.14 113.57, 400.41 131.31, 405.34 149.3 C410.26 167.29, 413.19 187.21, 413.06 205.84 C412.93 224.47, 409.82 242.99, 404.57 261.05 C399.33 279.12, 391.51 298.32, 381.6 314.26 C371.68 330.19, 358.51 344.21, 345.07 356.65 C331.63 369.09, 317.39 380.48, 300.98 388.91 C284.57 397.34, 264.9 403.41, 246.61 407.22 C228.33 411.03, 209.64 412.7, 191.27 411.75 C172.9 410.8, 153.74 407.86, 136.42 401.54 C119.1 395.22, 102.53 384.62, 87.33 373.83 C72.14 363.04, 57.14 351.16, 45.27 336.81 C33.39 322.46, 23.21 304.78, 16.1 287.74 C8.99 270.7, 5.09 253.03, 2.6 234.56 C0.12 216.09, -1.43 195.23, 1.19 176.92 C3.82 158.6, 10.79 141.51, 18.34 124.67 C25.89 107.83, 35.11 90.27, 46.49 75.86 C57.86 61.46, 71.64 48.67, 86.61 38.24 C101.58 27.81, 118.83 19.69, 136.32 13.27 C153.82 6.86, 173.15 1.14, 191.56 -0.25 C209.97 -1.64, 228.75 0.84, 246.79 4.92 C264.83 9.01, 291.23 20.58, 299.8 24.26 C308.37 27.94, 299.49 24.36, 298.21 27" stroke="none" stroke-width="0" fill="#ffffff"></path><path d="M204.92 -0.54 C222.44 -4.04, 242.53 2.76, 260.47 7.6 C278.41 12.44, 296.75 19.13, 312.56 28.5 C328.37 37.87, 342.65 50.13, 355.36 63.82 C368.07 77.51, 380.14 94.34, 388.82 110.66 C397.49 126.99, 403.57 143.76, 407.4 161.77 C411.22 179.78, 412.76 199.99, 411.8 218.73 C410.83 237.48, 407.76 256.8, 401.59 274.24 C395.42 291.69, 385.67 308.44, 374.78 323.38 C363.9 338.32, 350.53 352.22, 336.27 363.88 C322.01 375.55, 306.03 385.76, 289.23 393.37 C272.43 400.98, 253.9 406.89, 235.47 409.57 C217.05 412.24, 197.15 411.82, 178.67 409.42 C160.19 407.02, 141.65 402.19, 124.61 395.16 C107.57 388.13, 90.73 378.73, 76.43 367.26 C62.14 355.78, 49.34 341.55, 38.83 326.33 C28.31 311.1, 19.7 293.26, 13.34 275.92 C6.97 258.59, 2.2 240.78, 0.65 222.31 C-0.9 203.84, 0.51 183.33, 4.01 165.12 C7.51 146.91, 13.26 129.48, 21.66 113.04 C30.05 96.61, 41.64 80.13, 54.4 66.5 C67.16 52.88, 82.63 41.16, 98.24 31.3 C113.85 21.44, 129.15 12.48, 148.07 7.35 C166.99 2.22, 200.07 1.01, 211.74 0.52 C223.42 0.03, 218.26 1.15, 218.13 4.39 M148.12 8.26 C164.41 0.32, 185.27 0.71, 203.53 0.37 C221.79 0.02, 239.75 1.64, 257.7 6.2 C275.65 10.75, 295.2 18.26, 311.23 27.68 C327.26 37.1, 341.2 49.14, 353.89 62.71 C366.57 76.27, 378.43 92.7, 387.35 109.07 C396.28 125.44, 403.38 143.12, 407.44 160.91 C411.5 178.71, 412.52 197.41, 411.69 215.83 C410.86 234.24, 408.35 253.48, 402.47 271.4 C396.59 289.31, 386.94 307.72, 376.43 323.32 C365.92 338.93, 353.85 353.12, 339.4 365.02 C324.95 376.91, 306.96 387.38, 289.72 394.67 C272.48 401.97, 254.23 406.39, 235.97 408.8 C217.71 411.22, 198.42 411.28, 180.17 409.19 C161.91 407.1, 143.27 403.31, 126.43 396.26 C109.59 389.22, 93.61 378.18, 79.12 366.93 C64.62 355.67, 50.52 343.3, 39.48 328.75 C28.43 314.21, 19.53 296.95, 12.85 279.64 C6.17 262.33, 0.8 243.37, -0.62 224.87 C-2.03 206.37, 0.91 187.28, 4.36 168.65 C7.81 150.03, 11.76 129.92, 20.09 113.11 C28.41 96.3, 41.44 81.52, 54.33 67.76 C67.22 54, 81.83 40.29, 97.4 30.55 C112.98 20.81, 139.18 12.34, 147.78 9.35 C156.39 6.35, 148.39 9.65, 149.02 12.58" stroke="#1e1e1e" stroke-width="2" fill="none"></path></g><g stroke-linecap="round" transform="translate(251.27947998046875 10) rotate(0 42.387237548828125 21.83159637451172)"><path d="M10.92 0 C31.01 -1.58, 47.19 -2.29, 73.86 0 C78.5 3.11, 84.76 5.8, 84.77 10.92 C83.34 13.21, 85.15 19.66, 84.77 32.75 C86.16 43.15, 78.17 44.19, 73.86 43.66 C53.18 44.34, 27.35 41.2, 10.92 43.66 C6.27 44.8, -3.05 39.14, 0 32.75 C-0.28 25.62, -3.33 14.63, 0 10.92 C0.96 0.04, 6.93 1.19, 10.92 0" stroke="none" stroke-width="0" fill="#ffc9c9"></path><path d="M10.92 0 C36.74 -0.2, 59.43 -1.21, 73.86 0 M10.92 0 C33.91 -0.04, 58.56 0.18, 73.86 0 M73.86 0 C79.21 1.47, 84.71 4.06, 84.77 10.92 M73.86 0 C81.53 -2.25, 83.6 2.86, 84.77 10.92 M84.77 10.92 C84.43 18.76, 85.21 26.02, 84.77 32.75 M84.77 10.92 C83.92 17.61, 84.06 25.12, 84.77 32.75 M84.77 32.75 C83.7 41.06, 82.67 45.5, 73.86 43.66 M84.77 32.75 C83.06 37.84, 81.62 42.5, 73.86 43.66 M73.86 43.66 C61.46 42.17, 47.91 41.69, 10.92 43.66 M73.86 43.66 C50.13 43.63, 27.49 42.77, 10.92 43.66 M10.92 43.66 C4.41 44.92, -0.07 41.8, 0 32.75 M10.92 43.66 C5.16 43.09, 0.98 40.47, 0 32.75 M0 32.75 C0.94 26.63, -0.7 19.59, 0 10.92 M0 32.75 C-0.67 28.96, -0.95 23.72, 0 10.92 M0 10.92 C-1.72 5.04, 2.04 -0.78, 10.92 0 M0 10.92 C1.69 5.01, 4.97 0.66, 10.92 0" stroke="#1e1e1e" stroke-width="2" fill="none"></path></g><g transform="translate(269.3767318725586 19.33159637451172) rotate(0 24.28998565673828 12.5)"><text x="24.28998565673828" y="0" font-family="Virgil, Segoe UI Emoji" font-size="20px" fill="#1e1e1e" text-anchor="middle" style="white-space: pre;" direction="ltr" dominant-baseline="text-before-edge">N1_0</text></g><g stroke-linecap="round" transform="translate(393.44464111328125 80.38713836669922) rotate(0 42.387237548828125 21.83159637451172)"><path d="M10.92 0 C25.63 -2.23, 40.25 -2.72, 73.86 0 C83.4 -2.34, 85.99 1.92, 84.77 10.92 C87.19 13.73, 87.67 24.68, 84.77 32.75 C85.95 38.35, 77.56 44.81, 73.86 43.66 C54.78 42.94, 34.93 43.46, 10.92 43.66 C5.73 40.54, 2.53 41.66, 0 32.75 C3.66 25, 3.33 13.19, 0 10.92 C-2.3 3.36, 6.39 1.37, 10.92 0" stroke="none" stroke-width="0" fill="#b2f2bb"></path><path d="M10.92 0 C23.62 1.75, 39 -1.89, 73.86 0 M10.92 0 C31.02 0.14, 52 -0.52, 73.86 0 M73.86 0 C80.15 -0.85, 86.31 2.26, 84.77 10.92 M73.86 0 C79.96 0.09, 84.62 1.64, 84.77 10.92 M84.77 10.92 C83.53 15.22, 83.58 18.87, 84.77 32.75 M84.77 10.92 C85.03 15.91, 83.97 21.39, 84.77 32.75 M84.77 32.75 C84.01 39.33, 82.24 42.42, 73.86 43.66 M84.77 32.75 C85.14 39.14, 81.78 43, 73.86 43.66 M73.86 43.66 C58.87 44.41, 46.29 44.6, 10.92 43.66 M73.86 43.66 C60.47 43.56, 46.54 42.99, 10.92 43.66 M10.92 43.66 C1.79 42.16, 1.7 38.9, 0 32.75 M10.92 43.66 C3.44 45.45, 2.05 42, 0 32.75 M0 32.75 C1.27 26.74, -1.91 22.36, 0 10.92 M0 32.75 C0.22 27.27, -0.47 20.97, 0 10.92 M0 10.92 C1.59 2.32, 3.65 -1.57, 10.92 0 M0 10.92 C2.12 3.82, 1.77 -2.14, 10.92 0" stroke="#1e1e1e" stroke-width="2" fill="none"></path></g><g transform="translate(407.13189697265625 89.71873474121094) rotate(0 28.699981689453125 12.5)"><text x="28.699981689453125" y="0" font-family="Virgil, Segoe UI Emoji" font-size="20px" fill="#1e1e1e" text-anchor="middle" style="white-space: pre;" direction="ltr" dominant-baseline="text-before-edge">N2_0</text></g><g stroke-linecap="round" transform="translate(440.77117919921875 198.93587493896484) rotate(0 42.387237548828125 21.83159637451172)"><path d="M10.92 0 C35.75 2.4, 61.36 -0.57, 73.86 0 C83.67 1.05, 83.78 5.6, 84.77 10.92 C81.37 16.23, 86.9 26.62, 84.77 32.75 C85.45 38.26, 77.77 40.17, 73.86 43.66 C61.06 41.44, 44.31 41.96, 10.92 43.66 C5.54 40.54, 2.05 40.72, 0 32.75 C0.51 25.26, 0.18 13.47, 0 10.92 C-1.14 3.46, 3.75 -1.55, 10.92 0" stroke="none" stroke-width="0" fill="#a5d8ff"></path><path d="M10.92 0 C32.66 1.21, 51.37 -1.48, 73.86 0 M10.92 0 C27.83 0.06, 45.3 -1.15, 73.86 0 M73.86 0 C81.17 1.73, 84.89 4.92, 84.77 10.92 M73.86 0 C79.06 1.31, 82.97 1.67, 84.77 10.92 M84.77 10.92 C84.24 15.92, 82.91 20.35, 84.77 32.75 M84.77 10.92 C84.49 18.01, 84.45 27.15, 84.77 32.75 M84.77 32.75 C84.51 38.5, 80.16 42.11, 73.86 43.66 M84.77 32.75 C84.01 40.48, 83 44.68, 73.86 43.66 M73.86 43.66 C58.07 44.45, 45.37 44.56, 10.92 43.66 M73.86 43.66 C49.56 44.18, 27.04 44.6, 10.92 43.66 M10.92 43.66 C4.49 43.58, 0.12 40.34, 0 32.75 M10.92 43.66 C2.8 45.91, 0.76 41.67, 0 32.75 M0 32.75 C-1.52 28.31, 1.01 21.47, 0 10.92 M0 32.75 C-0.34 24.48, -0.86 17.42, 0 10.92 M0 10.92 C0.78 2.51, 3.81 -0.53, 10.92 0 M0 10.92 C-1.9 4.81, 5.51 -1.64, 10.92 0" stroke="#1e1e1e" stroke-width="2" fill="none"></path></g><g transform="translate(454.7684326171875 208.26747131347656) rotate(0 28.389984130859375 12.5)"><text x="28.389984130859375" y="0" font-family="Virgil, Segoe UI Emoji" font-size="20px" fill="#1e1e1e" text-anchor="middle" style="white-space: pre;" direction="ltr" dominant-baseline="text-before-edge">N3_0</text></g><g stroke-linecap="round" transform="translate(415.8887939453125 318.4981918334961) rotate(0 42.387237548828125 21.83159637451172)"><path d="M10.92 0 C30.83 1.27, 53.15 2.06, 73.86 0 C83.71 -2.68, 84.29 3.87, 84.77 10.92 C83.52 13.77, 86.11 18.99, 84.77 32.75 C81.78 36.48, 83.25 45.08, 73.86 43.66 C54.66 41.09, 31.33 42.49, 10.92 43.66 C0.68 45.59, -1.84 37.09, 0 32.75 C-2.02 23.83, 0.16 19.74, 0 10.92 C1.93 6.08, 5.09 -1.94, 10.92 0" stroke="none" stroke-width="0" fill="#ffc9c9"></path><path d="M10.92 0 C32.09 -1.17, 55.96 -0.56, 73.86 0 M10.92 0 C30.35 -0.07, 49.44 0.93, 73.86 0 M73.86 0 C79.88 -0.3, 83.38 2.84, 84.77 10.92 M73.86 0 C82.11 -0.38, 84.02 1.6, 84.77 10.92 M84.77 10.92 C84.74 18.29, 86.04 22.33, 84.77 32.75 M84.77 10.92 C84.16 15.82, 84.25 21.21, 84.77 32.75 M84.77 32.75 C85.67 40.69, 82.17 44.61, 73.86 43.66 M84.77 32.75 C85.9 39.35, 79.45 43.21, 73.86 43.66 M73.86 43.66 C50.53 42.02, 32.94 43.72, 10.92 43.66 M73.86 43.66 C53.01 43.41, 33.43 44.84, 10.92 43.66 M10.92 43.66 C3.65 42.82, -0.49 41.26, 0 32.75 M10.92 43.66 C1.86 43.59, -0.97 41.98, 0 32.75 M0 32.75 C1.3 23.21, -0.82 17.96, 0 10.92 M0 32.75 C-0.97 24.96, -0.33 14.83, 0 10.92 M0 10.92 C1.45 2.14, 4.5 -0.95, 10.92 0 M0 10.92 C2.04 2.15, 5.48 1.44, 10.92 0" stroke="#1e1e1e" stroke-width="2" fill="none"></path></g><g transform="translate(438.15604400634766 327.8297882080078) rotate(0 20.11998748779297 12.5)"><text x="20.11998748779297" y="0" font-family="Virgil, Segoe UI Emoji" font-size="20px" fill="#1e1e1e" text-anchor="middle" style="white-space: pre;" direction="ltr" dominant-baseline="text-before-edge">N1_1</text></g><g stroke-linecap="round" transform="translate(109.98603820800781 413.2622299194336) rotate(0 42.387237548828125 21.83159637451172)"><path d="M10.92 0 C26.35 -1.41, 44.67 1.11, 73.86 0 C83.26 2.95, 86.94 3.98, 84.77 10.92 C81.62 16.45, 82.59 18.5, 84.77 32.75 C85.68 36.57, 83.58 46.47, 73.86 43.66 C56.22 43.64, 43.63 46.96, 10.92 43.66 C6.89 41.67, 0.29 43.53, 0 32.75 C1.79 27.46, -1.35 22.83, 0 10.92 C3.29 4.12, 1.12 -2.42, 10.92 0" stroke="none" stroke-width="0" fill="#a5d8ff"></path><path d="M10.92 0 C22.35 0.09, 39.52 -1.23, 73.86 0 M10.92 0 C23.68 -1.44, 37.49 -0.62, 73.86 0 M73.86 0 C79.99 1.72, 83.94 5.47, 84.77 10.92 M73.86 0 C81.59 1.23, 85.98 3.29, 84.77 10.92 M84.77 10.92 C83.13 14.05, 86.84 20.89, 84.77 32.75 M84.77 10.92 C84.54 17.64, 84.82 25.86, 84.77 32.75 M84.77 32.75 C84.44 38.29, 79.75 41.78, 73.86 43.66 M84.77 32.75 C86.58 42.3, 82.49 42.58, 73.86 43.66 M73.86 43.66 C52.99 45.29, 34.07 45.03, 10.92 43.66 M73.86 43.66 C54.81 44.3, 34.56 42.91, 10.92 43.66 M10.92 43.66 C2.12 45.23, -1.37 41.41, 0 32.75 M10.92 43.66 C5.55 42.88, 0.93 37.84, 0 32.75 M0 32.75 C-2 24.11, -1.3 20.14, 0 10.92 M0 32.75 C0.16 26.38, 0.61 20.5, 0 10.92 M0 10.92 C-1.46 2.31, 3.92 1.17, 10.92 0 M0 10.92 C0.47 5.16, 4.99 2.21, 10.92 0" stroke="#1e1e1e" stroke-width="2" fill="none"></path></g><g transform="translate(128.15328979492188 422.5938262939453) rotate(0 24.219985961914062 12.5)"><text x="24.219985961914062" y="0" font-family="Virgil, Segoe UI Emoji" font-size="20px" fill="#1e1e1e" text-anchor="middle" style="white-space: pre;" direction="ltr" dominant-baseline="text-before-edge">N3_1</text></g><g stroke-linecap="round" transform="translate(317.43743896484375 424.2691879272461) rotate(0 42.387237548828125 21.83159637451172)"><path d="M10.92 0 C27.88 -0.88, 46.44 -0.09, 73.86 0 C82.86 1.66, 81.88 0.89, 84.77 10.92 C81.3 21.57, 81.76 25.38, 84.77 32.75 C83.89 38.01, 80.34 46.1, 73.86 43.66 C49.85 40.41, 25.52 41.05, 10.92 43.66 C3.63 46.68, 1.71 37.37, 0 32.75 C-3.34 26.76, 0.14 20.55, 0 10.92 C-3.28 5.08, 3.77 3.05, 10.92 0" stroke="none" stroke-width="0" fill="#b2f2bb"></path><path d="M10.92 0 C32.6 -0.33, 57.93 2.14, 73.86 0 M10.92 0 C27.35 -0.37, 43.61 0.51, 73.86 0 M73.86 0 C80.78 1.78, 84.65 3.68, 84.77 10.92 M73.86 0 C82.27 1.09, 84.94 4.86, 84.77 10.92 M84.77 10.92 C83.21 19.38, 85.17 23.33, 84.77 32.75 M84.77 10.92 C85.24 18.99, 85.07 24.52, 84.77 32.75 M84.77 32.75 C84.68 41.92, 82.79 44.43, 73.86 43.66 M84.77 32.75 C84.14 40, 83.34 42.55, 73.86 43.66 M73.86 43.66 C51.26 44.58, 27.54 45.37, 10.92 43.66 M73.86 43.66 C54.83 45.27, 36.06 43.86, 10.92 43.66 M10.92 43.66 C4.88 42.46, -0.51 40.15, 0 32.75 M10.92 43.66 C5.59 41.6, 0.57 39.97, 0 32.75 M0 32.75 C-1.03 25.25, 0.33 19.37, 0 10.92 M0 32.75 C-0.34 25.98, 0.37 19.79, 0 10.92 M0 10.92 C1.62 3.05, 3.99 1.19, 10.92 0 M0 10.92 C-0.14 5.6, 2.94 1.94, 10.92 0" stroke="#1e1e1e" stroke-width="2" fill="none"></path></g><g transform="translate(335.29469299316406 433.6007843017578) rotate(0 24.529983520507812 12.5)"><text x="24.529983520507812" y="0" font-family="Virgil, Segoe UI Emoji" font-size="20px" fill="#1e1e1e" text-anchor="middle" style="white-space: pre;" direction="ltr" dominant-baseline="text-before-edge">N2_1</text></g><g stroke-linecap="round" transform="translate(10 296.6094284057617) rotate(0 42.387237548828125 21.83159637451172)"><path d="M10.92 0 C27.85 0.3, 43.05 -3.57, 73.86 0 C84.63 0, 83.69 2.29, 84.77 10.92 C83.41 12.79, 87.2 21.66, 84.77 32.75 C87.91 41.09, 82.15 41.05, 73.86 43.66 C50.39 40.57, 21.16 40.23, 10.92 43.66 C3.83 42.8, 1.45 40.26, 0 32.75 C-0.32 27.64, -3.12 24.79, 0 10.92 C1.54 5.81, 1.06 0.83, 10.92 0" stroke="none" stroke-width="0" fill="#ffc9c9"></path><path d="M10.92 0 C34.78 0.56, 60.71 1.02, 73.86 0 M10.92 0 C25.82 0.5, 42.83 0.48, 73.86 0 M73.86 0 C79.43 -0.63, 84.84 1.84, 84.77 10.92 M73.86 0 C79.86 -0.47, 82.51 5.11, 84.77 10.92 M84.77 10.92 C85.92 16.75, 85.32 20.03, 84.77 32.75 M84.77 10.92 C83.73 16.05, 84.11 20.63, 84.77 32.75 M84.77 32.75 C84.55 40.08, 82.39 44.08, 73.86 43.66 M84.77 32.75 C84.53 40.07, 80.32 42.65, 73.86 43.66 M73.86 43.66 C50.74 42.62, 27.98 42.2, 10.92 43.66 M73.86 43.66 C56.15 44.54, 36.99 42.75, 10.92 43.66 M10.92 43.66 C1.81 44.86, 1.55 39.94, 0 32.75 M10.92 43.66 C5.12 44.05, 0.44 41.95, 0 32.75 M0 32.75 C-0.61 25.1, -1.27 17.67, 0 10.92 M0 32.75 C-0.1 25.8, -0.61 17.47, 0 10.92 M0 10.92 C1.27 3.68, 4.73 1.95, 10.92 0 M0 10.92 C0.8 5.85, 2.03 0.85, 10.92 0" stroke="#1e1e1e" stroke-width="2" fill="none"></path></g><g transform="translate(27.857254028320312 305.94102478027344) rotate(0 24.529983520507812 12.5)"><text x="24.529983520507812" y="0" font-family="Virgil, Segoe UI Emoji" font-size="20px" fill="#1e1e1e" text-anchor="middle" style="white-space: pre;" direction="ltr" dominant-baseline="text-before-edge">N1_2</text></g><g stroke-linecap="round" transform="translate(17.6666259765625 174.72045135498047) rotate(0 42.387237548828125 21.83159637451172)"><path d="M10.92 0 C29.92 0.63, 43.64 0.25, 73.86 0 C83.13 -0.19, 85.99 1.05, 84.77 10.92 C85.11 16.8, 84.29 21.4, 84.77 32.75 C86.42 41.73, 81.96 45.8, 73.86 43.66 C53.5 44.24, 33.39 39.84, 10.92 43.66 C6.57 42.23, 3.26 40.59, 0 32.75 C-0.04 22.6, 1.8 17.77, 0 10.92 C1.33 4.22, 0.86 -0.92, 10.92 0" stroke="none" stroke-width="0" fill="#b2f2bb"></path><path d="M10.92 0 C25.2 0.86, 42.32 2.42, 73.86 0 M10.92 0 C29.93 0.19, 48.75 -1.14, 73.86 0 M73.86 0 C82.07 -0.59, 84.89 5.24, 84.77 10.92 M73.86 0 C81.97 2, 83.87 4.93, 84.77 10.92 M84.77 10.92 C84.7 17.66, 83.19 23.14, 84.77 32.75 M84.77 10.92 C84.32 15.45, 85.08 19.51, 84.77 32.75 M84.77 32.75 C83.84 40.78, 80.78 44.65, 73.86 43.66 M84.77 32.75 C82.65 38.07, 81.55 42.24, 73.86 43.66 M73.86 43.66 C48.87 44.02, 27.58 43.21, 10.92 43.66 M73.86 43.66 C50.48 43.91, 25.69 42.92, 10.92 43.66 M10.92 43.66 C4.28 42.97, 1.91 38.32, 0 32.75 M10.92 43.66 C1.85 42.15, 2.07 42.15, 0 32.75 M0 32.75 C-1.99 24.87, 1.1 20.65, 0 10.92 M0 32.75 C-0.49 26.51, -0.29 21.3, 0 10.92 M0 10.92 C1.24 1.81, 1.64 0.47, 10.92 0 M0 10.92 C-1.09 3.43, 3.82 1.72, 10.92 0" stroke="#1e1e1e" stroke-width="2" fill="none"></path></g><g transform="translate(31.11388397216797 184.0520477294922) rotate(0 28.939979553222656 12.5)"><text x="28.939979553222656" y="0" font-family="Virgil, Segoe UI Emoji" font-size="20px" fill="#1e1e1e" text-anchor="middle" style="white-space: pre;" direction="ltr" dominant-baseline="text-before-edge">N2_2</text></g><g stroke-linecap="round" transform="translate(78.66314697265625 56.93932342529297) rotate(0 42.387237548828125 21.83159637451172)"><path d="M10.92 0 C36.94 3.52, 55.57 -1.74, 73.86 0 C81.52 0.18, 86.25 7.05, 84.77 10.92 C83.15 20.61, 87.54 26.35, 84.77 32.75 C84.99 40.42, 80.1 45.26, 73.86 43.66 C54.97 42.47, 40.99 47.3, 10.92 43.66 C3.64 46.12, 2.65 38.38, 0 32.75 C-3.29 24.21, -1.3 18.51, 0 10.92 C-0.59 2.88, 2.95 -3.31, 10.92 0" stroke="none" stroke-width="0" fill="#a5d8ff"></path><path d="M10.92 0 C34.64 -0.56, 57.17 -1, 73.86 0 M10.92 0 C24.05 -0.99, 36.65 -0.85, 73.86 0 M73.86 0 C81.22 -1.64, 83.61 4.03, 84.77 10.92 M73.86 0 C83.15 0.82, 84.01 2.43, 84.77 10.92 M84.77 10.92 C85.98 17.61, 84.44 25.58, 84.77 32.75 M84.77 10.92 C84.12 17.57, 85.1 24.85, 84.77 32.75 M84.77 32.75 C82.8 38.45, 81.67 42.72, 73.86 43.66 M84.77 32.75 C86.25 41.14, 81.94 44.81, 73.86 43.66 M73.86 43.66 C52.42 42.99, 35.01 45.34, 10.92 43.66 M73.86 43.66 C51.17 43.52, 30.81 44.6, 10.92 43.66 M10.92 43.66 C1.99 42.02, -1.51 38.87, 0 32.75 M10.92 43.66 C3.67 43.21, -0.35 39.11, 0 32.75 M0 32.75 C1.82 24.46, -0.06 17.11, 0 10.92 M0 32.75 C-0.04 27.86, -0.42 21.22, 0 10.92 M0 10.92 C1.74 3.52, 4.65 -1.76, 10.92 0 M0 10.92 C-1.52 3.65, 3.94 0.11, 10.92 0" stroke="#1e1e1e" stroke-width="2" fill="none"></path></g><g transform="translate(92.42040252685547 66.27091979980469) rotate(0 28.629981994628906 12.5)"><text x="28.629981994628906" y="0" font-family="Virgil, Segoe UI Emoji" font-size="20px" fill="#1e1e1e" text-anchor="middle" style="white-space: pre;" direction="ltr" dominant-baseline="text-before-edge">N3_2</text></g></svg>