<svg version="1.1" xmlns="http://www.w3.org/2000/svg" viewBox="0 0 7015.7395734830225 2269.2991380488547" width="7015.7395734830225" height="2269.2991380488547">
  <!-- svg-source:excalidraw -->
  
  <defs>
    <style class="style-fonts">
      @font-face {
        font-family: "Virgil";
        src: url("https://file%2B.vscode-resource.vscode-cdn.net/c%3A/Users/kan/.vscode/extensions/pomdtr.excalidraw-editor-3.7.4/public//dist/excalidraw-assets/Virgil.woff2");
      }
      @font-face {
        font-family: "Cascadia";
        src: url("https://file%2B.vscode-resource.vscode-cdn.net/c%3A/Users/kan/.vscode/extensions/pomdtr.excalidraw-editor-3.7.4/public//dist/excalidraw-assets/Cascadia.woff2");
      }
      @font-face {
        font-family: "Assistant";
        src: url("https://file%2B.vscode-resource.vscode-cdn.net/c%3A/Users/kan/.vscode/extensions/pomdtr.excalidraw-editor-3.7.4/public//dist/excalidraw-assets/Assistant-Regular.woff2");
      }
    </style>
    
  </defs>
  <rect x="0" y="0" width="7015.7395734830225" height="2269.2991380488547" fill="#ffffff"></rect><g stroke-linecap="round" transform="translate(845.4545060577675 371.7765312142858) rotate(0 128.3357420964927 75.0270492256418)"><path d="M32 0 C89.82 2.03, 150.11 2.49, 224.67 0 M32 0 C101.94 -1.94, 174.27 -2.1, 224.67 0 M224.67 0 C247.36 0.79, 255.31 9.51, 256.67 32 M224.67 0 C243.92 1.12, 256.71 10.12, 256.67 32 M256.67 32 C257.25 50.36, 255.27 71.72, 256.67 118.05 M256.67 32 C256.6 52.04, 256.88 70.42, 256.67 118.05 M256.67 118.05 C254.77 140.2, 246.51 150.37, 224.67 150.05 M256.67 118.05 C258.39 137.37, 247.65 149.57, 224.67 150.05 M224.67 150.05 C163.68 152.61, 99.54 151.98, 32 150.05 M224.67 150.05 C179.42 149.63, 134.46 150.16, 32 150.05 M32 150.05 C12.63 148.16, 0.7 138.76, 0 118.05 M32 150.05 C12.82 149.52, 1.53 139.42, 0 118.05 M0 118.05 C1.8 100.11, 0.84 82.27, 0 32 M0 118.05 C-0.69 98.96, -0.62 79.93, 0 32 M0 32 C0.06 8.96, 9.1 0.74, 32 0 M0 32 C-0.39 11.4, 11.02 1.93, 32 0" stroke="#1e1e1e" stroke-width="1" fill="none"></path></g><g transform="translate(914.0455853448882 434.3035804399276) rotate(0 59.08995056152344 12.5)"><text x="59.08995056152344" y="0" font-family="Virgil, Segoe UI Emoji" font-size="20px" fill="#1e1e1e" text-anchor="middle" style="white-space: pre;" direction="ltr" dominant-baseline="text-before-edge">Edge Device</text></g><g stroke-linecap="round" transform="translate(766.4786647676187 14.41084937635992) rotate(0 215.20916751565676 521.2405525149856)"><path d="M32 0 C114.91 -1.15, 199.75 0.15, 398.42 0 M32 0 C126.1 1.9, 220.33 0.86, 398.42 0 M398.42 0 C419.01 0.43, 428.76 9.44, 430.42 32 M398.42 0 C420.63 0.82, 429.19 10.25, 430.42 32 M430.42 32 C429.79 306.67, 428.69 580.21, 430.42 1010.48 M430.42 32 C428.89 360.36, 428.87 688.33, 430.42 1010.48 M430.42 1010.48 C431.78 1031.04, 418.17 1044.1, 398.42 1042.48 M430.42 1010.48 C428.23 1032.73, 418.02 1041.82, 398.42 1042.48 M398.42 1042.48 C258.64 1043.77, 119.14 1043.09, 32 1042.48 M398.42 1042.48 C295.09 1044.11, 191.2 1045.23, 32 1042.48 M32 1042.48 C12.16 1042.45, -0.11 1032.3, 0 1010.48 M32 1042.48 C9.32 1042.49, 1.49 1029.82, 0 1010.48 M0 1010.48 C3.66 630.19, 2.33 251.61, 0 32 M0 1010.48 C-2.6 729, -2.26 446.68, 0 32 M0 32 C0.29 8.69, 12.52 1.52, 32 0 M0 32 C1.83 9.71, 11.32 1.82, 32 0" stroke="#1e1e1e" stroke-width="1" fill="none"></path></g><g transform="translate(926.4047433801707 47.97558192467318) rotate(0 25.79998779296875 12.5)"><text x="0" y="0" font-family="Virgil, Segoe UI Emoji" font-size="20px" fill="#1e1e1e" text-anchor="start" style="white-space: pre;" direction="ltr" dominant-baseline="text-before-edge">DC A</text></g><g stroke-linecap="round" transform="translate(857.3008822512902 602.7808669879728) rotate(0 128.3357420964927 75.0270492256418)"><path d="M32 0 C80.83 0.32, 126.43 2.11, 224.67 0 M32 0 C95.19 1.88, 159.72 1.19, 224.67 0 M224.67 0 C246.88 0.04, 256.72 11, 256.67 32 M224.67 0 C244.86 1.29, 258.77 9.69, 256.67 32 M256.67 32 C257.74 63.79, 254.68 94.55, 256.67 118.05 M256.67 32 C254.92 58, 255.39 84.83, 256.67 118.05 M256.67 118.05 C255.27 141.08, 246.8 151.52, 224.67 150.05 M256.67 118.05 C254.97 140.33, 244.13 152.28, 224.67 150.05 M224.67 150.05 C173.25 151.11, 121.19 150.67, 32 150.05 M224.67 150.05 C149.38 150.09, 72.85 148.5, 32 150.05 M32 150.05 C12.65 150.98, -1.53 138.55, 0 118.05 M32 150.05 C10.47 151.32, 0.38 139.62, 0 118.05 M0 118.05 C-0.78 89.91, -1.91 65.89, 0 32 M0 118.05 C1.35 84.05, 0.45 49.67, 0 32 M0 32 C-1.76 10.83, 11.74 1.25, 32 0 M0 32 C-1.44 12.03, 11.18 0.59, 32 0" stroke="#1e1e1e" stroke-width="1" fill="none"></path></g><g transform="translate(925.8919615384107 665.3079162136141) rotate(0 59.08995056152344 12.5)"><text x="59.08995056152344" y="0" font-family="Virgil, Segoe UI Emoji" font-size="20px" fill="#1e1e1e" text-anchor="middle" style="white-space: pre;" direction="ltr" dominant-baseline="text-before-edge">Edge Device</text></g><g stroke-linecap="round" transform="translate(853.3520901867828 835.7595987939128) rotate(0 128.3357420964927 75.0270492256418)"><path d="M32 0 C81 -1.32, 127.85 -1.6, 224.67 0 M32 0 C90.84 1.87, 148.15 1.63, 224.67 0 M224.67 0 C244.29 1.96, 258.48 10.79, 256.67 32 M224.67 0 C244.56 -0.89, 256.86 8.56, 256.67 32 M256.67 32 C254.85 63.91, 254.44 98.46, 256.67 118.05 M256.67 32 C257.71 60.41, 258.27 90.09, 256.67 118.05 M256.67 118.05 C256.23 140.59, 245.33 149.95, 224.67 150.05 M256.67 118.05 C254.39 138.75, 248.21 149.03, 224.67 150.05 M224.67 150.05 C176.76 150.4, 128.24 152.72, 32 150.05 M224.67 150.05 C182.14 150.05, 138.61 149.98, 32 150.05 M32 150.05 C12.6 150.27, 0.05 137.88, 0 118.05 M32 150.05 C9.43 151.33, 2.14 138.02, 0 118.05 M0 118.05 C-0.85 84.75, -2.48 54.61, 0 32 M0 118.05 C0.05 87.85, -0.28 57.61, 0 32 M0 32 C1.2 11.37, 11.64 1.75, 32 0 M0 32 C1.83 9.74, 9.72 0.54, 32 0" stroke="#1e1e1e" stroke-width="1" fill="none"></path></g><g transform="translate(921.9431694739033 898.2866480195546) rotate(0 59.08995056152344 12.5)"><text x="59.08995056152344" y="0" font-family="Virgil, Segoe UI Emoji" font-size="20px" fill="#1e1e1e" text-anchor="middle" style="white-space: pre;" direction="ltr" dominant-baseline="text-before-edge">Edge Device</text></g><g stroke-linecap="round" transform="translate(849.4032981222754 128.92581924707656) rotate(0 128.3357420964927 75.0270492256418)"><path d="M32 0 C100.18 -1.24, 167.78 -1.93, 224.67 0 M32 0 C87.5 -0.62, 145.34 0.01, 224.67 0 M224.67 0 C245.58 1.09, 255.75 9.13, 256.67 32 M224.67 0 C246.37 0.34, 256.88 11.45, 256.67 32 M256.67 32 C256.79 65.84, 257.09 99.17, 256.67 118.05 M256.67 32 C257.98 66.76, 256.58 100.3, 256.67 118.05 M256.67 118.05 C257.94 138.82, 244.22 151.47, 224.67 150.05 M256.67 118.05 C257.05 140.38, 247.99 147.97, 224.67 150.05 M224.67 150.05 C163.7 149.59, 101.77 151.8, 32 150.05 M224.67 150.05 C169.21 150.06, 115.24 149.66, 32 150.05 M32 150.05 C12.38 149.05, 1.51 137.74, 0 118.05 M32 150.05 C10.96 152.01, -1.08 138.19, 0 118.05 M0 118.05 C-2.19 99.09, -0.62 80.34, 0 32 M0 118.05 C-0.95 85.33, 0.05 53.1, 0 32 M0 32 C-0.87 8.71, 9.06 1.64, 32 0 M0 32 C-1.57 8.75, 10.42 0.88, 32 0" stroke="#1e1e1e" stroke-width="1" fill="none"></path></g><g transform="translate(944.580074920224 191.45286847271836) rotate(0 32.89808654785156 11.512801983873032)"><text x="32.89808654785156" y="0" font-family="Virgil, Segoe UI Emoji" font-size="18.42048317419685px" fill="#1e1e1e" text-anchor="middle" style="white-space: pre;" direction="ltr" dominant-baseline="text-before-edge">Firewall</text></g><g stroke-linecap="round" transform="translate(841.5057139932605 1574.1837148568097) rotate(0 128.3357420964927 75.0270492256418)"><path d="M32 0 C88.33 1.59, 142.17 -0.17, 224.67 0 M32 0 C91.38 1.04, 149.24 0.09, 224.67 0 M224.67 0 C245.2 1.26, 257.27 9.51, 256.67 32 M224.67 0 C244.87 0.92, 256.1 10.11, 256.67 32 M256.67 32 C258.36 61.73, 256.92 88.74, 256.67 118.05 M256.67 32 C257.42 62.39, 257.63 93.74, 256.67 118.05 M256.67 118.05 C258.64 139.89, 247.45 151.12, 224.67 150.05 M256.67 118.05 C258.59 139.33, 244.25 148.61, 224.67 150.05 M224.67 150.05 C159.38 150.42, 94 148.01, 32 150.05 M224.67 150.05 C159.26 150.03, 96.06 148.89, 32 150.05 M32 150.05 C11.42 151.06, -0.77 140.86, 0 118.05 M32 150.05 C8.98 150.65, -1.79 137.98, 0 118.05 M0 118.05 C-0.16 87.83, -0.64 53.67, 0 32 M0 118.05 C-0.03 101.22, -0.01 82.28, 0 32 M0 32 C0.3 10.17, 12.41 -0.02, 32 0 M0 32 C-0.59 10.17, 11.18 1.98, 32 0" stroke="#1e1e1e" stroke-width="1" fill="none"></path></g><g transform="translate(910.096793280381 1636.710764082452) rotate(0 59.08995056152344 12.5)"><text x="59.08995056152344" y="0" font-family="Virgil, Segoe UI Emoji" font-size="20px" fill="#1e1e1e" text-anchor="middle" style="white-space: pre;" direction="ltr" dominant-baseline="text-before-edge">Edge Device</text></g><g stroke-linecap="round" transform="translate(762.5298727031118 1216.8180330188839) rotate(0 215.20916751565676 521.2405525149856)"><path d="M32 0 C141.77 2.83, 251.23 2.54, 398.42 0 M32 0 C171.06 0.72, 310.82 -0.04, 398.42 0 M398.42 0 C418.77 0.8, 429.92 10.18, 430.42 32 M398.42 0 C420.5 2.01, 431.89 11.74, 430.42 32 M430.42 32 C429.9 380.05, 429.95 728.62, 430.42 1010.48 M430.42 32 C434.44 281.99, 434.34 531.99, 430.42 1010.48 M430.42 1010.48 C432.09 1031.76, 418.22 1041.23, 398.42 1042.48 M430.42 1010.48 C431.29 1030.51, 418.88 1042.27, 398.42 1042.48 M398.42 1042.48 C268.79 1041.13, 137.71 1040.02, 32 1042.48 M398.42 1042.48 C257.04 1042.17, 114.96 1042.31, 32 1042.48 M32 1042.48 C9.2 1043, -1.56 1030.59, 0 1010.48 M32 1042.48 C12.25 1042.59, -1.02 1031.67, 0 1010.48 M0 1010.48 C0.42 643.65, 1.15 276.88, 0 32 M0 1010.48 C0.44 636.85, 0.73 263.41, 0 32 M0 32 C-0.51 10.24, 11.11 1.72, 32 0 M0 32 C2.01 9.01, 10.03 1.36, 32 0" stroke="#1e1e1e" stroke-width="1" fill="none"></path></g><g transform="translate(922.4559513156637 1248.4083695349434) rotate(0 26.509986877441406 12.5)"><text x="0" y="0" font-family="Virgil, Segoe UI Emoji" font-size="20px" fill="#1e1e1e" text-anchor="start" style="white-space: pre;" direction="ltr" dominant-baseline="text-before-edge">DC B</text></g><g stroke-linecap="round" transform="translate(853.3520901867832 1805.188050630497) rotate(0 128.3357420964927 75.0270492256418)"><path d="M32 0 C103.82 -2.18, 172.15 -1.61, 224.67 0 M32 0 C101.49 1.51, 171.71 0.87, 224.67 0 M224.67 0 C246.66 1.75, 257.95 11.6, 256.67 32 M224.67 0 C247.29 -0.58, 256.1 12.01, 256.67 32 M256.67 32 C256.33 59.99, 257.38 86.23, 256.67 118.05 M256.67 32 C258.13 59.96, 256.53 87.35, 256.67 118.05 M256.67 118.05 C257.43 138.25, 245.24 149.87, 224.67 150.05 M256.67 118.05 C257.94 138.85, 244.5 150.87, 224.67 150.05 M224.67 150.05 C166.43 149.87, 104.18 149.3, 32 150.05 M224.67 150.05 C156.44 151.73, 88.89 150.86, 32 150.05 M32 150.05 C12.04 150.15, -0.88 139.27, 0 118.05 M32 150.05 C12.39 149.36, -1.07 137.21, 0 118.05 M0 118.05 C1.66 92.94, -0.91 68.5, 0 32 M0 118.05 C-1 94.17, -0.52 71.57, 0 32 M0 32 C1.75 9.22, 10.11 1.19, 32 0 M0 32 C-0.94 10.69, 11.7 -1.05, 32 0" stroke="#1e1e1e" stroke-width="1" fill="none"></path></g><g transform="translate(921.9431694739037 1867.7150998561383) rotate(0 59.08995056152344 12.5)"><text x="59.08995056152344" y="0" font-family="Virgil, Segoe UI Emoji" font-size="20px" fill="#1e1e1e" text-anchor="middle" style="white-space: pre;" direction="ltr" dominant-baseline="text-before-edge">Edge Device</text></g><g stroke-linecap="round" transform="translate(849.4032981222758 2038.1667824364372) rotate(0 128.3357420964927 75.0270492256418)"><path d="M32 0 C77.75 1.37, 119.81 -0.21, 224.67 0 M32 0 C97.81 1.34, 163.61 0.94, 224.67 0 M224.67 0 C247.12 -0.5, 256.17 11.83, 256.67 32 M224.67 0 C246.09 1.47, 258.32 9.64, 256.67 32 M256.67 32 C257.25 67.24, 257.81 101.27, 256.67 118.05 M256.67 32 C256.39 57.02, 255.63 83.08, 256.67 118.05 M256.67 118.05 C257.77 138.92, 244.7 150.76, 224.67 150.05 M256.67 118.05 C256.93 138.32, 244.21 152.04, 224.67 150.05 M224.67 150.05 C155.16 150, 85.1 149.31, 32 150.05 M224.67 150.05 C162.53 148.93, 98.58 148.82, 32 150.05 M32 150.05 C12.16 149.45, -0.93 137.49, 0 118.05 M32 150.05 C10.43 149.98, -0.29 141.27, 0 118.05 M0 118.05 C-0.1 94.81, 0.38 67.57, 0 32 M0 118.05 C0.68 93.36, -0.47 70.7, 0 32 M0 32 C-0.82 10.69, 11.56 -0.91, 32 0 M0 32 C1.75 11.08, 10.25 -2.29, 32 0" stroke="#1e1e1e" stroke-width="1" fill="none"></path></g><g transform="translate(917.9943774093963 2100.6938316620785) rotate(0 59.08995056152344 12.5)"><text x="59.08995056152344" y="0" font-family="Virgil, Segoe UI Emoji" font-size="20px" fill="#1e1e1e" text-anchor="middle" style="white-space: pre;" direction="ltr" dominant-baseline="text-before-edge">Edge Device</text></g><g stroke-linecap="round" transform="translate(845.4545060577684 1331.3330028896007) rotate(0 128.3357420964927 75.0270492256418)"><path d="M32 0 C96.34 0.45, 158.61 1.6, 224.67 0 M32 0 C107.19 -1.15, 181.02 -0.32, 224.67 0 M224.67 0 C246.08 1.28, 258.1 9.77, 256.67 32 M224.67 0 C248.14 0.19, 258.94 11.25, 256.67 32 M256.67 32 C257.08 62.49, 255.88 96.8, 256.67 118.05 M256.67 32 C256.89 52.7, 255.69 74.21, 256.67 118.05 M256.67 118.05 C256.9 138.46, 244.45 151.78, 224.67 150.05 M256.67 118.05 C258.19 138.76, 246.87 151.21, 224.67 150.05 M224.67 150.05 C174.85 147.08, 122.75 150.02, 32 150.05 M224.67 150.05 C166.69 149.64, 106.75 148.99, 32 150.05 M32 150.05 C10.46 149.99, -0.25 141.02, 0 118.05 M32 150.05 C10.44 148.98, 0.34 138.81, 0 118.05 M0 118.05 C-0.42 85.2, 1.73 53.2, 0 32 M0 118.05 C-0.17 98.45, 0.69 78.37, 0 32 M0 32 C1.52 11.02, 10.3 -1.99, 32 0 M0 32 C-2.09 9.3, 11.98 0.42, 32 0" stroke="#1e1e1e" stroke-width="1" fill="none"></path></g><g transform="translate(940.631282855717 1393.8600521152425) rotate(0 32.89808654785156 11.512801983873032)"><text x="32.89808654785156" y="0" font-family="Virgil, Segoe UI Emoji" font-size="18.42048317419685px" fill="#1e1e1e" text-anchor="middle" style="white-space: pre;" direction="ltr" dominant-baseline="text-before-edge">Firewall</text></g><g stroke-linecap="round" transform="translate(1770.2337533912787 10) rotate(0 2091.0615834640953 1109.0447686019256)"><path d="M32 0 C871.91 4.32, 1711.96 3.34, 4150.12 0 M32 0 C1229.53 15.96, 2427.1 16.33, 4150.12 0 M4150.12 0 C4170.67 -1.48, 4183.87 9.05, 4182.12 32 M4150.12 0 C4172.69 -0.68, 4180.71 11.01, 4182.12 32 M4182.12 32 C4187.09 755.09, 4185.84 1478.74, 4182.12 2186.09 M4182.12 32 C4185.9 639.9, 4185.77 1248.59, 4182.12 2186.09 M4182.12 2186.09 C4181.78 2207.07, 4170.36 2217.9, 4150.12 2218.09 M4182.12 2186.09 C4180.43 2208.68, 4172.19 2216.01, 4150.12 2218.09 M4150.12 2218.09 C3103.95 2215.45, 2057.42 2215.66, 32 2218.09 M4150.12 2218.09 C2715.54 2230.22, 1280.58 2230.55, 32 2218.09 M32 2218.09 C12.14 2217.23, 0.64 2207.03, 0 2186.09 M32 2218.09 C11.3 2217.2, -0.43 2209.61, 0 2186.09 M0 2186.09 C-8.85 1381.2, -7.73 574.94, 0 32 M0 2186.09 C2.32 1532.06, 2.24 877.91, 0 32 M0 32 C-1.26 10.45, 11.72 -1.17, 32 0 M0 32 C1.34 10.92, 10.24 0.27, 32 0" stroke="#1e1e1e" stroke-width="1" fill="none"></path></g><g transform="translate(3745.5554254443023 49.56433745619529) rotate(0 25.97997283935547 12.5)"><text x="0" y="0" font-family="Virgil, Segoe UI Emoji" font-size="20px" fill="#1e1e1e" text-anchor="start" style="white-space: pre;" direction="ltr" dominant-baseline="text-before-edge">Cloud</text></g><g stroke-linecap="round" transform="translate(2032.2395734830238 953.2415696594617) rotate(0 208.33333333333326 110)"><path d="M32 0 C123.79 1.07, 216.07 -0.48, 384.67 0 M32 0 C136.25 -2.42, 242.15 -1.38, 384.67 0 M384.67 0 C405.18 1.16, 417.11 11.73, 416.67 32 M384.67 0 C404.33 -0.07, 414.66 9.2, 416.67 32 M416.67 32 C416.82 79.51, 416.63 124.25, 416.67 188 M416.67 32 C418.5 67.84, 416.89 103.18, 416.67 188 M416.67 188 C418.06 209.76, 405.95 219.89, 384.67 220 M416.67 188 C415.64 208.35, 405.42 221.42, 384.67 220 M384.67 220 C253.19 221.27, 123.42 221.39, 32 220 M384.67 220 C312.19 219.01, 239.46 218.65, 32 220 M32 220 C10.37 221.97, 1.98 208.09, 0 188 M32 220 C9.78 219.45, -0.04 210.99, 0 188 M0 188 C1.24 137.22, 1.4 88.14, 0 32 M0 188 C-0.19 146.54, -0.2 107.22, 0 32 M0 32 C1.1 9.53, 9.05 -0.12, 32 0 M0 32 C-0.41 11.16, 12.13 -0.22, 32 0" stroke="#1e1e1e" stroke-width="1" fill="none"></path></g><g transform="translate(2168.9062401496903 1056.5749029927952) rotate(0 67.53994750976562 12.5)"><text x="0" y="0" font-family="Virgil, Segoe UI Emoji" font-size="20px" fill="#1e1e1e" text-anchor="start" style="white-space: pre;" direction="ltr" dominant-baseline="text-before-edge">MQTT Broker</text></g><g stroke-linecap="round"><g transform="translate(1189.2395734830238 510.9082363261284) rotate(0 422.5 277.5)"><path d="M-0.28 0.11 C83.09 15.11, 360.56 -2.72, 501.44 89.57 C642.32 181.85, 787.71 476.35, 845 553.82 M1.77 -0.88 C84.88 13.83, 360.05 -4.65, 500.47 87.92 C640.88 180.49, 786.73 476.65, 844.24 554.52" stroke="#1e1e1e" stroke-width="1" fill="none"></path></g></g><mask></mask><g stroke-linecap="round"><g transform="translate(1195.0729068163573 1602.5749029927952) rotate(0 416.25 -262.5)"><path d="M0.8 1.19 C100.72 -18.56, 461.28 -31.56, 599.86 -119.45 C738.44 -207.34, 793.39 -458.48, 832.28 -526.14 M-0.25 0.77 C99.57 -19.29, 460.75 -33.76, 599.36 -121.46 C737.96 -209.15, 792.33 -458.24, 831.39 -525.42" stroke="#1e1e1e" stroke-width="1" fill="none"></path></g></g><mask></mask><g stroke-linecap="round"><g transform="translate(2977.517938462458 847.1757177640284) rotate(269.83845249062614 42.12165343223569 183.2626348168189)" fill-rule="evenodd"><path d="M1.92 -0.92 L84.55 -2.15 L82.22 330.73 L41.15 367.6 L1.38 327.45 L1.62 0.25" stroke="none" stroke-width="0" fill="#eeeeee" fill-rule="evenodd"></path><path d="M0 0 C29.92 -0.45, 61.97 0.53, 84.24 -0.32 M0 0 C32.66 0.91, 66.76 -0.32, 84.24 -0.32 M84.24 -0.32 C84.47 109.06, 85.87 218.8, 83.52 330.19 M84.24 -0.32 C83.7 131.19, 83.58 263.39, 83.52 330.19 M83.52 330.19 C65.59 342.6, 53.16 356.42, 40.51 366.85 M83.52 330.19 C72.54 338.4, 64.36 346.75, 40.51 366.85 M40.51 366.85 C26.92 353.53, 15.51 338.91, 1.32 328.16 M40.51 366.85 C32.1 356.83, 22.66 348.9, 1.32 328.16 M1.32 328.16 C1.94 249.63, 1.44 169.83, 0 0 M1.32 328.16 C-1.25 205.74, -2.35 85.07, 0 0 M0 0 C0 0, 0 0, 0 0 M0 0 C0 0, 0 0, 0 0" stroke="#000000" stroke-width="1" fill="none"></path></g></g><mask></mask><g stroke-linecap="round" transform="translate(2848.617417373624 1013.5032074541382) rotate(0 34.26815671509439 22.77703829566161)"><path d="M0.02 1.9 L70.04 1.64 L69.7 46.98 L1.94 43.9" stroke="none" stroke-width="0" fill="#868e96"></path><path d="M0 0 C19.39 0.66, 37.72 0.3, 68.54 0 M0 0 C16.34 -0.95, 32.6 0.01, 68.54 0 M68.54 0 C70.37 12.69, 70.42 23.12, 68.54 45.55 M68.54 0 C69.01 10.41, 69.33 22.13, 68.54 45.55 M68.54 45.55 C45.24 43.65, 17.16 44.28, 0 45.55 M68.54 45.55 C45.31 44.74, 20.98 45.14, 0 45.55 M0 45.55 C1.78 28.49, -1.25 14.33, 0 0 M0 45.55 C0.13 33.41, -0.89 20.85, 0 0" stroke="#000000" stroke-width="1" fill="none"></path></g><g stroke-linecap="round"><g transform="translate(2884.6981766414883 1035.8294487480007) rotate(0 -0.8500000233095761 -10.760009474737046)" fill-rule="evenodd"><path d="M1.51 1.64 L33.67 -20.09 L-32.27 -22.91 L0.3 -1.67" stroke="none" stroke-width="0" fill="#ced4da" fill-rule="evenodd"></path><path d="M0 0 C10.42 -5.75, 15.9 -12.8, 32.51 -21.52 M0 0 C11.63 -6.98, 22.27 -15.09, 32.51 -21.52 M32.51 -21.52 C13.71 -21.44, -10.23 -20.72, -34.21 -21.26 M32.51 -21.52 C18.66 -21.85, 4 -22.78, -34.21 -21.26 M-34.21 -21.26 C-27.79 -17.02, -17.74 -13.42, 0 0 M-34.21 -21.26 C-24.84 -15.74, -16.09 -10.28, 0 0 M0 0 C0 0, 0 0, 0 0 M0 0 C0 0, 0 0, 0 0" stroke="#000000" stroke-width="1" fill="none"></path></g></g><mask></mask><g stroke-linecap="round"><g transform="translate(2993.8205418258417 1039.7396288817913) rotate(0 43.0585570808812 -0.7976788794437653)"><path d="M0 0 C26.42 -1.79, 56.42 -0.66, 86.12 -1.6" stroke="#000000" stroke-width="1.5" fill="none" stroke-dasharray="1.5 7"></path></g></g><mask></mask><g stroke-linecap="round" transform="translate(2930.542854551535 1013.8977119670305) rotate(0 34.26815671509439 22.77703829566161)"><path d="M1.94 -1.65 L68.83 -1.67 L67.08 47.28 L1.23 46.54" stroke="none" stroke-width="0" fill="#868e96"></path><path d="M0 0 C21.79 0.82, 40.37 1.04, 68.54 0 M0 0 C23.06 1.13, 46.37 1.16, 68.54 0 M68.54 0 C66.64 13.74, 67.01 27.32, 68.54 45.55 M68.54 0 C68.07 14.67, 68.14 26.96, 68.54 45.55 M68.54 45.55 C49.67 46.41, 31.5 45.73, 0 45.55 M68.54 45.55 C48.65 46.33, 28.19 44.81, 0 45.55 M0 45.55 C-1.57 33.73, 0.7 18.98, 0 0 M0 45.55 C0.75 31.97, 0.58 17.46, 0 0" stroke="#000000" stroke-width="1" fill="none"></path></g><g stroke-linecap="round"><g transform="translate(2966.6784581195047 1034.6300300951061) rotate(0 -0.8500000233095761 -10.760009474737046)" fill-rule="evenodd"><path d="M0.3 -1.67 L31.05 -19.79 L-32.98 -20.27 L-0.49 -1.76" stroke="none" stroke-width="0" fill="#ced4da" fill-rule="evenodd"></path><path d="M0 0 C6.41 -4.57, 16.05 -11.15, 32.51 -21.52 M0 0 C9.46 -5.28, 17.81 -12.8, 32.51 -21.52 M32.51 -21.52 C10.18 -19.71, -9.55 -19.79, -34.21 -21.26 M32.51 -21.52 C18.18 -21.6, 4.86 -20.35, -34.21 -21.26 M-34.21 -21.26 C-28.32 -16.33, -20.51 -12.04, 0 0 M-34.21 -21.26 C-25.23 -16.09, -14.77 -9.6, 0 0 M0 0 C0 0, 0 0, 0 0 M0 0 C0 0, 0 0, 0 0" stroke="#000000" stroke-width="1" fill="none"></path></g></g><mask></mask><g stroke-linecap="round" transform="translate(3077.5615363571337 1012.319693915448) rotate(0 34.26815671509439 22.77703829566161)"><path d="M-1.46 1.73 L69.76 0.99 L68.05 43.8 L-0.44 44.52" stroke="none" stroke-width="0" fill="#868e96"></path><path d="M0 0 C22.61 -1.06, 43.36 0.02, 68.54 0 M0 0 C27.05 -1.26, 54.58 -1.5, 68.54 0 M68.54 0 C68.32 16.79, 66.34 29.47, 68.54 45.55 M68.54 0 C67.85 18.01, 67.27 34.59, 68.54 45.55 M68.54 45.55 C42.56 46.6, 16.81 45.59, 0 45.55 M68.54 45.55 C41.85 44.83, 16.27 44.26, 0 45.55 M0 45.55 C0.19 29.89, 1.77 15.7, 0 0 M0 45.55 C0.71 27.33, -0.12 9.91, 0 0" stroke="#000000" stroke-width="1" fill="none"></path></g><g stroke-linecap="round"><g transform="translate(3115.080847484642 1032.070462739382) rotate(0 -0.8500000233095761 -10.760009474737046)" fill-rule="evenodd"><path d="M1.23 0.99 L32.02 -23.28 L-34.65 -22.3 L-1.12 1.55" stroke="none" stroke-width="0" fill="#ced4da" fill-rule="evenodd"></path><path d="M0 0 C10.2 -6.74, 23.35 -13.12, 32.51 -21.52 M0 0 C13.18 -9.23, 26.42 -17.65, 32.51 -21.52 M32.51 -21.52 C5.73 -22.52, -15.53 -22.27, -34.21 -21.26 M32.51 -21.52 C16.21 -21.56, 2.58 -21.58, -34.21 -21.26 M-34.21 -21.26 C-22.8 -14.38, -9.14 -8.53, 0 0 M-34.21 -21.26 C-25.54 -17.03, -17.77 -10.91, 0 0 M0 0 C0 0, 0 0, 0 0 M0 0 C0 0, 0 0, 0 0" stroke="#000000" stroke-width="1" fill="none"></path></g></g><mask></mask><g transform="translate(2823.881072898057 1072.460731212961) rotate(0 194.27349853515625 34.74248110664098)"><text x="194.27349853515625" y="0" font-family="Virgil, Segoe UI Emoji" font-size="51.47034238020881px" fill="#000000" text-anchor="middle" style="white-space: pre;" direction="ltr" dominant-baseline="text-before-edge">Message Queue</text></g><g stroke-linecap="round"><g transform="translate(4365.25403582499 241.17475503299147) rotate(0 79.98626415800936 86.86909502229673)" fill-rule="evenodd"><path d="M1.28 1.65 C1.86 28.3, 2.81 129.55, 2.45 157.88 C2.09 186.2, -1.82 168.01, -0.88 171.59 C0.07 175.16, 1.65 176.38, 8.11 179.34 C14.57 182.29, 25.15 187.45, 37.9 189.33 C50.65 191.21, 68.71 190.61, 84.63 190.62 C100.54 190.63, 121.17 191.06, 133.38 189.39 C145.59 187.72, 153.75 183.34, 157.89 180.61 C162.03 177.88, 158.08 176.99, 158.21 173 C158.34 169.02, 158.36 182.94, 158.68 156.7 C158.99 130.45, 159.98 41.71, 160.1 15.52 C160.23 -10.66, 161.54 3.41, 159.43 -0.42 C157.32 -4.24, 153.08 -5.06, 147.44 -7.45 C141.8 -9.83, 137.62 -13.42, 125.6 -14.72 C113.58 -16.01, 90.18 -15.09, 75.31 -15.22 C60.43 -15.35, 48.07 -16.67, 36.34 -15.49 C24.6 -14.31, 10.99 -10.89, 4.89 -8.13 C-1.2 -5.38, 0.89 -0.56, -0.25 1.02 C-1.4 2.6, -1.71 1.46, -1.95 1.35" stroke="none" stroke-width="0" fill="#ced4da" fill-rule="evenodd"></path><path d="M-0.52 1.11 C-0.46 27.37, 1.58 128.19, 1.55 157 C1.52 185.81, -1.7 169.73, -0.68 173.96 C0.33 178.19, 1.53 180.11, 7.64 182.38 C13.75 184.65, 22.86 186.31, 35.97 187.56 C49.07 188.82, 70.2 190.14, 86.26 189.93 C102.32 189.71, 120.75 188.03, 132.32 186.29 C143.89 184.55, 151.27 181.68, 155.65 179.5 C160.03 177.31, 157.94 176.78, 158.61 173.17 C159.27 169.56, 159.41 184.63, 159.65 157.84 C159.88 131.06, 160.25 38.68, 160.02 12.46 C159.8 -13.77, 160.34 3.85, 158.28 0.48 C156.22 -2.88, 152.72 -5.39, 147.66 -7.75 C142.6 -10.12, 139.7 -12.19, 127.89 -13.71 C116.08 -15.23, 91.79 -16.91, 76.8 -16.85 C61.81 -16.8, 49.64 -15.1, 37.94 -13.38 C26.25 -11.67, 12.88 -8.68, 6.6 -6.57 C0.33 -4.45, 1.48 -1.64, 0.29 -0.7 C-0.9 0.24, -0.54 -0.87, -0.56 -0.93 M1.4 0.65 C1.3 26.61, 1.07 126.19, 1.14 155.29 C1.21 184.39, 0.77 171.11, 1.84 175.26 C2.91 179.41, 1.6 178.13, 7.57 180.19 C13.54 182.25, 24.85 186.2, 37.67 187.63 C50.5 189.05, 69.18 188.63, 84.52 188.73 C99.87 188.84, 118.07 189.82, 129.72 188.24 C141.36 186.67, 149.33 181.99, 154.39 179.28 C159.45 176.58, 159.12 175.72, 160.09 172.02 C161.06 168.32, 160.13 183.58, 160.2 157.09 C160.27 130.61, 160.52 39.18, 160.53 13.1 C160.53 -12.97, 162.42 4.21, 160.24 0.64 C158.06 -2.92, 152.85 -5.78, 147.43 -8.29 C142.01 -10.8, 139.5 -12.86, 127.72 -14.41 C115.93 -15.96, 91.54 -17.45, 76.75 -17.61 C61.95 -17.76, 50.89 -17.31, 38.97 -15.34 C27.04 -13.36, 11.84 -8.2, 5.22 -5.75 C-1.41 -3.31, -0.16 -1.42, -0.8 -0.65 C-1.43 0.11, 1.17 -1.31, 1.41 -1.16" stroke="#000000" stroke-width="1" fill="none"></path></g></g><mask></mask><g stroke-linecap="round" transform="translate(4365.590363168078 225.06695786) rotate(0 79.55925297322028 16.09026036499722)"><path d="M77.39 -0.69 C89 -0.99, 103.4 -0.17, 114.25 0.92 C125.1 2.02, 135.31 3.64, 142.49 5.87 C149.68 8.11, 155.38 11.75, 157.37 14.31 C159.37 16.88, 158.15 19.12, 154.45 21.26 C150.76 23.4, 144.01 25.28, 135.22 27.15 C126.43 29.01, 113.87 31.61, 101.7 32.44 C89.54 33.27, 74.43 32.85, 62.23 32.14 C50.02 31.43, 37.79 29.93, 28.47 28.18 C19.15 26.43, 10.92 23.88, 6.3 21.63 C1.68 19.38, -0.14 17.2, 0.76 14.7 C1.66 12.19, 5.11 8.83, 11.7 6.61 C18.29 4.38, 28.95 2.54, 40.31 1.37 C51.67 0.2, 72.8 -0.37, 79.86 -0.41 C86.92 -0.44, 82.62 1, 82.66 1.18 M80.86 0.76 C92.59 0.33, 107.78 0.75, 118.75 1.85 C129.73 2.95, 140.09 5.03, 146.71 7.35 C153.33 9.67, 157.57 13.41, 158.47 15.78 C159.37 18.15, 156.7 19.42, 152.12 21.59 C147.54 23.76, 140.57 27.14, 131.01 28.8 C121.45 30.47, 106.71 31.25, 94.76 31.58 C82.81 31.9, 70.87 31.64, 59.31 30.78 C47.76 29.92, 34.66 27.91, 25.45 26.4 C16.25 24.88, 8.36 24.05, 4.07 21.7 C-0.22 19.35, -2.24 14.58, -0.3 12.3 C1.65 10.01, 8.11 9.94, 15.76 8 C23.4 6.05, 34.45 1.82, 45.58 0.63 C56.72 -0.55, 76.46 0.74, 82.55 0.89 C88.64 1.04, 82.04 1.26, 82.14 1.54" stroke="none" stroke-width="0" fill="#fff"></path><path d="M57.02 -0.07 C67.8 -0.77, 81.97 0.39, 93.94 1.1 C105.91 1.8, 119.2 2.8, 128.83 4.15 C138.47 5.5, 146.72 7.18, 151.77 9.21 C156.82 11.25, 159.82 13.88, 159.14 16.37 C158.47 18.87, 154.28 21.86, 147.71 24.17 C141.15 26.48, 130.5 28.95, 119.75 30.21 C109.01 31.46, 95.32 31.75, 83.25 31.71 C71.18 31.67, 58.34 30.81, 47.31 29.99 C36.27 29.16, 24.85 28.72, 17.03 26.76 C9.21 24.81, 2.65 20.87, 0.39 18.27 C-1.87 15.67, -0.54 13.48, 3.46 11.17 C7.47 8.86, 13.05 6.22, 24.43 4.42 C35.81 2.63, 61.39 1.14, 71.73 0.39 C82.07 -0.36, 86.47 -0.31, 86.46 -0.08 M45.33 2.65 C55.63 1.77, 70.84 1.37, 82.93 1.02 C95.03 0.68, 107.37 -0.23, 117.91 0.57 C128.45 1.38, 139.26 3.43, 146.17 5.88 C153.09 8.33, 158.3 12.53, 159.39 15.29 C160.49 18.05, 157.34 20.02, 152.74 22.46 C148.13 24.89, 140.98 28.2, 131.79 29.9 C122.59 31.6, 109.92 32.33, 97.55 32.64 C85.18 32.96, 69.76 32.74, 57.56 31.77 C45.36 30.79, 33.14 28.27, 24.33 26.78 C15.52 25.3, 8.53 25.02, 4.68 22.86 C0.83 20.7, -0.42 16.46, 1.25 13.84 C2.92 11.21, 7.6 9.34, 14.69 7.11 C21.77 4.87, 38.9 1.16, 43.76 0.43 C48.63 -0.3, 43.33 2.39, 43.88 2.7" stroke="#000000" stroke-width="1" fill="none"></path></g><g stroke-linecap="round" transform="translate(4460.175423451614 273.5376189304136) rotate(0 24.743182046893708 28.77114191499288)"><path d="M23.89 0.22 L48.36 27.6 L25.35 59.52 L0.5 29.17" stroke="none" stroke-width="0" fill="#868e96" fill-rule="evenodd"></path><path d="M25 0 C34.56 10.31, 45.21 20.96, 49.49 29 M25 0 C31.96 6.67, 36.99 14.64, 49.49 29 M49.49 29 C43.27 35.76, 37.76 40.55, 25 57.54 M49.49 29 C40.52 39.5, 29.46 51.19, 25 57.54 M25 57.54 C17.55 49.62, 8.89 39.55, 0 29 M25 57.54 C18.98 50.14, 14.37 45.3, 0 29 M0 29 C7.29 18, 16.81 7.96, 25 0 M0 29 C9.5 19.89, 18.14 9.41, 25 0" stroke="#000000" stroke-width="1" fill="none"></path></g><g stroke-linecap="round" transform="translate(4432.555127213216 361.00189035199287) rotate(0 26.469450561793565 25.318604885193736)"><path d="M30.11 -0.33 C35.35 -0.08, 41.18 3.24, 45.07 7.19 C48.95 11.14, 53.09 17.96, 53.42 23.39 C53.75 28.83, 50.67 35.38, 47.06 39.81 C43.45 44.23, 37.14 48.73, 31.77 49.93 C26.4 51.14, 19.7 49.63, 14.85 47.05 C9.99 44.47, 4.88 39.43, 2.63 34.45 C0.37 29.47, -0.1 22.35, 1.32 17.18 C2.74 12.01, 5.43 5.85, 11.15 3.42 C16.87 0.98, 30.55 2.22, 35.64 2.57 C40.73 2.92, 41.58 5.33, 41.7 5.5 M33.19 0.13 C38.21 1.3, 44.22 5.92, 47.33 10.51 C50.45 15.09, 52.16 22.47, 51.87 27.63 C51.58 32.79, 49.56 37.65, 45.61 41.49 C41.67 45.32, 34 49.9, 28.18 50.64 C22.36 51.38, 15.3 49.14, 10.68 45.91 C6.06 42.68, 1.66 36.38, 0.46 31.26 C-0.74 26.14, 1.34 19.92, 3.49 15.17 C5.64 10.41, 8.48 4.9, 13.36 2.72 C18.24 0.55, 29.76 2.24, 32.75 2.11 C35.75 1.99, 31.44 1.82, 31.32 1.96" stroke="none" stroke-width="0" fill="#868e96"></path><path d="M16.33 2.49 C21.2 0.06, 28.63 -0.57, 34.1 0.87 C39.56 2.31, 45.98 6.51, 49.13 11.12 C52.29 15.73, 53.95 22.97, 53.04 28.52 C52.14 34.08, 48.06 40.83, 43.69 44.44 C39.32 48.05, 32.26 50.16, 26.83 50.17 C21.39 50.19, 15.38 47.66, 11.08 44.53 C6.78 41.4, 2.49 36.69, 1.03 31.4 C-0.44 26.11, -0.91 17.93, 2.3 12.8 C5.51 7.67, 16.4 2.69, 20.26 0.61 C24.13 -1.46, 25.31 -0.12, 25.48 0.35 M20.01 -0.56 C25.15 -2.18, 32.01 -1.5, 37.23 1.23 C42.45 3.97, 48.69 10.52, 51.34 15.84 C53.99 21.15, 54.89 28.3, 53.15 33.11 C51.41 37.92, 45.79 42.05, 40.9 44.71 C36.02 47.37, 29.29 49.24, 23.84 49.08 C18.39 48.92, 12.23 47.35, 8.21 43.76 C4.18 40.17, 0.03 32.82, -0.33 27.54 C-0.68 22.27, 2.51 16.4, 6.06 12.08 C9.6 7.77, 18.76 3.41, 20.94 1.64 C23.12 -0.13, 19.36 1.37, 19.15 1.46" stroke="#000000" stroke-width="1" fill="none"></path></g><g stroke-linecap="round"><g transform="translate(4408.293604595384 303.2620080788463) rotate(0 -0.6126319358054388 21.969008568929326)" fill-rule="evenodd"><path d="M0.17 0.99 L23.68 44.02 L-25.1 43.75 L-0.52 -0.81" stroke="none" stroke-width="0" fill="#868e96" fill-rule="evenodd"></path><path d="M0 0 C5.45 11.86, 11.58 22.67, 23.43 43.94 M0 0 C5.19 10.81, 11.1 21.04, 23.43 43.94 M23.43 43.94 C8.54 42.93, -7.75 44.32, -24.66 43.4 M23.43 43.94 C12.88 44.11, 2.25 43.68, -24.66 43.4 M-24.66 43.4 C-17.15 29.18, -9.12 14.27, 0 0 M-24.66 43.4 C-19.01 34.21, -14.22 23.93, 0 0 M0 0 C0 0, 0 0, 0 0 M0 0 C0 0, 0 0, 0 0" stroke="#000000" stroke-width="1" fill="none"></path></g></g><mask></mask><g transform="translate(4327.780650143181 440.50295108892374) rotate(0 117.95892333984375 26.429929115761183)"><text x="117.95892333984375" y="0" font-family="Virgil, Segoe UI Emoji" font-size="39.15545054186839px" fill="#000000" text-anchor="middle" style="white-space: pre;" direction="ltr" dominant-baseline="text-before-edge">Log Storage</text></g><g stroke-linecap="round" transform="translate(3659.6446234574482 874.4412132429027) rotate(0 172.20599331984545 168.89433960215584)"><path d="M-1.4 0.29 L343.06 -1.92 L343.15 336.21 L1.41 336.96" stroke="none" stroke-width="0" fill="#eeeeee"></path><path d="M0 0 C77.21 -2.72, 156.14 -1.94, 344.41 0 M0 0 C128.36 -0.56, 256 -0.74, 344.41 0 M344.41 0 C341.24 105.62, 343.25 210.89, 344.41 337.79 M344.41 0 C343.54 123.6, 343.86 248.79, 344.41 337.79 M344.41 337.79 C251.72 340.46, 157.16 338.77, 0 337.79 M344.41 337.79 C237.38 336.85, 130.28 336.25, 0 337.79 M0 337.79 C-1.87 250.29, -0.1 164.33, 0 0 M0 337.79 C1.77 253.87, 1.28 169.72, 0 0" stroke="#000000" stroke-width="1" fill="none"></path></g><g transform="translate(3704.794777238721 967.2585226841842) rotate(0 127.05583953857445 72.0162695225331)"><text x="127.05583953857422" y="0" font-family="Virgil, Segoe UI Emoji" font-size="53.34538483150603px" fill="#000000" text-anchor="middle" style="white-space: pre;" direction="ltr" dominant-baseline="text-before-edge">Log </text><text x="127.05583953857422" y="72.01626952253311" font-family="Virgil, Segoe UI Emoji" font-size="53.34538483150603px" fill="#000000" text-anchor="middle" style="white-space: pre;" direction="ltr" dominant-baseline="text-before-edge">Processor</text></g><g mask="url(#mask-Jc9egV5bHL-yqaxBuLjQ0)" stroke-linecap="round"><g transform="translate(2450.7395734830225 1062.908236326128) rotate(0 190 -16.66666666666663)"><path d="M-0.12 -1.07 C63.26 -6.42, 316.9 -27.63, 380.15 -33.08 M-1.64 0.98 C61.61 -4.66, 315.95 -29.46, 379.28 -35.07" stroke="#1e1e1e" stroke-width="1" fill="none"></path></g><g transform="translate(2450.7395734830225 1062.908236326128) rotate(0 190 -16.66666666666663)"><path d="M352.17 -22.23 C358.27 -25.64, 368.26 -30.58, 379.28 -35.07 M352.17 -22.23 C359.75 -25.67, 365.78 -29.6, 379.28 -35.07" stroke="#1e1e1e" stroke-width="1" fill="none"></path></g><g transform="translate(2450.7395734830225 1062.908236326128) rotate(0 190 -16.66666666666663)"><path d="M350.25 -42.66 C356.73 -40.21, 367.27 -39.27, 379.28 -35.07 M350.25 -42.66 C358.39 -40.72, 364.92 -39.27, 379.28 -35.07" stroke="#1e1e1e" stroke-width="1" fill="none"></path></g></g><mask id="mask-Jc9egV5bHL-yqaxBuLjQ0"><rect x="0" y="0" fill="#fff" width="2930.7395734830225" height="1196.2415696594612"></rect><rect x="2596.7219730539646" y="1033.7415696594612" fill="#000" width="88.03520085811616" height="25" opacity="1"></rect></mask><g transform="translate(2596.7219730539646 1033.7415696594612) rotate(0 43.27070446261632 12.119500719578923)"><text x="44.01760042905808" y="0" font-family="Virgil, Segoe UI Emoji" font-size="20px" fill="#1e1e1e" text-anchor="middle" style="white-space: pre;" direction="ltr" dominant-baseline="text-before-edge">log chunk</text></g><g mask="url(#mask-16wPaYwGGB5F4DfIEAq0R)" stroke-linecap="round"><g transform="translate(3204.072906816356 1036.2415696594612) rotate(0 227.28585832054614 -3.2939979466744944)"><path d="M0.37 -0.24 C76.11 -1.66, 379.22 -6.52, 454.98 -7.56 M-0.89 -1.41 C74.67 -2.8, 378.37 -5.92, 454.24 -6.54" stroke="#1e1e1e" stroke-width="1" fill="none"></path></g><g transform="translate(3204.072906816356 1036.2415696594612) rotate(0 227.28585832054614 -3.2939979466744944)"><path d="M426.15 3.99 C435.45 0.91, 444 -2.84, 454.24 -6.54 M426.15 3.99 C434.72 0.75, 444.08 -2.19, 454.24 -6.54" stroke="#1e1e1e" stroke-width="1" fill="none"></path></g><g transform="translate(3204.072906816356 1036.2415696594612) rotate(0 227.28585832054614 -3.2939979466744944)"><path d="M425.96 -16.53 C435.48 -12.46, 444.11 -9.07, 454.24 -6.54 M425.96 -16.53 C434.68 -13.42, 444.11 -10.01, 454.24 -6.54" stroke="#1e1e1e" stroke-width="1" fill="none"></path></g></g><mask id="mask-16wPaYwGGB5F4DfIEAq0R"><rect x="0" y="0" fill="#fff" width="3758.6446234574482" height="1142.8295655528102"></rect><rect x="3340.22126818866" y="1020.4475717127867" fill="#000" width="182.27499389648438" height="25" opacity="1"></rect></mask><g transform="translate(3340.22126818866 1020.4475717127867) rotate(0 90.89641317963128 11.89154318049549)"><text x="91.13749694824219" y="0" font-family="Virgil, Segoe UI Emoji" font-size="20px" fill="#1e1e1e" text-anchor="middle" style="white-space: pre;" direction="ltr" dominant-baseline="text-before-edge">consumer log chunk</text></g><g mask="url(#mask-8Ki1khRulm4SAxGbaDJNa)" stroke-linecap="round"><g transform="translate(3890.5950140166005 865.547896175025) rotate(0 230.98071787563867 -260.9393801695077)"><path d="M0.57 -0.56 C9.07 -56.65, -24.77 -250.74, 52.14 -337.46 C129.05 -424.19, 393.6 -490.16, 462.04 -520.9 M-0.6 1.76 C8.15 -54.11, -22.76 -248.93, 54.23 -336.34 C131.21 -423.76, 393.11 -491.98, 461.32 -522.73" stroke="#1e1e1e" stroke-width="1" fill="none"></path></g><g transform="translate(3890.5950140166005 865.547896175025) rotate(0 230.98071787563867 -260.9393801695077)"><path d="M438.28 -503.51 C446.61 -513.21, 455.33 -518.69, 461.32 -522.73 M438.28 -503.51 C447.25 -510.03, 455.19 -518.67, 461.32 -522.73" stroke="#1e1e1e" stroke-width="1" fill="none"></path></g><g transform="translate(3890.5950140166005 865.547896175025) rotate(0 230.98071787563867 -260.9393801695077)"><path d="M431.32 -522.82 C442.25 -524.91, 453.73 -522.75, 461.32 -522.73 M431.32 -522.82 C443.08 -521.96, 453.67 -523.23, 461.32 -522.73" stroke="#1e1e1e" stroke-width="1" fill="none"></path></g></g><mask id="mask-8Ki1khRulm4SAxGbaDJNa"><rect x="0" y="0" fill="#fff" width="4452.556449767878" height="1487.4266565140404"></rect><rect x="3801.638460875324" y="503.8812295083576" fill="#000" width="284.57977294921875" height="50" opacity="1"></rect></mask><g transform="translate(3801.638460875324 503.8812295083576) rotate(0 319.6801710795048 101.18205363147047)"><text x="142.28988647460938" y="0" font-family="Virgil, Segoe UI Emoji" font-size="20px" fill="#1e1e1e" text-anchor="middle" style="white-space: pre;" direction="ltr" dominant-baseline="text-before-edge">upload processed and joined </text><text x="142.28988647460938" y="25" font-family="Virgil, Segoe UI Emoji" font-size="20px" fill="#1e1e1e" text-anchor="middle" style="white-space: pre;" direction="ltr" dominant-baseline="text-before-edge">chunk</text></g><g stroke-linecap="round" transform="translate(4501.86691349651 1544.013896723972) rotate(0 172.20599331984522 168.89433960215584)"><path d="M-1.2 1.88 L343.01 1.47 L345.28 336.15 L-0.94 339.25" stroke="none" stroke-width="0" fill="#eeeeee"></path><path d="M0 0 C71.2 1.11, 141.08 0.38, 344.41 0 M0 0 C135.2 1.84, 269.85 1.53, 344.41 0 M344.41 0 C345.15 132.74, 344.85 266.65, 344.41 337.79 M344.41 0 C344.38 114.88, 345.22 229.32, 344.41 337.79 M344.41 337.79 C260.45 339.02, 178.22 339.59, 0 337.79 M344.41 337.79 C210.09 340.33, 75.99 339.47, 0 337.79 M0 337.79 C-0.07 209.5, -0.99 79.15, 0 0 M0 337.79 C0.18 222.11, 0.73 105.3, 0 0" stroke="#000000" stroke-width="1" fill="none"></path></g><g transform="translate(4584.035011613721 1636.8312061652537) rotate(0 90.03789520263672 72.01626952253311)"><text x="90.03789520263672" y="0" font-family="Virgil, Segoe UI Emoji" font-size="53.34538483150603px" fill="#000000" text-anchor="middle" style="white-space: pre;" direction="ltr" dominant-baseline="text-before-edge">Notify</text><text x="90.03789520263672" y="72.01626952253311" font-family="Virgil, Segoe UI Emoji" font-size="53.34538483150603px" fill="#000000" text-anchor="middle" style="white-space: pre;" direction="ltr" dominant-baseline="text-before-edge">Service</text></g><g stroke-linecap="round" transform="translate(5318.533580163179 874.0138967239718) rotate(0 172.20599331984522 168.89433960215584)"><path d="M0.36 -0.74 L343.81 -1.31 L344.85 338.61 L-1.99 337.46" stroke="none" stroke-width="0" fill="#eeeeee"></path><path d="M0 0 C123.94 1.93, 247.09 0.5, 344.41 0 M0 0 C69.82 -1.89, 140.43 -2.78, 344.41 0 M344.41 0 C345.3 74.73, 344.69 150.02, 344.41 337.79 M344.41 0 C345.82 107.38, 344.76 216.35, 344.41 337.79 M344.41 337.79 C265.19 339.44, 186.17 338.36, 0 337.79 M344.41 337.79 C215.75 335.95, 87.31 336.55, 0 337.79 M0 337.79 C-0.6 217.96, -0.35 99.62, 0 0 M0 337.79 C1.54 261.48, 2.7 184.15, 0 0" stroke="#000000" stroke-width="1" fill="none"></path></g><g transform="translate(5326.772440914669 966.8312061652534) rotate(0 163.96713256835938 72.0162695225331)"><text x="163.96713256835938" y="0" font-family="Virgil, Segoe UI Emoji" font-size="53.34538483150603px" fill="#000000" text-anchor="middle" style="white-space: pre;" direction="ltr" dominant-baseline="text-before-edge">Log Request</text><text x="163.96713256835938" y="72.01626952253311" font-family="Virgil, Segoe UI Emoji" font-size="53.34538483150603px" fill="#000000" text-anchor="middle" style="white-space: pre;" direction="ltr" dominant-baseline="text-before-edge">Service</text></g><g stroke-linecap="round" transform="translate(6589.072906816356 919.5749029927945) rotate(0 208.33333333333303 110)"><path d="M32 0 C166.77 -2.04, 300.32 -1.05, 384.67 0 M32 0 C128.06 -1.69, 225.18 -2.19, 384.67 0 M384.67 0 C407.27 -0.88, 417.45 11.17, 416.67 32 M384.67 0 C404.88 -0.28, 415.57 12.6, 416.67 32 M416.67 32 C418.86 70.43, 416.39 107.92, 416.67 188 M416.67 32 C417.48 90.15, 418.19 149.91, 416.67 188 M416.67 188 C415.15 210.67, 405.63 219.77, 384.67 220 M416.67 188 C417.06 210.41, 405.75 218.83, 384.67 220 M384.67 220 C277.38 219.43, 169.04 219.04, 32 220 M384.67 220 C258.84 221.22, 133.88 221.22, 32 220 M32 220 C11.34 219.06, -0.1 211.26, 0 188 M32 220 C10.35 217.71, 0.94 208.61, 0 188 M0 188 C2.46 148.68, 0.31 110.78, 0 32 M0 188 C-0.23 144.89, 0.37 103.33, 0 32 M0 32 C-1.05 11.57, 9.26 -0.39, 32 0 M0 32 C-0.92 8.93, 11.03 0.22, 32 0" stroke="#1e1e1e" stroke-width="1" fill="none"></path></g><g transform="translate(6752.793914791298 1017.0749029927945) rotate(0 44.61232535839099 12.5)"><text x="44.61232535839081" y="0" font-family="Virgil, Segoe UI Emoji" font-size="20px" fill="#1e1e1e" text-anchor="middle" style="white-space: pre;" direction="ltr" dominant-baseline="text-before-edge">Operator</text></g><g mask="url(#mask-61xD8hYng8YDirpgWiUej)" stroke-linecap="round"><g transform="translate(6587.4062401496885 1036.2415696594612) rotate(0 -455 6.666666666666629)"><path d="M-1.05 -0.6 C-152.76 1.45, -759.07 10.39, -910.45 12.56 M0.6 1.7 C-151.29 3.86, -759.91 11.76, -911.63 13.69" stroke="#1e1e1e" stroke-width="1" fill="none"></path></g><g transform="translate(6587.4062401496885 1036.2415696594612) rotate(0 -455 6.666666666666629)"><path d="M-883.57 3.07 C-892.55 5.11, -900.86 10.03, -911.63 13.69 M-883.57 3.07 C-889.59 5.68, -896.56 7.48, -911.63 13.69" stroke="#1e1e1e" stroke-width="1" fill="none"></path></g><g transform="translate(6587.4062401496885 1036.2415696594612) rotate(0 -455 6.666666666666629)"><path d="M-883.31 23.59 C-892.42 19.77, -900.79 18.83, -911.63 13.69 M-883.31 23.59 C-889.52 21.56, -896.54 18.72, -911.63 13.69" stroke="#1e1e1e" stroke-width="1" fill="none"></path></g></g><mask id="mask-61xD8hYng8YDirpgWiUej"><rect x="0" y="0" fill="#fff" width="7597.4062401496885" height="1149.5749029927945"></rect><rect x="6038.8437401496885" y="1030.4082363261277" fill="#000" width="187.125" height="25" opacity="1"></rect></mask><g transform="translate(6038.8437401496885 1030.4082363261277) rotate(0 93.04753886967 12.380972080309903)"><text x="93.5625" y="0" font-family="Virgil, Segoe UI Emoji" font-size="20px" fill="#1e1e1e" text-anchor="middle" style="white-space: pre;" direction="ltr" dominant-baseline="text-before-edge">create log request</text></g><g mask="url(#mask-k9gXZj4ViRObIAWdsYkOS)" stroke-linecap="round"><g transform="translate(6824.072906816356 912.9082363261277) rotate(0 -1140 -293.33333333333326)"><path d="M-0.81 0.16 C-61.25 -90.47, 16.53 -446.55, -363.41 -544.51 C-743.35 -642.47, -1961.13 -580.47, -2280.43 -587.62 M0.97 -0.8 C-59.57 -91.27, 16 -445.92, -364.4 -543.59 C-744.8 -641.26, -1962.4 -579.62, -2281.42 -586.81" stroke="#1e1e1e" stroke-width="1" fill="none"></path></g><g transform="translate(6824.072906816356 912.9082363261277) rotate(0 -1140 -293.33333333333326)"><path d="M-2253.36 -597.42 C-2259.83 -595.21, -2268.73 -593.27, -2281.42 -586.81 M-2253.36 -597.42 C-2259.59 -595.26, -2266.19 -593.5, -2281.42 -586.81" stroke="#1e1e1e" stroke-width="1" fill="none"></path></g><g transform="translate(6824.072906816356 912.9082363261277) rotate(0 -1140 -293.33333333333326)"><path d="M-2253.1 -576.9 C-2259.52 -579.58, -2268.48 -582.52, -2281.42 -586.81 M-2253.1 -576.9 C-2259.53 -579.26, -2266.18 -582.02, -2281.42 -586.81" stroke="#1e1e1e" stroke-width="1" fill="none"></path></g></g><mask id="mask-k9gXZj4ViRObIAWdsYkOS"><rect x="0" y="0" fill="#fff" width="9204.072906816356" height="1599.5749029927943"></rect><rect x="6346.5555106787415" y="357.0749029927945" fill="#000" width="228.36812560856345" height="25" opacity="1"></rect></mask><g transform="translate(6346.5555106787415 357.0749029927945) rotate(0 -662.7064399848105 255.6810266101221)"><text x="114.18406280428172" y="0" font-family="Virgil, Segoe UI Emoji" font-size="20px" fill="#1e1e1e" text-anchor="middle" style="white-space: pre;" direction="ltr" dominant-baseline="text-before-edge">read log by request Id</text></g><g mask="url(#mask-EcQOms_BIlgC96jUXtCXC)" stroke-linecap="round"><g transform="translate(4860.7395734830225 1736.241569659461) rotate(0 991.666666666667 -296.66666666666674)"><path d="M0.78 -1.09 C210.13 -14.19, 925.98 19.41, 1256.58 -79.35 C1587.17 -178.12, 1863.09 -507.84, 1984.34 -593.68 M-0.28 0.96 C208.87 -12.43, 924.85 17.78, 1255.58 -81.14 C1586.31 -180.05, 1862.58 -507.09, 1984.11 -592.54" stroke="#1e1e1e" stroke-width="1" fill="none"></path></g><g transform="translate(4860.7395734830225 1736.241569659461) rotate(0 991.666666666667 -296.66666666666674)"><path d="M1969.6 -566.28 C1972.87 -575.42, 1980.67 -582.5, 1984.11 -592.54 M1969.6 -566.28 C1972.67 -572.6, 1977.2 -580.05, 1984.11 -592.54" stroke="#1e1e1e" stroke-width="1" fill="none"></path></g><g transform="translate(4860.7395734830225 1736.241569659461) rotate(0 991.666666666667 -296.66666666666674)"><path d="M1956.11 -581.74 C1963.86 -585.73, 1976.23 -587.56, 1984.11 -592.54 M1956.11 -581.74 C1962.93 -583.76, 1971.13 -587.01, 1984.11 -592.54" stroke="#1e1e1e" stroke-width="1" fill="none"></path></g></g><mask id="mask-EcQOms_BIlgC96jUXtCXC"><rect x="0" y="0" fill="#fff" width="6944.072906816356" height="2429.5749029927947"></rect><rect x="6043.036577340317" y="1643.741569659461" fill="#000" width="148.7393256187439" height="25" opacity="1"></rect></mask><g transform="translate(6043.036577340317 1643.741569659461) rotate(0 -190.26438748032297 -203.85820054130795)"><text x="74.36966280937195" y="0" font-family="Virgil, Segoe UI Emoji" font-size="20px" fill="#1e1e1e" text-anchor="middle" style="white-space: pre;" direction="ltr" dominant-baseline="text-before-edge">notify complete</text></g><g stroke-linecap="round"><g transform="translate(3797.0083638216565 1531.9525439651704) rotate(269.83845249062614 42.12165343223569 183.26263481681886)" fill-rule="evenodd"><path d="M-0.96 -1.33 L83.49 -1.5 L84.97 328.41 L40.1 368.71 L2.7 327.43 L0.61 -1.79" stroke="none" stroke-width="0" fill="#eeeeee" fill-rule="evenodd"></path><path d="M0 0 C28.99 -0.82, 56.14 0.69, 84.24 -0.32 M0 0 C29.27 0.23, 58.44 0.91, 84.24 -0.32 M84.24 -0.32 C82.07 88.97, 82.12 176.68, 83.52 330.19 M84.24 -0.32 C84.34 110.26, 84.06 222.17, 83.52 330.19 M83.52 330.19 C74.32 338.54, 64.3 348.69, 40.51 366.85 M83.52 330.19 C72.59 339.44, 59.87 348.92, 40.51 366.85 M40.51 366.85 C29.88 358.23, 21.28 349.73, 1.32 328.16 M40.51 366.85 C25.49 351.62, 10.56 335.62, 1.32 328.16 M1.32 328.16 C-0.04 236.05, 1.45 144, 0 0 M1.32 328.16 C-0.72 227.44, -0.79 126.86, 0 0 M0 0 C0 0, 0 0, 0 0 M0 0 C0 0, 0 0, 0 0" stroke="#000000" stroke-width="1" fill="none"></path></g></g><mask></mask><g stroke-linecap="round" transform="translate(3668.107842732823 1698.2800336552802) rotate(0 34.26815671509439 22.777038295661626)"><path d="M0.08 -0.78 L68.26 1.95 L68.06 45.69 L0.96 44.73" stroke="none" stroke-width="0" fill="#868e96"></path><path d="M0 0 C21.48 1.32, 46.23 -0.82, 68.54 0 M0 0 C18.15 0.77, 34.07 -0.44, 68.54 0 M68.54 0 C67.32 10.3, 68.97 21.95, 68.54 45.55 M68.54 0 C67.7 14.1, 67.49 27.46, 68.54 45.55 M68.54 45.55 C41.24 47.45, 13.98 46.36, 0 45.55 M68.54 45.55 C50.5 44.46, 33.14 44.98, 0 45.55 M0 45.55 C-0.37 36.61, 2.21 23.2, 0 0 M0 45.55 C0.62 28.55, -0.28 13.6, 0 0" stroke="#000000" stroke-width="1" fill="none"></path></g><g stroke-linecap="round"><g transform="translate(3704.188602000687 1720.6062749491425) rotate(0 -0.8500000233098035 -10.760009474737046)" fill-rule="evenodd"><path d="M-0.28 1.95 L32.03 -21.38 L-33.25 -22.08 L-1.62 -0.09" stroke="none" stroke-width="0" fill="#ced4da" fill-rule="evenodd"></path><path d="M0 0 C9.98 -7.14, 17.21 -11.09, 32.51 -21.52 M0 0 C9 -7.03, 18.19 -13.49, 32.51 -21.52 M32.51 -21.52 C9.93 -20.92, -14.11 -22.54, -34.21 -21.26 M32.51 -21.52 C16.63 -20.97, 3.27 -20.99, -34.21 -21.26 M-34.21 -21.26 C-24.82 -14.5, -15.09 -8.13, 0 0 M-34.21 -21.26 C-26.14 -15.78, -17.39 -10.72, 0 0 M0 0 C0 0, 0 0, 0 0 M0 0 C0 0, 0 0, 0 0" stroke="#000000" stroke-width="1" fill="none"></path></g></g><mask></mask><g stroke-linecap="round"><g transform="translate(3813.3109671850398 1724.5164550829331) rotate(0 43.0585570808812 -0.7976788794437795)"><path d="M0 0 C29.88 0.9, 61.6 1.18, 86.12 -1.6" stroke="#000000" stroke-width="1.5" fill="none" stroke-dasharray="1.5 7"></path></g></g><mask></mask><g stroke-linecap="round" transform="translate(3750.0332799107337 1698.6745381681726) rotate(0 34.26815671509439 22.777038295661626)"><path d="M0.96 -0.82 L66.91 -0.09 L67.9 45.79 L1.1 46.32" stroke="none" stroke-width="0" fill="#868e96"></path><path d="M0 0 C17.1 1.55, 35.9 -1, 68.54 0 M0 0 C17.69 -0.02, 34.22 0.8, 68.54 0 M68.54 0 C67.06 13.92, 69.45 28.61, 68.54 45.55 M68.54 0 C68.9 14.32, 69.93 28.66, 68.54 45.55 M68.54 45.55 C44.22 44.6, 19.98 44.65, 0 45.55 M68.54 45.55 C50.33 44.73, 32.05 46.02, 0 45.55 M0 45.55 C-0.6 36.32, -2.1 23.86, 0 0 M0 45.55 C-0.16 31.92, -0.26 16.42, 0 0" stroke="#000000" stroke-width="1" fill="none"></path></g><g stroke-linecap="round"><g transform="translate(3786.1688834787037 1719.4068562962482) rotate(0 -0.8500000233098035 -10.760009474737046)" fill-rule="evenodd"><path d="M-1.62 -0.09 L31.87 -21.28 L-33.11 -20.49 L-1.21 -1.58" stroke="none" stroke-width="0" fill="#ced4da" fill-rule="evenodd"></path><path d="M0 0 C12.92 -8.54, 21.97 -16.81, 32.51 -21.52 M0 0 C7.38 -4.56, 15.53 -10, 32.51 -21.52 M32.51 -21.52 C17.05 -23.44, 0.1 -19.92, -34.21 -21.26 M32.51 -21.52 C12.76 -21.86, -8.5 -21.93, -34.21 -21.26 M-34.21 -21.26 C-23.98 -14.86, -10.98 -7.58, 0 0 M-34.21 -21.26 C-25.48 -15.31, -19.07 -10.85, 0 0 M0 0 C0 0, 0 0, 0 0 M0 0 C0 0, 0 0, 0 0" stroke="#000000" stroke-width="1" fill="none"></path></g></g><mask></mask><g stroke-linecap="round" transform="translate(3897.051961716332 1697.09652011659) rotate(0 34.26815671509439 22.777038295661626)"><path d="M-0.64 0.24 L69.64 0.76 L67.32 43.98 L1.96 45.65" stroke="none" stroke-width="0" fill="#868e96"></path><path d="M0 0 C26.12 -1.1, 52.92 1.2, 68.54 0 M0 0 C17.7 -0.25, 34.22 -0.99, 68.54 0 M68.54 0 C69.11 12.84, 68.96 21.8, 68.54 45.55 M68.54 0 C69.4 12.45, 69.47 25.4, 68.54 45.55 M68.54 45.55 C51.85 43.75, 34.87 45.99, 0 45.55 M68.54 45.55 C49.67 46.73, 32.31 46.02, 0 45.55 M0 45.55 C0.83 28.76, -0.35 11.53, 0 0 M0 45.55 C0.59 27.05, -0.7 9.31, 0 0" stroke="#000000" stroke-width="1" fill="none"></path></g><g stroke-linecap="round"><g transform="translate(3934.571272843841 1716.8472889405239) rotate(0 -0.8500000233098035 -10.760009474737046)" fill-rule="evenodd"><path d="M1.1 0.76 L31.29 -23.1 L-32.25 -21.16 L-1.08 0.23" stroke="none" stroke-width="0" fill="#ced4da" fill-rule="evenodd"></path><path d="M0 0 C7.54 -4.57, 16.61 -11.68, 32.51 -21.52 M0 0 C10.31 -7.97, 21.19 -14, 32.51 -21.52 M32.51 -21.52 C18.02 -20.97, 2.77 -18.84, -34.21 -21.26 M32.51 -21.52 C15.04 -22.18, -4.06 -22.5, -34.21 -21.26 M-34.21 -21.26 C-27.53 -15.1, -18.67 -9.33, 0 0 M-34.21 -21.26 C-20.68 -13.23, -6.66 -5.6, 0 0 M0 0 C0 0, 0 0, 0 0 M0 0 C0 0, 0 0, 0 0" stroke="#000000" stroke-width="1" fill="none"></path></g></g><mask></mask><g transform="translate(3643.371498257256 1757.237557414103) rotate(0 194.27349853515648 34.74248110664098)"><text x="194.27349853515625" y="0" font-family="Virgil, Segoe UI Emoji" font-size="51.47034238020881px" fill="#000000" text-anchor="middle" style="white-space: pre;" direction="ltr" dominant-baseline="text-before-edge">Message Queue</text></g><g mask="url(#mask-3M1Jth8Oi2qtwFXSVMsaR)" stroke-linecap="round"><g transform="translate(3826.5729068163555 1214.5749029927933) rotate(0 3.75 225)"><path d="M-0.32 -0.52 C0.81 74.63, 5.99 375.77, 7.27 450.87 M1.72 1.82 C2.62 76.64, 5.41 374.26, 6.21 449.21" stroke="#1e1e1e" stroke-width="1" fill="none"></path></g><g transform="translate(3826.5729068163555 1214.5749029927933) rotate(0 3.75 225)"><path d="M-4.33 421.12 C-1.57 430.47, 4.4 440.32, 6.21 449.21 M-4.33 421.12 C-0.85 430.16, 2.64 438.07, 6.21 449.21" stroke="#1e1e1e" stroke-width="1" fill="none"></path></g><g transform="translate(3826.5729068163555 1214.5749029927933) rotate(0 3.75 225)"><path d="M16.19 420.91 C11.86 430.28, 10.74 440.2, 6.21 449.21 M16.19 420.91 C13.33 430.08, 10.49 438.06, 6.21 449.21" stroke="#1e1e1e" stroke-width="1" fill="none"></path></g></g><mask id="mask-3M1Jth8Oi2qtwFXSVMsaR"><rect x="0" y="0" fill="#fff" width="3934.0729068163555" height="1764.5749029927933"></rect><rect x="3760.7979052904766" y="1427.0749029927933" fill="#000" width="139.0500030517578" height="25" opacity="1"></rect></mask><g transform="translate(3760.7979052904766 1427.0749029927933) rotate(0 69.25410958006978 12.674883847683645)"><text x="69.5250015258789" y="0" font-family="Virgil, Segoe UI Emoji" font-size="20px" fill="#1e1e1e" text-anchor="middle" style="white-space: pre;" direction="ltr" dominant-baseline="text-before-edge">complete sight</text></g><g stroke-linecap="round"><g transform="translate(4024.0729068163555 1717.0749029927933) rotate(0 233.75 0)"><path d="M-1.19 1.11 C76.92 0.81, 390.16 -0.64, 468.46 -0.75 M0.39 0.65 C78.44 1.01, 390.01 0.77, 468.01 0.4" stroke="#1e1e1e" stroke-width="1" fill="none"></path></g><g transform="translate(4024.0729068163555 1717.0749029927933) rotate(0 233.75 0)"><path d="M439.85 10.73 C449.68 9.64, 454.66 6.91, 468.01 0.4 M439.85 10.73 C449.73 7.18, 459.92 2.6, 468.01 0.4" stroke="#1e1e1e" stroke-width="1" fill="none"></path></g><g transform="translate(4024.0729068163555 1717.0749029927933) rotate(0 233.75 0)"><path d="M439.8 -9.8 C449.83 -5, 454.82 -1.84, 468.01 0.4 M439.8 -9.8 C449.86 -6.34, 460.06 -3.92, 468.01 0.4" stroke="#1e1e1e" stroke-width="1" fill="none"></path></g></g><mask></mask><g stroke-linecap="round"><g transform="translate(4595.629818910683 927.26650297268) rotate(0 73.89242082913461 80.25087549723872)" fill-rule="evenodd"><path d="M-0.88 1.07 C-0.9 25.28, -1.22 116.5, -0.82 143.01 C-0.41 169.52, -0.04 155.88, 1.56 160.15 C3.17 164.42, 3.75 166.43, 8.8 168.64 C13.84 170.84, 20.15 171.93, 31.85 173.37 C43.55 174.81, 64.28 177.68, 78.97 177.27 C93.66 176.86, 109.07 172.74, 120.01 170.91 C130.94 169.08, 140.23 167.89, 144.58 166.28 C148.93 164.68, 145.87 164.59, 146.1 161.29 C146.32 157.99, 145.33 171.09, 145.92 146.49 C146.51 121.88, 149.36 38.32, 149.63 13.67 C149.9 -10.98, 149.31 2.37, 147.54 -1.4 C145.78 -5.18, 144.4 -7.12, 139.03 -8.98 C133.66 -10.83, 126.64 -11.27, 115.33 -12.52 C104.02 -13.77, 84.48 -16.24, 71.17 -16.48 C57.86 -16.73, 46.11 -16.08, 35.47 -13.99 C24.83 -11.9, 13.27 -6.25, 7.35 -3.94 C1.43 -1.63, 0.97 -0.73, -0.06 -0.12 C-1.1 0.48, 1.03 -0.34, 1.14 -0.32" stroke="none" stroke-width="0" fill="#ced4da" fill-rule="evenodd"></path><path d="M0.09 0.33 C0.28 24.6, -0.09 117.94, 0.02 144.74 C0.14 171.53, -0.68 157.17, 0.77 161.12 C2.22 165.07, 3.18 166.13, 8.73 168.43 C14.28 170.73, 22.43 173.82, 34.06 174.92 C45.7 176.01, 64.05 175.37, 78.53 174.99 C93.02 174.61, 109.9 174.07, 120.97 172.64 C132.04 171.2, 140.7 168.52, 144.95 166.39 C149.21 164.25, 146.15 163.21, 146.52 159.84 C146.89 156.47, 147.09 170.86, 147.19 146.15 C147.29 121.43, 147.23 35.94, 147.12 11.55 C147.02 -12.83, 148.19 2.95, 146.53 -0.16 C144.87 -3.26, 142.26 -5.05, 137.18 -7.08 C132.11 -9.11, 127.02 -11.1, 116.08 -12.33 C105.13 -13.57, 85.01 -14.47, 71.48 -14.48 C57.95 -14.49, 45.8 -13.87, 34.9 -12.41 C23.99 -10.95, 11.74 -7.94, 6.04 -5.73 C0.33 -3.52, 1.57 0.08, 0.67 0.86 C-0.23 1.64, 0.87 -0.74, 0.63 -1.07 M-1.33 -0.54 C-1.23 23.44, -1.45 116.25, -1.17 142.83 C-0.88 169.42, -0.78 155.08, 0.4 158.97 C1.58 162.86, 0.53 163.98, 5.9 166.18 C11.26 168.39, 20.27 170.37, 32.59 172.21 C44.91 174.05, 65.02 177.38, 79.81 177.22 C94.6 177.06, 110.57 173.03, 121.33 171.24 C132.08 169.45, 139.87 168.57, 144.32 166.46 C148.77 164.35, 147.49 162.08, 148.04 158.6 C148.58 155.12, 147.73 169.99, 147.6 145.59 C147.47 121.2, 147.67 36.57, 147.24 12.24 C146.81 -12.08, 146.66 2.95, 145.02 -0.36 C143.38 -3.67, 141.82 -5.52, 137.39 -7.6 C132.96 -9.67, 129.38 -11.64, 118.43 -12.82 C107.49 -13.99, 85.51 -14.38, 71.74 -14.65 C57.97 -14.92, 47.02 -16.07, 35.84 -14.42 C24.65 -12.77, 10.64 -7.44, 4.63 -4.74 C-1.38 -2.05, 0.62 1.16, -0.22 1.73 C-1.06 2.29, -0.35 -1.11, -0.43 -1.37" stroke="#000000" stroke-width="1" fill="none"></path></g></g><mask></mask><g stroke-linecap="round" transform="translate(4594.681281419137 910.4139682994248) rotate(0 73.49794197082929 14.864405815878683)"><path d="M80.32 0.05 C92.06 0.04, 105.32 1.65, 115.23 3.1 C125.14 4.54, 134.51 6.65, 139.77 8.72 C145.02 10.8, 147.64 12.95, 146.74 15.54 C145.84 18.12, 141.34 21.99, 134.36 24.21 C127.39 26.43, 115.96 27.83, 104.89 28.85 C93.83 29.87, 80 30.57, 67.95 30.34 C55.89 30.12, 42.77 28.9, 32.57 27.51 C22.38 26.12, 12.01 24.43, 6.77 22.01 C1.52 19.59, 0.03 15.75, 1.08 13 C2.13 10.25, 6.08 7.55, 13.05 5.49 C20.01 3.43, 31.22 1.53, 42.87 0.64 C54.52 -0.25, 75.32 0.23, 82.96 0.14 C90.61 0.05, 88.7 -0.23, 88.75 0.12 M51 1.08 C61.72 0.19, 75.59 -0.51, 87.42 -0.08 C99.25 0.36, 112.73 1.91, 122 3.69 C131.27 5.48, 139.26 8.27, 143.02 10.64 C146.79 13.02, 146.87 15.48, 144.59 17.93 C142.31 20.39, 137.13 23.32, 129.32 25.37 C121.52 27.43, 109.76 29.8, 97.76 30.27 C85.77 30.74, 69.59 28.98, 57.36 28.19 C45.13 27.4, 33.2 27.09, 24.39 25.54 C15.57 23.99, 8.48 20.99, 4.47 18.9 C0.46 16.82, -1.85 15.24, 0.32 13.04 C2.5 10.85, 9.15 8, 17.51 5.75 C25.87 3.5, 44.98 0.13, 50.47 -0.46 C55.96 -1.04, 50.04 1.55, 50.46 2.22" stroke="none" stroke-width="0" fill="#fff"></path><path d="M96.58 0.71 C108.08 1.04, 120.9 2.92, 128.92 4.69 C136.95 6.45, 142.35 8.73, 144.75 11.3 C147.15 13.86, 146.91 17.74, 143.35 20.05 C139.8 22.36, 132.47 23.68, 123.43 25.15 C114.39 26.61, 101.24 28.24, 89.12 28.83 C77.01 29.42, 62.51 29.38, 50.74 28.69 C38.97 27.99, 26.62 26.46, 18.49 24.67 C10.37 22.89, 4.39 20.5, 1.98 17.95 C-0.43 15.39, 0.42 11.72, 4.05 9.35 C7.68 6.97, 14.65 5.24, 23.76 3.72 C32.87 2.19, 45.28 0.62, 58.72 0.18 C72.15 -0.26, 95.72 0.61, 104.38 1.07 C113.04 1.54, 111.13 2.61, 110.66 2.97 M41.51 0.07 C51.64 -0.79, 66.66 0.41, 78.81 0.71 C90.96 1, 104.06 0.59, 114.4 1.82 C124.73 3.06, 135.3 5.66, 140.82 8.12 C146.33 10.57, 148.84 14.05, 147.48 16.53 C146.12 19.01, 139.71 20.88, 132.66 23 C125.61 25.12, 116.16 28.31, 105.17 29.24 C94.18 30.16, 78.92 28.85, 66.72 28.56 C54.53 28.28, 42.09 28.57, 32.02 27.53 C21.95 26.48, 11.81 24.59, 6.32 22.3 C0.82 20.01, -2.28 16.25, -0.96 13.77 C0.37 11.28, 7.04 9.53, 14.27 7.39 C21.51 5.25, 37.54 2.01, 42.44 0.93 C47.34 -0.15, 43.42 0.67, 43.67 0.91" stroke="#000000" stroke-width="1" fill="none"></path></g><g transform="translate(4631.193000700637 977.0617874786658) rotate(0 16.447265625 34.58535650055444)"><text x="0" y="0" font-family="Cascadia, Segoe UI Emoji" font-size="56.14247523940168px" fill="#495057" text-anchor="start" style="white-space: pre;" direction="ltr" dominant-baseline="text-before-edge">{</text></g><g transform="translate(4673.484884120146 977.9777421634542) rotate(0 16.5380859375 34.531905979728606)"><text x="0" y="0" font-family="Cascadia, Segoe UI Emoji" font-size="56.459664365048px" fill="#495057" text-anchor="start" style="white-space: pre;" direction="ltr" dominant-baseline="text-before-edge">}</text></g><g transform="translate(4564.385498369089 1104.0708516154675) rotate(0 104.68740844726562 24.849762195413916)"><text x="104.68740844726562" y="0" font-family="Virgil, Segoe UI Emoji" font-size="34.899714951911896px" fill="#000000" text-anchor="middle" style="white-space: pre;" direction="ltr" dominant-baseline="text-before-edge">Request DB</text></g><g stroke-linecap="round"><g transform="translate(5317.4062401496885 1017.0749029927938) rotate(0 -285 -3.3333333333333712)"><path d="M-0.57 -1.04 C-95.57 -1.89, -474.14 -5.28, -568.99 -6.21 M1.34 1.03 C-93.83 -0.09, -474.14 -7.04, -569.41 -8.1" stroke="#1e1e1e" stroke-width="1" fill="none"></path></g><g transform="translate(5317.4062401496885 1017.0749029927938) rotate(0 -285 -3.3333333333333712)"><path d="M-541.07 -17.93 C-553.85 -12.58, -562.34 -9.91, -569.41 -8.1 M-541.07 -17.93 C-549.94 -15.04, -558.89 -12.56, -569.41 -8.1" stroke="#1e1e1e" stroke-width="1" fill="none"></path></g><g transform="translate(5317.4062401496885 1017.0749029927938) rotate(0 -285 -3.3333333333333712)"><path d="M-541.38 2.59 C-553.86 0, -562.22 -5.27, -569.41 -8.1 M-541.38 2.59 C-550.24 -0.72, -559.09 -4.44, -569.41 -8.1" stroke="#1e1e1e" stroke-width="1" fill="none"></path></g></g><mask></mask><g mask="url(#mask-Sf8sJxQN93QWVj4-48aMn)" stroke-linecap="round"><g transform="translate(4670.7395734830225 1533.7415696594605) rotate(0 -3.333333333333485 -193.33333333333337)"><path d="M0.88 -0.31 C-0.27 -65, -5.88 -323.55, -7.28 -387.78 M-0.11 -1.52 C-0.84 -66.14, -4.06 -322.5, -4.89 -386.83" stroke="#1e1e1e" stroke-width="1" fill="none"></path></g><g transform="translate(4670.7395734830225 1533.7415696594605) rotate(0 -3.333333333333485 -193.33333333333337)"><path d="M5.73 -358.77 C2.25 -367.31, -1.97 -375.34, -4.89 -386.83 M5.73 -358.77 C1.78 -369.76, -1.38 -379.87, -4.89 -386.83" stroke="#1e1e1e" stroke-width="1" fill="none"></path></g><g transform="translate(4670.7395734830225 1533.7415696594605) rotate(0 -3.333333333333485 -193.33333333333337)"><path d="M-14.79 -358.51 C-12.72 -367.27, -11.38 -375.37, -4.89 -386.83 M-14.79 -358.51 C-10.9 -369.71, -6.24 -379.93, -4.89 -386.83" stroke="#1e1e1e" stroke-width="1" fill="none"></path></g></g><mask id="mask-Sf8sJxQN93QWVj4-48aMn"><rect x="0" y="0" fill="#fff" width="4777.406240149689" height="2020.4082363261273"></rect><rect x="4578.5312401496885" y="1327.908236326127" fill="#000" width="177.75" height="25" opacity="1"></rect></mask><g transform="translate(4578.5312401496885 1327.9082363261273) rotate(0 89.0096499256797 11.786562449485075)"><text x="88.875" y="0" font-family="Virgil, Segoe UI Emoji" font-size="20px" fill="#1e1e1e" text-anchor="middle" style="white-space: pre;" direction="ltr" dominant-baseline="text-before-edge">get operator info.</text></g><g transform="translate(1510.739573483022 510.40823632612774) rotate(0 79.23992156982422 12.5)"><text x="0" y="0" font-family="Virgil, Segoe UI Emoji" font-size="20px" fill="#1e1e1e" text-anchor="start" style="white-space: pre;" direction="ltr" dominant-baseline="text-before-edge">publish log chunk</text></g><g transform="translate(1627.4062401496885 1530.4082363261277) rotate(0 79.23992156982422 12.5)"><text x="0" y="0" font-family="Virgil, Segoe UI Emoji" font-size="20px" fill="#1e1e1e" text-anchor="start" style="white-space: pre;" direction="ltr" dominant-baseline="text-before-edge">publish log chunk</text></g><g stroke-linecap="round"><g transform="translate(850 462.8202654189531) rotate(0 -170 0)"><path d="M-0.31 0.58 C-56.91 0.63, -283.28 0.98, -339.97 0.84" stroke="#1e1e1e" stroke-width="2.5" fill="none" stroke-dasharray="8 10"></path></g></g><mask></mask><g stroke-linecap="round" transform="translate(10 382.8202654189531) rotate(0 250 170)"><path d="M32 0 C181.23 1.72, 330.15 0.89, 468 0 M32 0 C120.43 0.81, 209.57 1.34, 468 0 M468 0 C491.15 1.05, 501.06 11.27, 500 32 M468 0 C489.89 1.61, 499.1 12.01, 500 32 M500 32 C502.05 96.05, 503.09 160.93, 500 308 M500 32 C501.9 112.87, 501.59 193.91, 500 308 M500 308 C498.51 330.35, 490.31 340.3, 468 340 M500 308 C498.21 329.9, 488.27 340.59, 468 340 M468 340 C327.52 340.43, 187.97 339.71, 32 340 M468 340 C371.36 340.25, 275.36 339.9, 32 340 M32 340 C9.05 339.45, 1.04 329.27, 0 308 M32 340 C9.86 338.45, -2.28 328.19, 0 308 M0 308 C0.81 217.77, -0.07 128.04, 0 32 M0 308 C0.5 248.75, -0.03 189.51, 0 32 M0 32 C1.43 12.38, 12.11 -0.82, 32 0 M0 32 C2.24 10.97, 8.64 -2.05, 32 0" stroke="#1e1e1e" stroke-width="1" fill="none"></path></g><g transform="translate(200.91004943847656 387.8202654189531) rotate(0 59.08995056152344 12.5)"><text x="59.08995056152344" y="0" font-family="Virgil, Segoe UI Emoji" font-size="20px" fill="#1e1e1e" text-anchor="middle" style="white-space: pre;" direction="ltr" dominant-baseline="text-before-edge">Edge Device</text></g><g stroke-linecap="round" transform="translate(90 442.8202654189531) rotate(0 170 50)"><path d="M25 0 C112.03 0.43, 197.03 1.08, 315 0 M25 0 C109.22 1.97, 194.59 0.9, 315 0 M315 0 C331.13 -1.58, 339.21 7.23, 340 25 M315 0 C331.44 1.81, 339.34 7.51, 340 25 M340 25 C341.11 41.09, 341.3 57.78, 340 75 M340 25 C338.69 36.45, 340.41 49.3, 340 75 M340 75 C340.2 92.64, 331.14 100.3, 315 100 M340 75 C338.09 89.68, 329.46 99.85, 315 100 M315 100 C206.09 98.38, 96.47 99.48, 25 100 M315 100 C241.52 99.29, 168.35 99.27, 25 100 M25 100 C8.47 100.08, -1.38 91.58, 0 75 M25 100 C10.55 98.62, 0.1 90.69, 0 75 M0 75 C1.11 59.56, -0.62 47.94, 0 25 M0 75 C-0.73 64.54, -0.87 52.62, 0 25 M0 25 C1.08 8.58, 8.57 -0.04, 25 0 M0 25 C0.48 7.81, 8.49 -2.12, 25 0" stroke="#1e1e1e" stroke-width="1" fill="none"></path></g><g transform="translate(190 482.8202654189531) rotate(0 81.13993072509766 12.5)"><text x="0" y="0" font-family="Virgil, Segoe UI Emoji" font-size="20px" fill="#1e1e1e" text-anchor="start" style="white-space: pre;" direction="ltr" dominant-baseline="text-before-edge">Edge device App.</text></g><g stroke-linecap="round" transform="translate(90 602.8202654189531) rotate(0 170 30)"><path d="M15 0 C81.69 -0.77, 147.82 -1.72, 325 0 M15 0 C125.44 -0.12, 235.92 0.08, 325 0 M325 0 C336.63 -0.05, 341.41 6.96, 340 15 M325 0 C335.84 -0.36, 339.04 7.22, 340 15 M340 15 C340.38 22.71, 340.95 33.73, 340 45 M340 15 C340.55 25.14, 340.07 34.14, 340 45 M340 45 C341.97 53.37, 335.03 58.37, 325 60 M340 45 C338.3 54.46, 334.83 58.89, 325 60 M325 60 C243.56 57.01, 160.81 56.61, 15 60 M325 60 C231.12 58.49, 138.25 57.9, 15 60 M15 60 C4.93 59.72, 1.69 55.02, 0 45 M15 60 C5.53 61.88, -0.92 54.36, 0 45 M0 45 C1.73 35.15, 0 22.89, 0 15 M0 45 C0.58 37.05, -0.33 28.34, 0 15 M0 15 C0.9 4.04, 4.26 1.95, 15 0 M0 15 C-0.59 6.7, 5.85 1.72, 15 0" stroke="#1e1e1e" stroke-width="1" fill="none"></path></g><g transform="translate(170 622.8202654189531) rotate(0 103.9299087524414 12.5)"><text x="0" y="0" font-family="Virgil, Segoe UI Emoji" font-size="20px" fill="#1e1e1e" text-anchor="start" style="white-space: pre;" direction="ltr" dominant-baseline="text-before-edge">Log Request receiver</text></g></svg>