<svg version="1.1" xmlns="http://www.w3.org/2000/svg" viewBox="0 0 570.7762756347656 589.4422552605095" width="570.7762756347656" height="589.4422552605095">
  <!-- svg-source:excalidraw -->
  
  <defs>
    <style class="style-fonts">
      @font-face {
        font-family: "Virgil";
        src: url("https://file%2B.vscode-resource.vscode-cdn.net/c%3A/Users/kan/.vscode/extensions/pomdtr.excalidraw-editor-3.7.4/public//dist/excalidraw-assets/Virgil.woff2");
      }
      @font-face {
        font-family: "Cascadia";
        src: url("https://file%2B.vscode-resource.vscode-cdn.net/c%3A/Users/kan/.vscode/extensions/pomdtr.excalidraw-editor-3.7.4/public//dist/excalidraw-assets/Cascadia.woff2");
      }
      @font-face {
        font-family: "Assistant";
        src: url("https://file%2B.vscode-resource.vscode-cdn.net/c%3A/Users/kan/.vscode/extensions/pomdtr.excalidraw-editor-3.7.4/public//dist/excalidraw-assets/Assistant-Regular.woff2");
      }
    </style>
    
  </defs>
  <rect x="0" y="0" width="570.7762756347656" height="589.4422552605095" fill="#ffffff"></rect><g stroke-linecap="round" transform="translate(41.512237548828125 47.79380301151767) rotate(0 231.71875 231.71875)"><path d="M300.04 11 C318.55 12.8, 336.99 24.71, 353.51 34.83 C370.03 44.95, 385.87 57.88, 399.18 71.72 C412.49 85.57, 424.06 101.29, 433.38 117.9 C442.69 134.5, 450.09 152.86, 455.05 171.34 C460.02 189.82, 463.01 209.56, 463.17 228.76 C463.33 247.95, 460.46 267.7, 456.03 286.52 C451.59 305.35, 445.31 324.62, 436.56 341.68 C427.81 358.74, 416.5 374.93, 403.54 388.89 C390.57 402.84, 374.99 414.88, 358.76 425.4 C342.53 435.92, 324.47 445.92, 306.16 452.01 C287.85 458.1, 268.19 460.66, 248.88 461.94 C229.58 463.21, 209.28 463.03, 190.33 459.68 C171.37 456.32, 152.49 449.8, 135.16 441.81 C117.84 433.82, 101.19 423.65, 86.38 411.73 C71.56 399.82, 57.74 385.51, 46.27 370.33 C34.8 355.14, 24.86 338.28, 17.55 320.6 C10.24 302.93, 5.05 283.33, 2.38 264.29 C-0.28 245.26, -0.65 225.49, 1.56 206.38 C3.78 187.28, 8.88 167.85, 15.68 149.65 C22.49 131.45, 31.39 112.97, 42.39 97.18 C53.39 81.39, 66.87 67.08, 81.68 54.9 C96.5 42.72, 113.89 32.58, 131.28 24.12 C148.67 15.66, 167.35 8.01, 186.02 4.12 C204.69 0.23, 222.94 -0.83, 243.29 0.77 C263.64 2.37, 296.48 10.49, 308.13 13.72 C319.79 16.94, 314.34 16.61, 313.23 20.1 M267.08 2.99 C285.96 2.21, 307.42 11.18, 325.34 19.01 C343.27 26.84, 359.46 38.03, 374.61 49.95 C389.76 61.88, 404.78 75.55, 416.25 90.58 C427.72 105.61, 436.08 122.68, 443.45 140.14 C450.82 157.6, 457.23 176.62, 460.48 195.36 C463.74 214.09, 464.54 233.49, 462.97 252.56 C461.4 271.62, 457.46 291.39, 451.04 309.74 C444.63 328.1, 435.7 346.47, 424.5 362.68 C413.31 378.89, 398.39 394.57, 383.88 407.02 C369.37 419.46, 354.55 428.81, 337.44 437.36 C320.33 445.92, 300.14 454.14, 281.2 458.33 C262.27 462.52, 242.94 463.33, 223.83 462.53 C204.72 461.73, 185.01 459, 166.55 453.54 C148.09 448.08, 129.59 439.48, 113.07 429.79 C96.56 420.11, 80.96 408.71, 67.46 395.41 C53.96 382.12, 41.9 366.51, 32.06 350.01 C22.23 333.51, 13.56 314.85, 8.45 296.39 C3.34 277.94, 1.98 258.52, 1.4 239.29 C0.81 220.06, 1.09 199.88, 4.93 181 C8.76 162.12, 15.78 142.9, 24.39 126.03 C33.01 109.16, 43.5 93.92, 56.63 79.76 C69.75 65.61, 87.01 52.2, 103.14 41.1 C119.26 30, 135.56 19.68, 153.38 13.16 C171.19 6.65, 190.7 3.63, 210.02 2 C229.35 0.37, 259.5 2.39, 269.32 3.37 C279.14 4.34, 269.59 4.05, 268.93 7.87" stroke="#1e1e1e" stroke-width="2" fill="none"></path></g><g stroke-linecap="round" transform="translate(224.16864013671875 19.89453390751376) rotate(0 28.498321533203125 28.498321533203125)"><path d="M19.65 1.61 C25.04 -0.6, 33.82 -0.99, 39.4 1.29 C44.99 3.57, 50.33 9.94, 53.16 15.28 C56 20.61, 57.39 27.31, 56.4 33.3 C55.42 39.28, 51.91 47.09, 47.25 51.18 C42.58 55.27, 34.57 58.09, 28.41 57.83 C22.25 57.57, 14.99 53.83, 10.26 49.64 C5.54 45.44, 1.24 38.62, 0.07 32.65 C-1.1 26.68, -0.1 19.01, 3.24 13.82 C6.57 8.63, 17 3.47, 20.07 1.49 C23.14 -0.49, 21.47 1.41, 21.68 1.93 M22.44 1.94 C27.84 -0.03, 34.19 0.38, 39.66 3.09 C45.13 5.79, 52.56 12.64, 55.25 18.17 C57.94 23.69, 57.69 30.79, 55.82 36.25 C53.95 41.72, 49.17 47.4, 44.05 50.94 C38.93 54.48, 31.07 57.79, 25.11 57.49 C19.16 57.19, 12.32 53.89, 8.3 49.15 C4.29 44.41, 1.39 35.54, 1 29.06 C0.61 22.58, 2.68 14.82, 5.98 10.26 C9.27 5.7, 18.3 3.16, 20.76 1.68 C23.22 0.21, 20.56 1.31, 20.72 1.41" stroke="none" stroke-width="0" fill="#ffc9c9"></path><path d="M26.51 -0.01 C32.24 -0.7, 40.95 1.39, 45.81 4.94 C50.67 8.49, 54.45 15.29, 55.67 21.3 C56.9 27.31, 55.83 35.43, 53.14 41 C50.44 46.57, 45.18 52.4, 39.51 54.71 C33.84 57.03, 24.8 56.77, 19.13 54.88 C13.45 52.99, 8.63 48.45, 5.46 43.37 C2.29 38.29, -0.43 30.5, 0.1 24.4 C0.62 18.3, 3.7 10.77, 8.62 6.76 C13.54 2.76, 25.57 1.45, 29.61 0.38 C33.66 -0.68, 32.88 -0.13, 32.9 0.37 M20.78 1.16 C26.6 -0.45, 36.31 -0.13, 42.01 2.39 C47.72 4.9, 52.55 10.47, 55.03 16.26 C57.51 22.06, 58.68 30.95, 56.89 37.16 C55.09 43.38, 49.78 50.23, 44.26 53.57 C38.75 56.91, 29.89 58.08, 23.79 57.2 C17.69 56.33, 11.36 52.93, 7.65 48.33 C3.94 43.73, 1.98 35.65, 1.53 29.59 C1.08 23.53, 1.42 16.79, 4.93 11.98 C8.45 7.18, 19.99 2.68, 22.63 0.78 C25.28 -1.12, 20.78 0.07, 20.81 0.58" stroke="#1e1e1e" stroke-width="2" fill="none"></path></g><g transform="translate(243.365611364875 35.74149903215435) rotate(0 9.149993896484375 12.5)"><text x="9.149993896484375" y="0" font-family="Virgil, Segoe UI Emoji" font-size="20px" fill="#1e1e1e" text-anchor="middle" style="white-space: pre;" direction="ltr" dominant-baseline="text-before-edge">N1</text></g><g stroke-linecap="round" transform="translate(464.5555725097656 191.94831350956454) rotate(0 28.498321533203125 24.5)"><path d="M16.96 2.76 C21.95 0.54, 29.33 0.46, 35.11 1.69 C40.88 2.92, 47.9 6.09, 51.6 10.13 C55.31 14.17, 57.89 20.58, 57.31 25.93 C56.74 31.28, 52.46 38.26, 48.16 42.26 C43.86 46.25, 37.59 49.38, 31.5 49.88 C25.4 50.38, 16.67 48.43, 11.56 45.26 C6.46 42.09, 2.25 35.91, 0.89 30.87 C-0.47 25.83, 0.39 20, 3.41 15 C6.43 10, 16.16 3.06, 19.04 0.85 C21.92 -1.36, 20.55 1.16, 20.69 1.72 M34.94 1.18 C40.66 1.94, 49.4 4.91, 52.89 9.26 C56.39 13.61, 56.75 21.99, 55.92 27.28 C55.1 32.57, 52.21 37.58, 47.95 41.02 C43.69 44.45, 36.14 47.37, 30.37 47.9 C24.6 48.43, 18.22 46.93, 13.35 44.2 C8.47 41.46, 2.68 36.43, 1.11 31.49 C-0.46 26.54, 1.49 19.25, 3.94 14.54 C6.39 9.83, 10.31 5.36, 15.82 3.22 C21.32 1.09, 33.8 1.98, 36.96 1.71 C40.12 1.45, 35.08 1.45, 34.79 1.63" stroke="none" stroke-width="0" fill="#b2f2bb"></path><path d="M20.07 0.78 C25.6 -1.11, 34.2 -0.77, 39.73 1.29 C45.26 3.36, 50.4 8.32, 53.24 13.17 C56.07 18.03, 57.81 25.3, 56.74 30.42 C55.68 35.54, 51.56 40.68, 46.85 43.9 C42.14 47.12, 34.64 49.86, 28.48 49.75 C22.32 49.64, 14.66 46.75, 9.89 43.23 C5.12 39.7, 0.67 34.05, -0.15 28.61 C-0.98 23.18, 1.36 15.17, 4.93 10.61 C8.49 6.05, 18.09 2.85, 21.21 1.26 C24.33 -0.34, 23.43 0.8, 23.65 1.03 M29.78 0.69 C35.79 0.47, 44.5 3.07, 49.25 6.5 C54.01 9.93, 58.13 15.99, 58.31 21.25 C58.48 26.5, 54.09 33.7, 50.31 38.02 C46.52 42.35, 41.07 45.57, 35.59 47.2 C30.12 48.84, 23.1 50.1, 17.45 47.83 C11.81 45.57, 4.69 38.51, 1.73 33.6 C-1.22 28.68, -1.87 23.05, -0.28 18.34 C1.32 13.62, 5.97 8.3, 11.28 5.31 C16.6 2.32, 28.29 1.07, 31.62 0.42 C34.96 -0.24, 31.61 0.9, 31.27 1.35" stroke="#1e1e1e" stroke-width="2" fill="none"></path></g><g transform="translate(479.34254770520704 204.1241973704941) rotate(0 13.559989929199219 12.5)"><text x="13.559989929199219" y="0" font-family="Virgil, Segoe UI Emoji" font-size="20px" fill="#1e1e1e" text-anchor="middle" style="white-space: pre;" direction="ltr" dominant-baseline="text-before-edge">N2</text></g><g stroke-linecap="round" transform="translate(399.2257995605469 429.7295787683536) rotate(0 28.498321533203125 28.498321533203125)"><path d="M30.79 -0.11 C36.64 -0.24, 43.27 3.76, 47.75 7.92 C52.23 12.07, 56.95 18.7, 57.66 24.81 C58.38 30.92, 55.52 39.37, 52.05 44.57 C48.57 49.77, 42.49 54.42, 36.8 56 C31.12 57.57, 23.59 56.44, 17.93 54.04 C12.27 51.64, 5.69 46.86, 2.85 41.61 C0.01 36.36, -0.46 28.49, 0.89 22.54 C2.23 16.58, 4.98 9.26, 10.93 5.88 C16.89 2.5, 31.08 2.58, 36.61 2.24 C42.13 1.9, 44.21 3.56, 44.08 3.82 M21.44 2.07 C27.33 0.07, 35.84 -0.76, 41.38 1.67 C46.92 4.1, 52.28 11.11, 54.67 16.65 C57.06 22.19, 57.49 29.1, 55.73 34.92 C53.98 40.74, 48.93 48.01, 44.13 51.57 C39.33 55.14, 32.75 56.56, 26.93 56.32 C21.11 56.07, 13.56 54.08, 9.22 50.11 C4.89 46.15, 1.51 38.69, 0.91 32.52 C0.32 26.35, 2.34 18.57, 5.67 13.11 C8.99 7.66, 18.28 1.8, 20.88 -0.21 C23.49 -2.21, 21.12 0.36, 21.3 1.09" stroke="none" stroke-width="0" fill="#a5d8ff"></path><path d="M18.59 2.1 C23.87 -0.31, 32.11 -0.93, 38.08 1.17 C44.05 3.27, 51.38 9.33, 54.41 14.72 C57.44 20.11, 57.5 27.34, 56.24 33.51 C54.97 39.68, 51.62 47.9, 46.84 51.76 C42.05 55.61, 33.64 57.07, 27.53 56.63 C21.42 56.2, 14.78 53.12, 10.17 49.14 C5.57 45.16, 0.95 38.77, -0.1 32.75 C-1.15 26.74, -0.02 18.45, 3.88 13.06 C7.78 7.67, 19.65 2.56, 23.3 0.4 C26.95 -1.75, 25.66 -0.35, 25.76 0.11 M35.15 -0.64 C40.73 0.39, 48.01 6.54, 51.65 11.88 C55.29 17.22, 57.44 25.18, 57 31.4 C56.55 37.62, 53.03 45.03, 48.99 49.21 C44.95 53.39, 38.93 55.96, 32.73 56.47 C26.53 56.98, 17.04 55.41, 11.8 52.27 C6.56 49.12, 3 43.22, 1.3 37.6 C-0.39 31.99, -0.79 24.16, 1.61 18.58 C4 12.99, 9.91 7.23, 15.67 4.07 C21.42 0.9, 33.12 0.08, 36.15 -0.41 C39.18 -0.89, 33.98 0.73, 33.84 1.16" stroke="#1e1e1e" stroke-width="2" fill="none"></path></g><g transform="translate(414.32277231458204 445.5765438929941) rotate(0 13.249992370605469 12.5)"><text x="13.249992370605469" y="0" font-family="Virgil, Segoe UI Emoji" font-size="20px" fill="#1e1e1e" text-anchor="middle" style="white-space: pre;" direction="ltr" dominant-baseline="text-before-edge">N3</text></g><g stroke-linecap="round" transform="translate(125.89239501953125 443.0628307214786) rotate(0 28.498321533203125 28.498321533203125)"><path d="M26.12 0.77 C31.73 -0.27, 38.8 1.53, 43.79 4.97 C48.78 8.42, 54.13 15.43, 56.06 21.45 C57.99 27.47, 57.82 35.62, 55.37 41.08 C52.93 46.54, 46.97 51.79, 41.39 54.23 C35.81 56.67, 27.95 57.32, 21.9 55.73 C15.86 54.15, 8.67 49.72, 5.14 44.73 C1.62 39.74, 0.35 31.7, 0.74 25.81 C1.13 19.91, 1.97 13.56, 7.48 9.36 C12.98 5.17, 28.03 1.62, 33.75 0.64 C39.47 -0.34, 41.99 3.05, 41.8 3.48 M31.62 -0.75 C37.12 -0.38, 44.44 4.17, 48.56 8.89 C52.68 13.62, 55.88 21.63, 56.32 27.59 C56.75 33.55, 54.89 39.9, 51.17 44.66 C47.46 49.41, 39.84 54.78, 34.01 56.12 C28.18 57.45, 21.51 55.54, 16.21 52.67 C10.91 49.8, 4.68 44.4, 2.21 38.9 C-0.27 33.39, -0.63 25.33, 1.37 19.65 C3.37 13.97, 8.9 7.94, 14.22 4.81 C19.54 1.69, 30.27 1.48, 33.28 0.91 C36.3 0.34, 32.78 1.26, 32.31 1.37" stroke="none" stroke-width="0" fill="#ffec99"></path><path d="M20.8 1.35 C26.22 -0.86, 35.01 -0.46, 40.65 1.86 C46.29 4.18, 52.15 9.67, 54.62 15.27 C57.09 20.87, 56.95 29.38, 55.48 35.46 C54.02 41.53, 50.78 48, 45.83 51.72 C40.87 55.44, 31.76 58.05, 25.75 57.76 C19.73 57.46, 14.06 54.36, 9.75 49.96 C5.43 45.57, 0.65 37.59, -0.14 31.38 C-0.93 25.17, 1.02 17.86, 5.02 12.71 C9.02 7.56, 20.16 2.66, 23.87 0.48 C27.59 -1.7, 27.23 -0.71, 27.31 -0.37 M36.98 0.19 C42.84 1.71, 50.38 8.03, 53.71 13.21 C57.05 18.38, 58.24 25.36, 56.98 31.23 C55.72 37.1, 50.71 44.23, 46.15 48.43 C41.6 52.62, 35.33 56.17, 29.64 56.4 C23.95 56.63, 16.93 53.74, 12.02 49.83 C7.11 45.93, 1.62 38.92, 0.19 32.97 C-1.23 27.03, 0.6 19.48, 3.47 14.16 C6.33 8.85, 11.72 3.21, 17.4 1.1 C23.08 -1.02, 34.41 1.4, 37.56 1.47 C40.7 1.54, 36.3 1.31, 36.27 1.53" stroke="#1e1e1e" stroke-width="2" fill="none"></path></g><g transform="translate(141.39937143567573 458.9097958461192) rotate(0 12.839988708496094 12.5)"><text x="12.839988708496094" y="0" font-family="Virgil, Segoe UI Emoji" font-size="20px" fill="#1e1e1e" text-anchor="middle" style="white-space: pre;" direction="ltr" dominant-baseline="text-before-edge">N4</text></g><g stroke-linecap="round" transform="translate(10 206.17051199589267) rotate(0 28.498321533203125 28.498321533203125)"><path d="M22.51 0.03 C27.97 -1.31, 36.19 0.54, 41.71 3.56 C47.23 6.59, 53.38 12.58, 55.64 18.19 C57.9 23.79, 57.4 31.26, 55.26 37.21 C53.12 43.15, 47.91 50.59, 42.78 53.87 C37.65 57.16, 30.48 58.05, 24.48 56.93 C18.47 55.81, 10.72 51.73, 6.76 47.16 C2.8 42.58, 0.66 35.64, 0.74 29.47 C0.83 23.29, 3.21 15.1, 7.26 10.09 C11.31 5.09, 21.47 1.04, 25.04 -0.58 C28.61 -2.2, 28.46 -0.18, 28.68 0.37 M16.34 4.09 C21.34 1.68, 29.94 1.23, 35.71 2.44 C41.47 3.65, 47.2 6.74, 50.93 11.35 C54.67 15.96, 58.76 23.94, 58.15 30.11 C57.54 36.27, 51.63 43.82, 47.27 48.32 C42.92 52.82, 38.07 56.64, 32.02 57.11 C25.96 57.57, 16.03 54.39, 10.95 51.11 C5.86 47.83, 3.04 43, 1.51 37.43 C-0.02 31.85, -0.78 23.31, 1.77 17.66 C4.32 12.01, 14.14 5.8, 16.83 3.52 C19.52 1.25, 17.73 3.7, 17.91 3.99" stroke="none" stroke-width="0" fill="#ffd8a8"></path><path d="M34.23 0.61 C40 1.44, 46.47 6.74, 50.22 11.7 C53.98 16.66, 56.97 24.37, 56.74 30.38 C56.52 36.38, 52.95 43.41, 48.89 47.72 C44.83 52.04, 38.41 55.36, 32.4 56.27 C26.39 57.18, 18.14 56.31, 12.81 53.2 C7.48 50.08, 2.07 43.66, 0.4 37.58 C-1.27 31.5, 0.34 22.32, 2.79 16.74 C5.23 11.16, 8.96 6.61, 15.07 4.09 C21.18 1.58, 34.7 1.58, 39.46 1.65 C44.21 1.73, 43.78 4.08, 43.58 4.54 M35.12 0.08 C41.3 1.33, 48.88 7.04, 52.46 11.81 C56.03 16.58, 57.11 22.68, 56.58 28.7 C56.05 34.72, 53.41 43.32, 49.27 47.93 C45.12 52.54, 37.63 55.42, 31.71 56.35 C25.79 57.28, 19.04 56.76, 13.76 53.5 C8.48 50.23, 1.9 42.91, 0.03 36.73 C-1.83 30.55, -0.12 21.77, 2.57 16.43 C5.27 11.08, 10.71 7.38, 16.19 4.68 C21.68 1.97, 32.51 0.92, 35.5 0.2 C38.48 -0.53, 34.42 -0.31, 34.1 0.33" stroke="#1e1e1e" stroke-width="2" fill="none"></path></g><g transform="translate(25.726977636847607 222.01747712053324) rotate(0 12.619987487792969 12.5)"><text x="12.619987487792969" y="0" font-family="Virgil, Segoe UI Emoji" font-size="20px" fill="#1e1e1e" text-anchor="middle" style="white-space: pre;" direction="ltr" dominant-baseline="text-before-edge">N5</text></g><g stroke-linecap="round" transform="translate(86.73788452148438 91.90839651737704) rotate(0 23.220489501953125 23.220489501953125)"><path d="M11.61 0 C18.38 -1.42, 26.71 -0.21, 34.83 0 C44.64 1.43, 47.27 3.18, 46.44 11.61 C45.08 15.74, 47.46 23.32, 46.44 34.83 C49.65 42.16, 43.55 47.29, 34.83 46.44 C28.39 46.36, 22.15 44.53, 11.61 46.44 C4.17 45.54, -2.88 42.6, 0 34.83 C-0.21 26.72, -0.85 17.05, 0 11.61 C1.58 7.22, 4.32 1.36, 11.61 0" stroke="none" stroke-width="0" fill="#ffffff"></path><path d="M11.61 0 C18.22 1.51, 26.21 1.73, 34.83 0 M11.61 0 C17.74 0.5, 22.69 1.14, 34.83 0 M34.83 0 C44.21 -1.96, 45.26 4.8, 46.44 11.61 M34.83 0 C40.28 0.47, 45.76 5.73, 46.44 11.61 M46.44 11.61 C45.65 18.64, 46.6 25.11, 46.44 34.83 M46.44 11.61 C46.25 18.09, 46.05 23.44, 46.44 34.83 M46.44 34.83 C44.9 41.95, 44.5 45.08, 34.83 46.44 M46.44 34.83 C44.19 42.54, 42.18 46.59, 34.83 46.44 M34.83 46.44 C28.94 46.71, 24.89 44.88, 11.61 46.44 M34.83 46.44 C25.53 47.2, 17.94 45.77, 11.61 46.44 M11.61 46.44 C2.08 45.26, 1.72 42.33, 0 34.83 M11.61 46.44 C3.92 45.82, 1.38 42.3, 0 34.83 M0 34.83 C0.21 28.2, -0.77 21.53, 0 11.61 M0 34.83 C-0.88 29.03, -0.17 22.01, 0 11.61 M0 11.61 C-0.44 2.27, 5.21 0.06, 11.61 0 M0 11.61 C-0.95 4.86, 2.38 1.46, 11.61 0" stroke="#1e1e1e" stroke-width="2" fill="none"></path></g><g transform="translate(102.37837982177734 102.62888601933017) rotate(0 7.579994201660156 12.5)"><text x="7.579994201660156" y="0" font-family="Virgil, Segoe UI Emoji" font-size="20px" fill="#1e1e1e" text-anchor="middle" style="white-space: pre;" direction="ltr" dominant-baseline="text-before-edge">k1</text></g><g stroke-linecap="round" transform="translate(416.6182556152344 87.78859976444735) rotate(0 23.220489501953125 23.220489501953125)"><path d="M11.61 0 C18.38 -1.9, 28.58 -2.86, 34.83 0 C39.36 -2.74, 44.25 5.35, 46.44 11.61 C43.1 16.89, 49.98 29.06, 46.44 34.83 C44.65 40.96, 41.67 45.73, 34.83 46.44 C31.96 48.5, 23.11 45.24, 11.61 46.44 C5.37 42.86, 1.4 42.51, 0 34.83 C2.4 27.61, 2.96 23.21, 0 11.61 C0 0.81, 5.25 1.73, 11.61 0" stroke="none" stroke-width="0" fill="#ffffff"></path><path d="M11.61 0 C19.02 -0.51, 25.97 -0.65, 34.83 0 M11.61 0 C18 -0.04, 22.87 0.31, 34.83 0 M34.83 0 C43.2 0.87, 44.59 4.57, 46.44 11.61 M34.83 0 C42.77 1.73, 45.47 4.06, 46.44 11.61 M46.44 11.61 C46.5 18.43, 47.8 24.31, 46.44 34.83 M46.44 11.61 C46.83 18.95, 46.52 24.8, 46.44 34.83 M46.44 34.83 C45.98 42.94, 43.1 45.47, 34.83 46.44 M46.44 34.83 C45.74 44.18, 44.01 46.41, 34.83 46.44 M34.83 46.44 C29.26 44.89, 22.77 47.77, 11.61 46.44 M34.83 46.44 C27.65 46.35, 20.83 47.47, 11.61 46.44 M11.61 46.44 C5.33 48.23, 1.89 40.91, 0 34.83 M11.61 46.44 C5.17 47.05, -0.65 44.83, 0 34.83 M0 34.83 C-0.17 25.99, -1.62 20.07, 0 11.61 M0 34.83 C-0.33 28.11, -0.69 21.32, 0 11.61 M0 11.61 C1.77 2.28, 2.01 1.64, 11.61 0 M0 11.61 C1.5 4.05, 5.19 -2.12, 11.61 0" stroke="#1e1e1e" stroke-width="2" fill="none"></path></g><g transform="translate(427.8487548828125 98.50908926640048) rotate(0 11.989990234375 12.5)"><text x="11.989990234375" y="0" font-family="Virgil, Segoe UI Emoji" font-size="20px" fill="#1e1e1e" text-anchor="middle" style="white-space: pre;" direction="ltr" dominant-baseline="text-before-edge">k2</text></g><g stroke-linecap="round" transform="translate(260.9515075683594 483.8997753015567) rotate(0 23.220489501953125 23.220489501953125)"><path d="M11.61 0 C15.88 -0.4, 22.72 0.88, 34.83 0 C43.77 -0.52, 47.12 2.23, 46.44 11.61 C49.84 17.41, 43.48 25.38, 46.44 34.83 C46.64 43.11, 42.58 47.68, 34.83 46.44 C30.1 46.92, 20.48 46.16, 11.61 46.44 C6.4 45.81, 0.26 43.87, 0 34.83 C-1.44 30.44, -0.61 16.32, 0 11.61 C-2.99 3.67, 6.83 -0.6, 11.61 0" stroke="none" stroke-width="0" fill="#ffffff"></path><path d="M11.61 0 C19.68 0.55, 26.78 -1.59, 34.83 0 M11.61 0 C18.47 -0.25, 26.68 -0.16, 34.83 0 M34.83 0 C42.66 -1.18, 47.8 3.41, 46.44 11.61 M34.83 0 C40.79 1.06, 44.79 4.19, 46.44 11.61 M46.44 11.61 C47.68 18.71, 46.55 22.13, 46.44 34.83 M46.44 11.61 C46.75 18.37, 46.58 27.05, 46.44 34.83 M46.44 34.83 C44.95 41.59, 43.91 46.82, 34.83 46.44 M46.44 34.83 C45.08 42.65, 40.58 45.33, 34.83 46.44 M34.83 46.44 C24.97 47.48, 15.12 47.05, 11.61 46.44 M34.83 46.44 C29.88 45.88, 25.53 45.43, 11.61 46.44 M11.61 46.44 C5.11 48.09, 1.38 42.3, 0 34.83 M11.61 46.44 C3.53 44.54, 1.33 43.26, 0 34.83 M0 34.83 C-1.69 26.01, 1.76 17.01, 0 11.61 M0 34.83 C-0.21 26.46, 0.72 17.02, 0 11.61 M0 11.61 C-0.2 2.02, 3.1 0.53, 11.61 0 M0 11.61 C1.85 5.84, 2.69 1.65, 11.61 0" stroke="#1e1e1e" stroke-width="2" fill="none"></path></g><g transform="translate(272.49200439453125 494.6202648035098) rotate(0 11.67999267578125 12.5)"><text x="11.67999267578125" y="0" font-family="Virgil, Segoe UI Emoji" font-size="20px" fill="#1e1e1e" text-anchor="middle" style="white-space: pre;" direction="ltr" dominant-baseline="text-before-edge">k3</text></g><g stroke-linecap="round"><g transform="translate(285.62677001953125 533.0194957605411) rotate(0 -68.44618225097656 -3.00341796875)"><path d="M-1.07 -0.49 C-13.21 3.29, -49.94 28.25, -72.53 23.63 C-95.12 19.01, -126.08 -19.59, -136.61 -28.21 M0.58 -1.79 C-11.77 1.54, -50.56 26.5, -73.53 21.78 C-96.49 17.07, -126.4 -21.44, -137.23 -30.07" stroke="#1e1e1e" stroke-width="2" fill="none"></path></g><g transform="translate(285.62677001953125 533.0194957605411) rotate(0 -68.44618225097656 -3.00341796875)"><path d="M-110 -17.47 C-119.86 -21.99, -127.11 -25.51, -137.23 -30.07 M-110 -17.47 C-120.48 -21.11, -130.06 -27.65, -137.23 -30.07" stroke="#1e1e1e" stroke-width="2" fill="none"></path></g><g transform="translate(285.62677001953125 533.0194957605411) rotate(0 -68.44618225097656 -3.00341796875)"><path d="M-124.48 -2.92 C-129.7 -12.09, -132.2 -20.39, -137.23 -30.07 M-124.48 -2.92 C-129.66 -12.16, -133.8 -24.17, -137.23 -30.07" stroke="#1e1e1e" stroke-width="2" fill="none"></path></g></g><mask></mask><g stroke-linecap="round"><g transform="translate(465.626708984375 103.57509878788485) rotate(0 26.5538330078125 49.053810119628906)"><path d="M0.46 0.04 C9.06 5.73, 45.09 18.54, 52.61 35.02 C60.12 51.5, 46.52 88.52, 45.56 98.91 M-0.76 -0.99 C7.56 4.76, 43.83 19.78, 51.4 36.11 C58.96 52.44, 45.26 86.67, 44.62 96.99" stroke="#1e1e1e" stroke-width="2" fill="none"></path></g><g transform="translate(465.626708984375 103.57509878788485) rotate(0 26.5538330078125 49.053810119628906)"><path d="M40.58 67.26 C42.39 77.75, 42.43 89.38, 44.62 96.99 M40.58 67.26 C42.43 78.93, 43.12 88.73, 44.62 96.99" stroke="#1e1e1e" stroke-width="2" fill="none"></path></g><g transform="translate(465.626708984375 103.57509878788485) rotate(0 26.5538330078125 49.053810119628906)"><path d="M60.63 71.62 C54.77 80.52, 47.16 90.49, 44.62 96.99 M60.63 71.62 C55.1 81.56, 48.42 89.77, 44.62 96.99" stroke="#1e1e1e" stroke-width="2" fill="none"></path></g></g><mask></mask><g stroke-linecap="round"><g transform="translate(112.29336547851562 89.13065603886142) rotate(0 58.220489501953125 -37.335052490234375)"><path d="M0.8 0.59 C6.27 -11.81, 14.33 -63.68, 33.57 -75.19 C52.8 -86.69, 102.34 -69.47, 116.2 -68.43 M-0.24 -0.15 C5.56 -12.32, 16.68 -62.21, 35.93 -73.92 C55.19 -85.63, 101.78 -71.44, 115.3 -70.41" stroke="#1e1e1e" stroke-width="2" fill="none"></path></g><g transform="translate(112.29336547851562 89.13065603886142) rotate(0 58.220489501953125 -37.335052490234375)"><path d="M85.76 -65.19 C97.46 -68.37, 106.32 -69.58, 115.3 -70.41 M85.76 -65.19 C96.46 -66.72, 106.19 -69.46, 115.3 -70.41" stroke="#1e1e1e" stroke-width="2" fill="none"></path></g><g transform="translate(112.29336547851562 89.13065603886142) rotate(0 58.220489501953125 -37.335052490234375)"><path d="M89.32 -85.4 C99.6 -81.24, 107.17 -75.13, 115.3 -70.41 M89.32 -85.4 C98.79 -79.7, 107.25 -75.23, 115.3 -70.41" stroke="#1e1e1e" stroke-width="2" fill="none"></path></g></g><mask></mask><g transform="translate(407.1128845214844 490.2235662956657) rotate(0 20.32989501953125 -24.001754760742188)" stroke="none"><path fill="#e03131" d="M -2.41,-0.83 Q -2.41,-0.83 -1.77,-2.47 -1.14,-4.11 -0.54,-5.53 0.04,-6.95 0.65,-8.04 1.26,-9.13 2.24,-10.30 3.22,-11.48 4.42,-13.09 5.62,-14.70 6.51,-15.88 7.41,-17.07 8.15,-17.94 8.90,-18.82 10.08,-20.11 11.26,-21.41 12.46,-22.73 13.67,-24.06 14.91,-25.28 16.16,-26.51 17.70,-28.02 19.23,-29.53 20.64,-30.95 22.05,-32.36 22.78,-33.21 23.51,-34.05 24.71,-35.52 25.92,-37.00 26.64,-38.12 27.37,-39.24 28.29,-40.62 29.21,-42.00 30.06,-43.11 30.92,-44.22 31.83,-44.98 32.74,-45.74 34.17,-46.91 35.60,-48.09 36.93,-49.01 38.26,-49.94 38.64,-50.31 39.01,-50.68 39.49,-50.90 39.97,-51.13 40.49,-51.20 41.02,-51.26 41.53,-51.15 42.05,-51.05 42.51,-50.78 42.96,-50.51 43.31,-50.12 43.66,-49.72 43.86,-49.23 44.06,-48.74 44.09,-48.21 44.13,-47.69 43.99,-47.18 43.86,-46.67 43.57,-46.23 43.28,-45.78 42.86,-45.46 42.45,-45.13 41.95,-44.96 41.45,-44.78 40.92,-44.78 40.39,-44.77 39.89,-44.93 39.39,-45.10 38.96,-45.41 38.54,-45.72 38.24,-46.16 37.94,-46.59 37.79,-47.10 37.64,-47.60 37.66,-48.13 37.68,-48.66 37.87,-49.15 38.06,-49.65 38.40,-50.05 38.74,-50.46 39.18,-50.74 39.63,-51.02 40.15,-51.14 40.66,-51.26 41.19,-51.20 41.71,-51.15 42.20,-50.94 42.68,-50.72 43.07,-50.36 43.45,-50.01 43.71,-49.54 43.96,-49.08 44.05,-48.56 44.14,-48.04 44.07,-47.52 43.99,-47.00 43.75,-46.53 43.50,-46.06 43.50,-46.06 43.50,-46.06 40.88,-44.01 38.25,-41.97 37.00,-40.90 35.76,-39.84 34.63,-38.83 33.50,-37.81 32.90,-36.64 32.29,-35.46 31.51,-34.40 30.73,-33.34 29.42,-31.78 28.11,-30.21 27.23,-29.14 26.35,-28.06 24.93,-26.65 23.51,-25.23 22.72,-24.43 21.93,-23.63 20.53,-22.27 19.13,-20.91 17.98,-19.94 16.83,-18.98 15.57,-17.58 14.32,-16.18 13.15,-15.00 11.99,-13.83 10.80,-12.49 9.62,-11.16 8.34,-9.67 7.06,-8.18 5.78,-6.62 4.50,-5.07 3.97,-3.80 3.43,-2.53 2.92,-0.85 2.41,0.83 2.27,1.10 2.14,1.38 1.94,1.62 1.74,1.85 1.50,2.04 1.25,2.22 0.96,2.34 0.68,2.45 0.38,2.50 0.07,2.55 -0.23,2.52 -0.53,2.49 -0.82,2.39 -1.11,2.29 -1.37,2.12 -1.63,1.96 -1.84,1.73 -2.05,1.51 -2.20,1.24 -2.35,0.97 -2.44,0.67 -2.52,0.38 -2.53,0.07 -2.54,-0.23 -2.47,-0.53 -2.41,-0.83 -2.41,-0.83 L -2.41,-0.83 Z"></path></g><g transform="translate(404.89068603515625 433.00130677418133) rotate(0 23.498245239257812 20.998245239257812)" stroke="none"><path fill="#e03131" d="M 1.87,-1.87 Q 1.87,-1.87 2.47,-1.32 3.07,-0.78 4.18,0.18 5.28,1.15 6.34,2.10 7.39,3.06 8.76,4.09 10.14,5.13 10.88,5.90 11.62,6.66 12.57,7.44 13.51,8.21 14.48,8.98 15.45,9.75 16.55,10.58 17.65,11.41 18.88,12.60 20.12,13.79 21.59,15.45 23.05,17.12 24.39,18.52 25.74,19.91 26.69,20.90 27.63,21.89 28.70,22.96 29.77,24.03 30.75,24.77 31.74,25.51 33.15,26.60 34.56,27.69 35.53,28.45 36.50,29.22 37.79,30.04 39.09,30.86 40.28,31.62 41.47,32.38 42.57,33.33 43.67,34.28 44.74,35.27 45.81,36.26 47.67,37.88 49.53,39.50 49.86,39.97 50.20,40.44 50.36,40.99 50.52,41.55 50.50,42.12 50.48,42.70 50.28,43.24 50.07,43.77 49.71,44.22 49.34,44.66 48.85,44.97 48.37,45.27 47.81,45.41 47.25,45.54 46.67,45.49 46.10,45.44 45.57,45.20 45.04,44.97 44.62,44.58 44.20,44.19 43.92,43.69 43.64,43.19 43.54,42.62 43.43,42.05 43.52,41.48 43.60,40.91 43.86,40.40 44.12,39.89 44.53,39.48 44.94,39.08 45.46,38.83 45.98,38.58 46.55,38.51 47.12,38.43 47.69,38.55 48.25,38.66 48.75,38.95 49.25,39.24 49.63,39.67 50.01,40.10 50.23,40.64 50.45,41.17 50.50,41.74 50.54,42.32 50.39,42.87 50.25,43.43 49.93,43.91 49.62,44.39 49.16,44.75 48.71,45.11 48.17,45.30 47.63,45.49 47.05,45.50 46.48,45.51 45.93,45.34 45.38,45.16 44.91,44.82 44.45,44.48 44.45,44.48 44.45,44.48 43.21,43.28 41.97,42.09 41.14,41.28 40.32,40.48 38.89,39.34 37.46,38.19 36.32,37.17 35.18,36.14 34.00,35.59 32.82,35.03 31.84,34.27 30.86,33.50 29.85,32.75 28.84,32.01 27.72,30.88 26.60,29.74 25.44,28.74 24.27,27.73 23.18,26.59 22.08,25.45 20.97,24.18 19.86,22.90 18.40,21.42 16.94,19.93 15.66,18.69 14.38,17.45 13.39,16.51 12.41,15.58 11.18,14.61 9.94,13.65 8.79,12.71 7.63,11.76 6.31,10.37 5.00,8.97 4.03,8.19 3.07,7.41 2.11,6.34 1.15,5.28 0.18,4.18 -0.78,3.07 -1.32,2.47 -1.87,1.87 -2.07,1.62 -2.27,1.37 -2.40,1.08 -2.53,0.78 -2.59,0.47 -2.64,0.16 -2.62,-0.15 -2.60,-0.47 -2.51,-0.78 -2.41,-1.08 -2.25,-1.36 -2.08,-1.63 -1.86,-1.86 -1.63,-2.08 -1.36,-2.25 -1.08,-2.41 -0.78,-2.51 -0.47,-2.60 -0.15,-2.62 0.16,-2.64 0.47,-2.59 0.78,-2.53 1.08,-2.40 1.37,-2.27 1.62,-2.07 1.87,-1.87 1.87,-1.87 L 1.87,-1.87 Z"></path></g><g transform="translate(529.3351745605469 223.00132203297042) rotate(0 -174.114501953125 178.1076202392578)" stroke="none"><path fill="#868e96" d="M 0.27,-2.63 Q 0.27,-2.63 1.17,-2.57 2.07,-2.51 3.59,-2.27 5.12,-2.04 6.52,-1.35 7.92,-0.67 9.17,0.00 10.43,0.68 11.47,1.14 12.51,1.61 13.55,2.49 14.60,3.37 15.56,3.87 16.53,4.37 17.86,5.24 19.19,6.10 20.53,7.36 21.87,8.63 23.07,9.84 24.27,11.05 25.38,12.61 26.49,14.16 27.00,15.87 27.52,17.58 27.94,18.79 28.36,19.99 28.81,21.45 29.26,22.90 29.35,24.05 29.44,25.19 29.66,26.60 29.89,28.02 30.23,29.48 30.56,30.95 30.75,32.28 30.93,33.61 30.96,35.63 30.99,37.66 31.18,39.50 31.38,41.35 31.62,43.28 31.85,45.21 31.87,46.36 31.88,47.51 32.12,49.19 32.36,50.87 32.39,52.87 32.43,54.88 32.66,56.50 32.89,58.12 33.07,59.66 33.24,61.20 33.36,63.48 33.47,65.75 33.48,67.64 33.50,69.53 33.74,71.12 33.97,72.71 34.04,74.26 34.10,75.80 34.24,76.91 34.37,78.02 34.54,79.49 34.71,80.97 34.75,82.10 34.78,83.22 34.79,84.79 34.79,86.36 34.80,87.78 34.81,89.20 34.79,90.98 34.77,92.77 34.76,94.45 34.76,96.14 34.76,97.65 34.77,99.16 34.77,100.64 34.78,102.12 34.79,103.52 34.80,104.93 34.59,106.73 34.39,108.53 34.13,109.68 33.88,110.83 33.58,112.44 33.28,114.05 33.28,115.43 33.28,116.81 33.06,118.55 32.84,120.28 32.57,121.78 32.31,123.28 32.00,125.33 31.68,127.39 31.39,128.62 31.10,129.84 30.98,130.92 30.86,132.01 30.62,133.33 30.37,134.66 29.87,136.05 29.38,137.44 29.04,138.70 28.69,139.96 28.37,141.12 28.06,142.27 27.55,143.62 27.04,144.98 26.71,146.08 26.37,147.18 26.05,149.00 25.73,150.82 25.21,152.82 24.69,154.81 24.12,156.51 23.56,158.20 23.30,159.54 23.04,160.88 22.54,162.64 22.04,164.40 21.51,166.21 20.97,168.01 20.69,169.05 20.40,170.09 19.62,172.35 18.83,174.61 18.20,176.55 17.58,178.49 17.29,179.55 17.00,180.60 16.44,182.59 15.88,184.57 15.24,186.35 14.60,188.12 14.08,189.22 13.57,190.32 13.09,192.22 12.60,194.12 12.07,195.15 11.54,196.19 10.92,197.57 10.30,198.95 9.82,200.48 9.34,202.00 8.52,203.90 7.70,205.79 7.12,207.31 6.54,208.84 5.74,210.58 4.94,212.31 4.61,213.41 4.28,214.51 3.79,216.12 3.30,217.73 3.01,218.94 2.72,220.15 1.81,221.86 0.90,223.58 0.55,224.78 0.21,225.99 -0.27,226.93 -0.75,227.88 -1.33,229.45 -1.91,231.02 -2.85,232.92 -3.79,234.83 -4.81,236.62 -5.83,238.41 -6.41,239.70 -6.99,240.99 -7.61,242.30 -8.24,243.61 -9.06,245.11 -9.88,246.60 -10.53,247.96 -11.19,249.32 -11.80,250.69 -12.42,252.06 -13.01,253.43 -13.61,254.81 -14.41,256.39 -15.21,257.98 -15.64,259.07 -16.06,260.16 -16.36,261.20 -16.67,262.25 -17.22,263.32 -17.78,264.40 -18.29,265.86 -18.80,267.32 -19.37,268.72 -19.93,270.11 -20.73,271.37 -21.53,272.62 -22.14,273.89 -22.76,275.16 -23.37,276.09 -23.99,277.01 -24.75,278.08 -25.52,279.16 -26.53,280.60 -27.55,282.03 -28.43,283.13 -29.32,284.23 -30.54,285.28 -31.75,286.32 -32.13,287.40 -32.51,288.48 -33.62,289.67 -34.72,290.86 -35.52,291.89 -36.32,292.92 -37.20,294.05 -38.09,295.18 -39.13,296.49 -40.17,297.79 -41.37,299.09 -42.56,300.39 -43.33,301.24 -44.09,302.09 -45.25,303.36 -46.41,304.63 -47.54,305.77 -48.66,306.90 -49.85,307.87 -51.04,308.83 -52.26,309.98 -53.47,311.13 -54.40,311.85 -55.33,312.57 -56.58,313.78 -57.83,314.99 -59.10,316.17 -60.37,317.36 -61.44,318.01 -62.51,318.67 -63.38,319.56 -64.25,320.45 -65.32,321.19 -66.38,321.94 -67.57,323.06 -68.75,324.19 -69.62,324.81 -70.49,325.43 -72.56,326.74 -74.63,328.05 -76.23,329.01 -77.84,329.96 -78.79,330.60 -79.74,331.24 -80.67,331.87 -81.59,332.49 -82.73,333.13 -83.87,333.76 -85.37,334.66 -86.87,335.55 -88.20,336.31 -89.54,337.08 -90.68,337.70 -91.83,338.32 -92.69,338.95 -93.55,339.59 -94.58,340.32 -95.61,341.05 -96.81,341.38 -98.00,341.71 -99.54,342.54 -101.08,343.36 -103.09,343.93 -105.10,344.50 -106.47,345.36 -107.84,346.21 -109.35,346.77 -110.87,347.33 -112.05,347.73 -113.23,348.13 -114.72,348.41 -116.22,348.69 -117.41,349.05 -118.60,349.40 -120.45,349.92 -122.31,350.43 -123.61,350.68 -124.92,350.93 -126.27,351.05 -127.62,351.16 -129.87,351.73 -132.11,352.29 -133.90,352.87 -135.68,353.44 -137.39,354.00 -139.10,354.55 -140.91,354.81 -142.73,355.08 -144.28,355.71 -145.83,356.34 -147.31,356.70 -148.79,357.06 -150.39,357.47 -151.99,357.88 -153.80,357.96 -155.60,358.03 -157.61,358.39 -159.61,358.74 -161.48,358.84 -163.34,358.94 -164.82,359.20 -166.31,359.47 -167.47,359.58 -168.63,359.70 -170.16,359.75 -171.69,359.80 -173.26,359.83 -174.82,359.85 -175.99,359.86 -177.15,359.87 -178.66,359.87 -180.17,359.86 -181.90,359.84 -183.63,359.81 -184.99,359.82 -186.35,359.83 -187.41,359.84 -188.47,359.86 -189.64,359.88 -190.80,359.91 -192.09,359.93 -193.37,359.95 -194.45,359.74 -195.53,359.53 -197.08,359.44 -198.64,359.34 -199.73,359.29 -200.83,359.25 -201.93,359.22 -203.04,359.18 -204.37,358.98 -205.71,358.77 -207.23,358.69 -208.74,358.61 -210.20,358.38 -211.66,358.15 -213.37,357.91 -215.08,357.67 -216.61,357.42 -218.13,357.16 -219.52,356.87 -220.90,356.58 -222.22,356.52 -223.54,356.47 -224.64,356.26 -225.75,356.05 -227.90,355.91 -230.06,355.76 -231.38,355.70 -232.70,355.64 -233.91,355.62 -235.11,355.59 -236.42,355.56 -237.73,355.52 -239.40,355.43 -241.08,355.34 -242.59,355.30 -244.10,355.26 -245.38,355.26 -246.66,355.26 -248.03,355.09 -249.40,354.93 -250.91,354.67 -252.42,354.41 -253.97,354.17 -255.52,353.93 -256.86,353.73 -258.20,353.53 -259.82,353.55 -261.44,353.57 -262.53,353.38 -263.62,353.19 -265.48,352.92 -267.35,352.65 -268.78,352.58 -270.22,352.50 -272.25,352.29 -274.28,352.08 -275.41,351.82 -276.55,351.56 -278.09,351.20 -279.64,350.83 -281.15,350.35 -282.65,349.87 -283.83,349.42 -285.01,348.98 -286.09,348.64 -287.17,348.30 -288.49,347.96 -289.81,347.62 -291.35,347.08 -292.90,346.54 -294.56,345.94 -296.22,345.33 -298.07,344.84 -299.92,344.35 -301.92,343.74 -303.93,343.14 -306.03,342.85 -308.14,342.56 -310.31,342.06 -312.48,341.55 -314.75,341.17 -317.02,340.78 -319.22,340.60 -321.41,340.42 -323.68,340.17 -325.94,339.91 -327.73,339.70 -329.53,339.50 -331.02,339.47 -332.51,339.44 -334.03,339.30 -335.56,339.15 -337.44,338.88 -339.32,338.61 -340.69,338.41 -342.05,338.21 -343.91,337.82 -345.77,337.42 -347.41,337.13 -349.04,336.83 -350.42,336.94 -351.79,337.06 -352.88,336.88 -353.97,336.69 -355.64,336.40 -357.31,336.12 -358.73,335.99 -360.15,335.86 -362.05,335.25 -363.94,334.65 -365.18,334.29 -366.42,333.94 -368.35,334.11 -370.28,334.29 -371.44,334.40 -372.59,334.52 -374.02,334.23 -375.45,333.94 -376.47,333.28 -377.49,332.62 -378.16,331.08 -378.83,329.54 -379.12,328.40 -379.42,327.27 -379.46,325.95 -379.50,324.64 -379.51,323.52 -379.52,322.40 -379.51,321.04 -379.50,319.67 -379.70,318.49 -379.90,317.31 -379.93,315.79 -379.96,314.27 -380.16,312.19 -380.36,310.10 -380.39,308.59 -380.43,307.07 -380.90,304.12 -381.37,301.17 -381.58,300.05 -381.80,298.92 -382.01,297.18 -382.23,295.44 -382.56,293.03 -382.90,290.61 -382.86,290.09 -382.82,289.56 -382.61,289.08 -382.41,288.60 -382.06,288.20 -381.71,287.81 -381.26,287.55 -380.80,287.29 -380.29,287.19 -379.78,287.08 -379.25,287.15 -378.73,287.22 -378.26,287.45 -377.79,287.68 -377.42,288.05 -377.04,288.41 -376.81,288.88 -376.57,289.35 -376.50,289.87 -376.42,290.39 -376.52,290.91 -376.61,291.42 -376.87,291.88 -377.12,292.34 -377.51,292.69 -377.90,293.05 -378.38,293.26 -378.86,293.47 -379.38,293.51 -379.91,293.56 -380.42,293.44 -380.93,293.31 -381.37,293.03 -381.81,292.75 -382.15,292.35 -382.48,291.94 -382.66,291.45 -382.85,290.96 -382.86,290.43 -382.88,289.91 -382.73,289.41 -382.58,288.90 -382.28,288.48 -381.97,288.05 -381.55,287.74 -381.13,287.43 -380.63,287.27 -380.12,287.11 -379.60,287.12 -379.08,287.14 -378.58,287.31 -378.09,287.49 -377.68,287.82 -377.27,288.14 -376.98,288.58 -376.69,289.02 -376.56,289.53 -376.43,290.04 -376.43,290.04 -376.43,290.04 -376.14,292.51 -375.85,294.98 -375.74,296.28 -375.63,297.57 -375.30,298.90 -374.97,300.23 -374.37,302.53 -373.76,304.83 -373.53,305.87 -373.31,306.91 -373.23,308.68 -373.15,310.44 -372.91,312.30 -372.67,314.15 -372.59,315.82 -372.51,317.49 -372.28,318.55 -372.06,319.61 -372.04,321.01 -372.03,322.40 -372.04,323.51 -372.05,324.61 -372.03,325.93 -372.02,327.25 -370.73,327.30 -369.44,327.35 -368.39,327.62 -367.35,327.90 -365.90,327.96 -364.45,328.02 -363.34,328.33 -362.23,328.65 -360.65,329.03 -359.07,329.41 -357.88,329.69 -356.70,329.97 -355.59,330.30 -354.48,330.63 -353.02,331.01 -351.56,331.38 -350.49,331.47 -349.43,331.55 -348.13,331.98 -346.84,332.41 -345.48,332.80 -344.12,333.20 -342.69,333.77 -341.26,334.34 -340.05,334.66 -338.85,334.99 -336.94,335.21 -335.03,335.44 -333.65,335.71 -332.26,335.97 -330.67,336.16 -329.07,336.34 -327.36,336.64 -325.65,336.94 -323.44,337.13 -321.22,337.31 -318.89,337.41 -316.55,337.52 -314.18,337.80 -311.80,338.07 -309.80,338.38 -307.79,338.69 -305.35,338.81 -302.91,338.93 -300.97,339.28 -299.03,339.64 -296.86,339.90 -294.69,340.16 -292.92,340.57 -291.14,340.98 -289.86,341.34 -288.57,341.69 -287.00,341.96 -285.42,342.22 -284.19,342.55 -282.96,342.87 -281.41,343.39 -279.85,343.90 -278.64,344.25 -277.42,344.59 -276.31,344.96 -275.20,345.33 -273.45,345.66 -271.70,345.99 -269.90,346.05 -268.10,346.11 -266.38,346.38 -264.67,346.65 -263.02,346.87 -261.37,347.10 -260.06,347.15 -258.75,347.20 -257.35,347.54 -255.96,347.88 -254.65,348.23 -253.34,348.59 -251.64,348.84 -249.93,349.08 -248.29,349.46 -246.66,349.84 -245.38,349.84 -244.10,349.84 -242.59,349.79 -241.07,349.75 -239.40,349.67 -237.72,349.58 -236.40,349.55 -235.08,349.52 -233.86,349.51 -232.64,349.49 -231.27,349.46 -229.90,349.43 -228.55,349.42 -227.19,349.41 -225.80,349.48 -224.42,349.56 -222.89,349.73 -221.37,349.91 -220.12,350.06 -218.88,350.20 -217.74,350.46 -216.60,350.72 -215.01,350.99 -213.41,351.27 -212.22,351.44 -211.02,351.61 -208.97,351.91 -206.91,352.20 -204.96,352.40 -203.00,352.59 -201.88,352.57 -200.75,352.55 -199.61,352.53 -198.47,352.51 -197.23,352.51 -195.99,352.50 -194.66,352.71 -193.33,352.93 -192.07,352.94 -190.80,352.96 -189.64,352.99 -188.47,353.01 -187.41,353.03 -186.35,353.04 -184.99,353.05 -183.63,353.06 -182.55,353.03 -181.48,353.00 -180.04,353.00 -178.60,353.00 -177.30,353.01 -176.01,353.01 -174.39,353.03 -172.76,353.05 -171.29,353.08 -169.82,353.12 -168.64,353.16 -167.45,353.20 -166.31,352.98 -165.16,352.77 -163.51,352.76 -161.86,352.76 -160.31,352.66 -158.77,352.57 -157.54,352.29 -156.31,352.01 -154.21,351.67 -152.11,351.33 -150.41,350.80 -148.70,350.28 -147.54,349.99 -146.37,349.70 -144.79,349.23 -143.22,348.76 -142.12,348.68 -141.02,348.61 -139.21,348.04 -137.39,347.48 -135.55,346.90 -133.71,346.31 -132.56,345.98 -131.40,345.64 -128.89,345.05 -126.37,344.46 -124.34,343.89 -122.31,343.32 -120.66,342.77 -119.00,342.23 -117.94,342.02 -116.88,341.81 -115.44,341.62 -113.99,341.44 -112.45,340.84 -110.90,340.24 -109.78,339.67 -108.66,339.10 -107.48,338.54 -106.29,337.99 -105.16,337.70 -104.04,337.41 -102.51,336.64 -100.98,335.88 -99.63,335.45 -98.28,335.02 -97.11,334.20 -95.94,333.37 -94.77,332.72 -93.60,332.07 -92.46,331.51 -91.32,330.96 -89.83,330.11 -88.34,329.25 -86.70,328.34 -85.06,327.43 -84.17,326.82 -83.29,326.20 -82.23,325.42 -81.17,324.65 -80.26,324.07 -79.35,323.50 -77.73,322.67 -76.10,321.84 -75.19,321.02 -74.27,320.19 -72.98,319.21 -71.69,318.24 -70.74,317.31 -69.79,316.38 -68.79,315.51 -67.78,314.63 -66.75,313.80 -65.72,312.96 -64.66,312.16 -63.59,311.36 -62.38,310.31 -61.17,309.26 -60.32,308.31 -59.47,307.36 -58.11,306.11 -56.74,304.85 -55.45,303.69 -54.16,302.52 -53.28,301.77 -52.40,301.01 -51.39,299.95 -50.38,298.90 -49.37,297.68 -48.36,296.47 -47.38,295.62 -46.39,294.77 -45.47,293.54 -44.54,292.32 -43.67,291.16 -42.80,290.00 -41.84,288.76 -40.88,287.53 -39.86,286.28 -38.83,285.02 -37.99,283.84 -37.14,282.66 -35.75,281.05 -34.36,279.44 -32.98,278.22 -31.59,277.00 -30.67,275.57 -29.75,274.14 -29.09,273.16 -28.44,272.18 -27.52,271.38 -26.61,270.59 -27.20,271.50 -27.79,272.41 -27.54,271.34 -27.29,270.27 -26.42,269.47 -25.55,268.68 -25.09,267.60 -24.64,266.52 -23.97,265.04 -23.31,263.57 -22.46,262.10 -21.61,260.64 -21.19,259.44 -20.78,258.23 -20.27,257.05 -19.76,255.86 -19.13,254.34 -18.49,252.82 -17.95,251.41 -17.41,249.99 -16.85,248.54 -16.30,247.10 -15.71,245.59 -15.12,244.09 -14.52,242.61 -13.91,241.12 -13.44,239.93 -12.97,238.74 -12.47,237.16 -11.96,235.57 -11.39,234.25 -10.82,232.92 -10.22,231.97 -9.61,231.02 -8.83,229.32 -8.04,227.63 -7.37,226.11 -6.69,224.58 -6.03,223.19 -5.36,221.80 -4.70,220.52 -4.03,219.24 -3.62,218.09 -3.21,216.93 -2.71,215.62 -2.20,214.30 -1.81,212.77 -1.41,211.23 -0.73,209.63 -0.05,208.03 0.55,206.52 1.15,205.01 1.91,203.34 2.68,201.67 3.30,200.11 3.92,198.54 4.22,197.18 4.51,195.82 5.02,194.71 5.52,193.59 6.44,191.73 7.36,189.86 7.63,188.72 7.90,187.58 8.50,186.46 9.10,185.34 9.57,184.17 10.04,183.00 10.61,181.03 11.17,179.05 11.47,177.93 11.76,176.81 12.08,175.67 12.41,174.53 12.76,173.52 13.11,172.51 13.75,170.52 14.40,168.53 14.67,167.44 14.94,166.35 15.23,165.29 15.52,164.22 16.04,162.58 16.57,160.93 17.01,159.55 17.46,158.16 17.94,156.48 18.42,154.81 18.96,153.12 19.51,151.44 19.98,149.66 20.45,147.89 20.66,146.72 20.86,145.55 21.23,144.30 21.59,143.05 21.98,141.88 22.37,140.70 22.66,139.67 22.94,138.64 23.26,137.01 23.58,135.39 24.06,133.44 24.53,131.50 24.62,130.00 24.71,128.51 24.90,127.42 25.10,126.34 25.23,125.25 25.36,124.16 25.60,122.36 25.84,120.57 26.06,118.65 26.28,116.73 26.37,115.12 26.45,113.51 26.76,112.08 27.06,110.65 27.34,109.35 27.63,108.04 27.85,106.49 28.07,104.93 28.08,103.52 28.09,102.12 28.10,100.64 28.10,99.16 28.11,97.65 28.12,96.14 28.11,94.45 28.10,92.77 28.08,90.98 28.07,89.20 28.07,87.79 28.08,86.37 28.07,84.82 28.07,83.28 28.07,81.82 28.06,80.37 27.84,78.94 27.62,77.51 27.62,75.99 27.61,74.46 27.56,73.17 27.50,71.87 27.32,70.73 27.13,69.59 27.11,67.76 27.09,65.92 26.99,64.20 26.90,62.47 26.69,61.36 26.49,60.24 26.42,58.69 26.35,57.13 26.13,55.07 25.91,53.01 25.83,51.45 25.75,49.89 25.54,48.82 25.33,47.74 25.21,45.92 25.08,44.10 24.78,42.13 24.48,40.16 24.26,38.98 24.05,37.80 23.96,36.09 23.87,34.39 23.56,33.12 23.25,31.86 23.00,30.42 22.76,28.98 22.52,27.23 22.28,25.48 22.04,24.28 21.81,23.08 21.52,21.79 21.23,20.51 21.01,18.94 20.78,17.37 19.70,16.02 18.63,14.67 17.86,13.87 17.08,13.06 15.83,12.08 14.57,11.10 13.41,10.24 12.26,9.38 11.22,8.77 10.18,8.16 9.49,7.35 8.79,6.54 7.62,5.98 6.45,5.43 5.29,4.51 4.14,3.59 2.82,3.24 1.50,2.89 0.61,2.76 -0.27,2.63 -0.58,2.55 -0.90,2.48 -1.18,2.34 -1.46,2.19 -1.71,1.99 -1.95,1.78 -2.13,1.52 -2.32,1.26 -2.44,0.96 -2.55,0.67 -2.60,0.35 -2.64,0.03 -2.61,-0.27 -2.57,-0.59 -2.46,-0.89 -2.36,-1.19 -2.18,-1.45 -2.00,-1.72 -1.77,-1.93 -1.53,-2.15 -1.25,-2.30 -0.97,-2.45 -0.66,-2.53 -0.35,-2.62 -0.03,-2.62 0.27,-2.63 0.27,-2.63 L 0.27,-2.63 Z"></path></g></svg>